<?xml version="1.0" encoding="UTF-8" standalone="no"?>
<!DOCTYPE svg PUBLIC "-//W3C//DTD SVG 1.1//EN"
"http://www.w3.org/Graphics/SVG/1.1/DTD/svg11.dtd">
<svg version="1.1" xmlns="http://www.w3.org/2000/svg" xmlns:xlink="http://www.w3.org/1999/xlink">
<defs>
<style type="text/css"><![CDATA[
.g4_169{
fill: none;
stroke: #EFEFEF;
stroke-width: 1;
stroke-linecap: butt;
stroke-linejoin: miter;
}
.g2_169{
fill: #A0A0A0;
}
.g1_169{
fill: #EFEFEF;
}
.g3_169{
fill: none;
stroke: #A0A0A0;
stroke-width: 1;
stroke-linecap: butt;
stroke-linejoin: miter;
}
]]></style>
</defs>
<image x="368" y="52" width="116" height="494" xlink:href="img/1.png" />
<image x="481" y="60" width="116" height="477" xlink:href="img/2.png" />
<image x="508" y="534" width="2" height="2" xlink:href="img/3.png" />
<path d="M217,583l7,0l0,-19l-7,0l0,19Z" class="g1_169" />
<path d="M217,571l493,0l0,-7l-493,0l0,7Z" class="g1_169" />
<path d="M710,583l7,0l0,-19l-7,0l0,19Z" class="g2_169" />
<path d="M710,571l7,0l0,-7l-7,0l0,7Z" class="g1_169" />
<path d="M226.5,578.5l0,-2" class="g3_169" />
<path d="M226.5,578.5l54,0" class="g3_169" />
<path d="M280.5,578.5l0,-2" class="g4_169" />
<path d="M280.5,578.5l0,-2" class="g3_169" />
<path d="M226.5,612.5l0,-1" class="g3_169" />
<path d="M226.5,612.5l55,0" class="g4_169" />
<path d="M280.5,612.5l0,-1" class="g4_169" />
<path d="M226.5,611.5l0,-33" class="g3_169" />
<path d="M280.5,611.5l0,-33" class="g4_169" />
<path d="M217,614l7,0l0,-31l-7,0l0,31Z" class="g1_169" />
<path d="M286.5,578.5l0,-2" class="g3_169" />
<path d="M286.5,578.5l67,0" class="g3_169" />
<path d="M353.5,578.5l0,-2" class="g4_169" />
<path d="M353.5,578.5l0,-2" class="g3_169" />
<path d="M286.5,612.5l0,-1" class="g3_169" />
<path d="M286.5,612.5l68,0" class="g4_169" />
<path d="M353.5,612.5l0,-1" class="g4_169" />
<path d="M286.5,611.5l0,-33" class="g3_169" />
<path d="M353.5,611.5l0,-33" class="g4_169" />
<path d="M360.5,578.5l0,-2" class="g3_169" />
<path d="M360.5,578.5l347,0" class="g3_169" />
<path d="M707.5,578.5l0,-2" class="g4_169" />
<path d="M707.5,578.5l0,-2" class="g3_169" />
<path d="M360.5,612.5l0,-1" class="g3_169" />
<path d="M360.5,612.5l348,0" class="g4_169" />
<path d="M707.5,612.5l0,-1" class="g4_169" />
<path d="M360.5,611.5l0,-33" class="g3_169" />
<path d="M707.5,611.5l0,-33" class="g4_169" />
<path d="M710,614l7,0l0,-31l-7,0l0,31Z" class="g2_169" />
<image x="270" y="417.333" width="6" height="2" xlink:href="img/4.png" transform="scale(1.166 , 1.5)" />
<image x="279.111" y="628" width="8" height="4" xlink:href="img/5.png" transform="scale(1.125 , 1)" />
<image x="281.699" y="631" width="9" height="2" xlink:href="img/6.png" transform="scale(1.111 , 1)" />
<image x="323" y="631" width="2" height="2" xlink:href="img/7.png" />
<image x="313" y="632" width="5" height="2" xlink:href="img/8.png" />
<image x="321" y="632" width="5" height="2" xlink:href="img/9.png" />
<image x="313" y="633" width="12" height="3" xlink:href="img/10.png" />
<image x="284.545" y="635" width="10" height="2" xlink:href="img/11.png" transform="scale(1.1 , 1)" />
<image x="281.699" y="636" width="9" height="2" xlink:href="img/12.png" transform="scale(1.111 , 1)" />
<image x="278.222" y="638" width="8" height="2" xlink:href="img/13.png" transform="scale(1.125 , 1)" />
<image x="313" y="639" width="5" height="2" xlink:href="img/14.png" />
<image x="312" y="640" width="5" height="2" xlink:href="img/15.png" />
<image x="312" y="641" width="4" height="2" xlink:href="img/16.png" />
<image x="311" y="642" width="5" height="4" xlink:href="img/17.png" />
<image x="311" y="645" width="6" height="2" xlink:href="img/18.png" />
<image x="311" y="646" width="7" height="2" xlink:href="img/19.png" />
<image x="277.333" y="647" width="8" height="2" xlink:href="img/20.png" transform="scale(1.125 , 1)" />
<image x="312" y="432" width="18" height="2" xlink:href="img/21.png" transform="scale(1 , 1.5)" />
<image x="313" y="650" width="17" height="2" xlink:href="img/22.png" />
<image x="314" y="651" width="15" height="2" xlink:href="img/23.png" />
<image x="315" y="652" width="12" height="2" xlink:href="img/24.png" />
<image x="277.375" y="653" width="6.999" height="2" xlink:href="img/25.png" transform="scale(1.142 , 1)" />
<path d="M217,624l7,0l0,-10l-7,0l0,10Z" class="g1_169" />
<path d="M710,624l7,0l0,-10l-7,0l0,10Z" class="g2_169" />
<path d="M226.5,618.5l0,-1" class="g3_169" />
<path d="M226.5,618.5l54,0" class="g3_169" />
<path d="M280.5,618.5l0,-1" class="g4_169" />
<path d="M280.5,618.5l0,-1" class="g3_169" />
<path d="M226.5,663.5l0,-1" class="g3_169" />
<path d="M226.5,663.5l55,0" class="g4_169" />
<path d="M280.5,663.5l0,-1" class="g4_169" />
<path d="M226.5,662.5l0,-44" class="g3_169" />
<path d="M280.5,662.5l0,-44" class="g4_169" />
<path d="M217,666l7,0l0,-42l-7,0l0,42Z" class="g1_169" />
<path d="M286.5,618.5l0,-1" class="g3_169" />
<path d="M286.5,618.5l67,0" class="g3_169" />
<path d="M353.5,618.5l0,-1" class="g4_169" />
<path d="M353.5,618.5l0,-1" class="g3_169" />
<path d="M286.5,663.5l0,-1" class="g3_169" />
<path d="M286.5,663.5l68,0" class="g4_169" />
<path d="M353.5,663.5l0,-1" class="g4_169" />
<path d="M286.5,662.5l0,-44" class="g3_169" />
<path d="M353.5,662.5l0,-44" class="g4_169" />
<path d="M360.5,618.5l0,-1" class="g3_169" />
<path d="M360.5,618.5l347,0" class="g3_169" />
<path d="M707.5,618.5l0,-1" class="g4_169" />
<path d="M707.5,618.5l0,-1" class="g3_169" />
<path d="M360.5,663.5l0,-1" class="g3_169" />
<path d="M360.5,663.5l348,0" class="g4_169" />
<path d="M707.5,663.5l0,-1" class="g4_169" />
<path d="M360.5,662.5l0,-44" class="g3_169" />
<path d="M707.5,662.5l0,-44" class="g4_169" />
<path d="M710,666l7,0l0,-42l-7,0l0,42Z" class="g2_169" />
<image x="256" y="677" width="4" height="2" xlink:href="img/26.png" transform="scale(1.25 , 1)" />
<image x="265.833" y="678" width="5" height="2" xlink:href="img/27.png" transform="scale(1.2 , 1)" />
<image x="272.571" y="679" width="6" height="2" xlink:href="img/28.png" transform="scale(1.166 , 1)" />
<image x="318" y="510" width="8" height="3" xlink:href="img/29.png" transform="scale(1 , 1.333)" />
<image x="272.571" y="683" width="6" height="2" xlink:href="img/30.png" transform="scale(1.166 , 1)" />
<image x="318" y="684" width="5" height="5" xlink:href="img/31.png" />
<image x="272.571" y="688" width="6" height="3" xlink:href="img/32.png" transform="scale(1.166 , 1)" />
<image x="319" y="690" width="6" height="9" xlink:href="img/33.png" />
<image x="256" y="698" width="4" height="2" xlink:href="img/34.png" transform="scale(1.25 , 1)" />
<image x="320" y="699" width="3" height="2" xlink:href="img/35.png" />
<path d="M217,676l7,0l0,-10l-7,0l0,10Z" class="g1_169" />
<path d="M710,676l7,0l0,-10l-7,0l0,10Z" class="g2_169" />
<path d="M226.5,670.5l0,-1" class="g3_169" />
<path d="M226.5,670.5l54,0" class="g3_169" />
<path d="M280.5,670.5l0,-1" class="g4_169" />
<path d="M280.5,670.5l0,-1" class="g3_169" />
<path d="M226.5,710.5l0,-1" class="g3_169" />
<path d="M226.5,710.5l55,0" class="g4_169" />
<path d="M280.5,710.5l0,-1" class="g4_169" />
<path d="M226.5,709.5l0,-39" class="g3_169" />
<path d="M280.5,709.5l0,-39" class="g4_169" />
<path d="M217,713l7,0l0,-37l-7,0l0,37Z" class="g1_169" />
<path d="M286.5,670.5l0,-1" class="g3_169" />
<path d="M286.5,670.5l67,0" class="g3_169" />
<path d="M353.5,670.5l0,-1" class="g4_169" />
<path d="M353.5,670.5l0,-1" class="g3_169" />
<path d="M286.5,710.5l0,-1" class="g3_169" />
<path d="M286.5,710.5l68,0" class="g4_169" />
<path d="M353.5,710.5l0,-1" class="g4_169" />
<path d="M286.5,709.5l0,-39" class="g3_169" />
<path d="M353.5,709.5l0,-39" class="g4_169" />
<path d="M360.5,670.5l0,-1" class="g3_169" />
<path d="M360.5,670.5l347,0" class="g3_169" />
<path d="M707.5,670.5l0,-1" class="g4_169" />
<path d="M707.5,670.5l0,-1" class="g3_169" />
<path d="M360.5,710.5l0,-1" class="g3_169" />
<path d="M360.5,710.5l348,0" class="g4_169" />
<path d="M707.5,710.5l0,-1" class="g4_169" />
<path d="M360.5,709.5l0,-39" class="g3_169" />
<path d="M707.5,709.5l0,-39" class="g4_169" />
<path d="M710,713l7,0l0,-37l-7,0l0,37Z" class="g2_169" />
<image x="270" y="726" width="6" height="2" xlink:href="img/36.png" transform="scale(1.166 , 1)" />
<image x="325" y="726" width="2" height="2" xlink:href="img/37.png" />
<image x="315" y="727" width="12" height="3" xlink:href="img/38.png" />
<image x="273.428" y="729" width="6" height="2" xlink:href="img/39.png" transform="scale(1.166 , 1)" />
<image x="265.833" y="730" width="5" height="3" xlink:href="img/40.png" transform="scale(1.2 , 1)" />
<image x="272.571" y="732" width="6" height="3" xlink:href="img/41.png" transform="scale(1.166 , 1)" />
<image x="319" y="734" width="6" height="8" xlink:href="img/42.png" />
<image x="256" y="741" width="4" height="5" xlink:href="img/43.png" transform="scale(1.25 , 1)" />
<path d="M217,722l7,0l0,-9l-7,0l0,9Z" class="g1_169" />
<path d="M710,722l7,0l0,-9l-7,0l0,9Z" class="g2_169" />
<path d="M226.5,717.5l0,-1" class="g3_169" />
<path d="M226.5,717.5l54,0" class="g3_169" />
<path d="M280.5,717.5l0,-1" class="g4_169" />
<path d="M280.5,717.5l0,-1" class="g3_169" />
<path d="M226.5,754.5l0,-1" class="g3_169" />
<path d="M226.5,754.5l55,0" class="g4_169" />
<path d="M280.5,754.5l0,-1" class="g4_169" />
<path d="M226.5,753.5l0,-36" class="g3_169" />
<path d="M280.5,753.5l0,-36" class="g4_169" />
<path d="M217,757l7,0l0,-35l-7,0l0,35Z" class="g1_169" />
<path d="M286.5,717.5l0,-1" class="g3_169" />
<path d="M286.5,717.5l67,0" class="g3_169" />
<path d="M353.5,717.5l0,-1" class="g4_169" />
<path d="M353.5,717.5l0,-1" class="g3_169" />
<path d="M286.5,754.5l0,-1" class="g3_169" />
<path d="M286.5,754.5l68,0" class="g4_169" />
<path d="M353.5,754.5l0,-1" class="g4_169" />
<path d="M286.5,753.5l0,-36" class="g3_169" />
<path d="M353.5,753.5l0,-36" class="g4_169" />
<path d="M360.5,717.5l0,-1" class="g3_169" />
<path d="M360.5,717.5l347,0" class="g3_169" />
<path d="M707.5,717.5l0,-1" class="g4_169" />
<path d="M707.5,717.5l0,-1" class="g3_169" />
<path d="M360.5,754.5l0,-1" class="g3_169" />
<path d="M360.5,754.5l348,0" class="g4_169" />
<path d="M707.5,754.5l0,-1" class="g4_169" />
<path d="M360.5,753.5l0,-36" class="g3_169" />
<path d="M707.5,753.5l0,-36" class="g4_169" />
<path d="M710,757l7,0l0,-35l-7,0l0,35Z" class="g2_169" />
<image x="304" y="767" width="35" height="31" xlink:href="img/44.png" />
<path d="M217,767l7,0l0,-10l-7,0l0,10Z" class="g1_169" />
<path d="M710,767l7,0l0,-10l-7,0l0,10Z" class="g2_169" />
<path d="M226.5,761.5l0,-1" class="g3_169" />
<path d="M226.5,761.5l54,0" class="g3_169" />
<path d="M280.5,761.5l0,-1" class="g4_169" />
<path d="M280.5,761.5l0,-1" class="g3_169" />
<path d="M226.5,804.5l0,-1" class="g3_169" />
<path d="M226.5,804.5l55,0" class="g4_169" />
<path d="M280.5,804.5l0,-1" class="g4_169" />
<path d="M226.5,803.5l0,-42" class="g3_169" />
<path d="M280.5,803.5l0,-42" class="g4_169" />
<path d="M217,806l7,0l0,-39l-7,0l0,39Z" class="g1_169" />
<path d="M286.5,761.5l0,-1" class="g3_169" />
<path d="M286.5,761.5l67,0" class="g3_169" />
<path d="M353.5,761.5l0,-1" class="g4_169" />
<path d="M353.5,761.5l0,-1" class="g3_169" />
<path d="M286.5,804.5l0,-1" class="g3_169" />
<path d="M286.5,804.5l68,0" class="g4_169" />
<path d="M353.5,804.5l0,-1" class="g4_169" />
<path d="M286.5,803.5l0,-42" class="g3_169" />
<path d="M353.5,803.5l0,-42" class="g4_169" />
<path d="M360.5,761.5l0,-1" class="g3_169" />
<path d="M360.5,761.5l347,0" class="g3_169" />
<path d="M707.5,761.5l0,-1" class="g4_169" />
<path d="M707.5,761.5l0,-1" class="g3_169" />
<path d="M360.5,804.5l0,-1" class="g3_169" />
<path d="M360.5,804.5l348,0" class="g4_169" />
<path d="M707.5,804.5l0,-1" class="g4_169" />
<path d="M360.5,803.5l0,-42" class="g3_169" />
<path d="M707.5,803.5l0,-42" class="g4_169" />
<path d="M710,806l7,0l0,-39l-7,0l0,39Z" class="g2_169" />
<image x="310" y="816" width="24" height="39" xlink:href="img/45.png" />
<path d="M217,816l7,0l0,-10l-7,0l0,10Z" class="g1_169" />
<path d="M710,816l7,0l0,-10l-7,0l0,10Z" class="g2_169" />
<path d="M226.5,810.5l0,-1" class="g3_169" />
<path d="M226.5,810.5l54,0" class="g3_169" />
<path d="M280.5,810.5l0,-1" class="g4_169" />
<path d="M280.5,810.5l0,-1" class="g3_169" />
<path d="M226.5,859.5l0,-1" class="g3_169" />
<path d="M226.5,859.5l55,0" class="g4_169" />
<path d="M280.5,859.5l0,-1" class="g4_169" />
<path d="M226.5,858.5l0,-48" class="g3_169" />
<path d="M280.5,858.5l0,-48" class="g4_169" />
<path d="M217,862l7,0l0,-46l-7,0l0,46Z" class="g1_169" />
<path d="M286.5,810.5l0,-1" class="g3_169" />
<path d="M286.5,810.5l67,0" class="g3_169" />
<path d="M353.5,810.5l0,-1" class="g4_169" />
<path d="M353.5,810.5l0,-1" class="g3_169" />
<path d="M286.5,859.5l0,-1" class="g3_169" />
<path d="M286.5,859.5l68,0" class="g4_169" />
<path d="M353.5,859.5l0,-1" class="g4_169" />
<path d="M286.5,858.5l0,-48" class="g3_169" />
<path d="M353.5,858.5l0,-48" class="g4_169" />
<path d="M360.5,810.5l0,-1" class="g3_169" />
<path d="M360.5,810.5l347,0" class="g3_169" />
<path d="M707.5,810.5l0,-1" class="g4_169" />
<path d="M707.5,810.5l0,-1" class="g3_169" />
<path d="M360.5,859.5l0,-1" class="g3_169" />
<path d="M360.5,859.5l348,0" class="g4_169" />
<path d="M707.5,859.5l0,-1" class="g4_169" />
<path d="M360.5,858.5l0,-48" class="g3_169" />
<path d="M707.5,858.5l0,-48" class="g4_169" />
<path d="M710,862l7,0l0,-46l-7,0l0,46Z" class="g2_169" />
<image x="322" y="876" width="5" height="2" xlink:href="img/46.png" />
<image x="321" y="877" width="7" height="2" xlink:href="img/47.png" />
<image x="321" y="658.5" width="9" height="3" xlink:href="img/48.png" transform="scale(1 , 1.333)" />
<image x="291.818" y="881" width="10" height="3" xlink:href="img/49.png" transform="scale(1.1 , 1)" />
<image x="320" y="883" width="13" height="2" xlink:href="img/50.png" />
<image x="311" y="884" width="22" height="2" xlink:href="img/51.png" />
<image x="310" y="885" width="23" height="3" xlink:href="img/52.png" />
<image x="310" y="887" width="22" height="3" xlink:href="img/53.png" />
<image x="311" y="889" width="12" height="2" xlink:href="img/54.png" />
<path d="M217,871l7,0l0,-9l-7,0l0,9Z" class="g1_169" />
<path d="M710,871l7,0l0,-9l-7,0l0,9Z" class="g2_169" />
<path d="M226.5,865.5l0,-1" class="g3_169" />
<path d="M226.5,865.5l54,0" class="g3_169" />
<path d="M280.5,865.5l0,-1" class="g4_169" />
<path d="M280.5,865.5l0,-1" class="g3_169" />
<path d="M226.5,899.5l0,-1" class="g3_169" />
<path d="M226.5,899.5l55,0" class="g4_169" />
<path d="M280.5,899.5l0,-1" class="g4_169" />
<path d="M226.5,898.5l0,-33" class="g3_169" />
<path d="M280.5,898.5l0,-33" class="g4_169" />
<path d="M217,902l7,0l0,-31l-7,0l0,31Z" class="g1_169" />
<path d="M286.5,865.5l0,-1" class="g3_169" />
<path d="M286.5,865.5l67,0" class="g3_169" />
<path d="M353.5,865.5l0,-1" class="g4_169" />
<path d="M353.5,865.5l0,-1" class="g3_169" />
<path d="M286.5,899.5l0,-1" class="g3_169" />
<path d="M286.5,899.5l68,0" class="g4_169" />
<path d="M353.5,899.5l0,-1" class="g4_169" />
<path d="M286.5,898.5l0,-33" class="g3_169" />
<path d="M353.5,898.5l0,-33" class="g4_169" />
<path d="M360.5,865.5l0,-1" class="g3_169" />
<path d="M360.5,865.5l347,0" class="g3_169" />
<path d="M707.5,865.5l0,-1" class="g4_169" />
<path d="M707.5,865.5l0,-1" class="g3_169" />
<path d="M360.5,899.5l0,-1" class="g3_169" />
<path d="M360.5,899.5l348,0" class="g4_169" />
<path d="M707.5,899.5l0,-1" class="g4_169" />
<path d="M360.5,898.5l0,-33" class="g3_169" />
<path d="M707.5,898.5l0,-33" class="g4_169" />
<path d="M710,902l7,0l0,-31l-7,0l0,31Z" class="g2_169" />
<image x="278.222" y="914" width="8" height="2" xlink:href="img/55.png" transform="scale(1.125 , 1)" />
<image x="312" y="915" width="16" height="2" xlink:href="img/56.png" />
<image x="311" y="916" width="17" height="2" xlink:href="img/57.png" />
<image x="311" y="917" width="16" height="3" xlink:href="img/58.png" />
<image x="285.454" y="612.666" width="10" height="2" xlink:href="img/59.png" transform="scale(1.1 , 1.5)" />
<image x="273.875" y="921" width="6.999" height="2" xlink:href="img/60.png" transform="scale(1.142 , 1)" />
<image x="312" y="922" width="5" height="2" xlink:href="img/61.png" />
<image x="311" y="923" width="5" height="3" xlink:href="img/62.png" />
<image x="311" y="693.75" width="4" height="3" xlink:href="img/63.png" transform="scale(1 , 1.333)" />
<image x="310" y="928" width="6" height="2" xlink:href="img/64.png" />
<image x="311" y="929" width="6" height="2" xlink:href="img/65.png" />
<image x="311" y="930" width="8" height="2" xlink:href="img/66.png" />
<image x="296.19" y="698.25" width="20" height="3" xlink:href="img/67.png" transform="scale(1.05 , 1.333)" />
<image x="312" y="934" width="20" height="2" xlink:href="img/68.png" />
<image x="314" y="935" width="13" height="2" xlink:href="img/69.png" />
<image x="320" y="936" width="5" height="2" xlink:href="img/70.png" />
<path d="M217,912l7,0l0,-10l-7,0l0,10Z" class="g1_169" />
<path d="M710,912l7,0l0,-10l-7,0l0,10Z" class="g2_169" />
<path d="M226.5,906.5l0,-1" class="g3_169" />
<path d="M226.5,906.5l54,0" class="g3_169" />
<path d="M280.5,906.5l0,-1" class="g4_169" />
<path d="M280.5,906.5l0,-1" class="g3_169" />
<path d="M226.5,945.5l0,-1" class="g3_169" />
<path d="M226.5,945.5l55,0" class="g4_169" />
<path d="M280.5,945.5l0,-1" class="g4_169" />
<path d="M226.5,944.5l0,-38" class="g3_169" />
<path d="M280.5,944.5l0,-38" class="g4_169" />
<path d="M217,948l7,0l0,-36l-7,0l0,36Z" class="g1_169" />
<path d="M286.5,906.5l0,-1" class="g3_169" />
<path d="M286.5,906.5l67,0" class="g3_169" />
<path d="M353.5,906.5l0,-1" class="g4_169" />
<path d="M353.5,906.5l0,-1" class="g3_169" />
<path d="M286.5,945.5l0,-1" class="g3_169" />
<path d="M286.5,945.5l68,0" class="g4_169" />
<path d="M353.5,945.5l0,-1" class="g4_169" />
<path d="M286.5,944.5l0,-38" class="g3_169" />
<path d="M353.5,944.5l0,-38" class="g4_169" />
<path d="M360.5,906.5l0,-1" class="g3_169" />
<path d="M360.5,906.5l347,0" class="g3_169" />
<path d="M707.5,906.5l0,-1" class="g4_169" />
<path d="M707.5,906.5l0,-1" class="g3_169" />
<path d="M360.5,945.5l0,-1" class="g3_169" />
<path d="M360.5,945.5l348,0" class="g4_169" />
<path d="M707.5,945.5l0,-1" class="g4_169" />
<path d="M360.5,944.5l0,-38" class="g3_169" />
<path d="M707.5,944.5l0,-38" class="g4_169" />
<path d="M710,948l7,0l0,-36l-7,0l0,36Z" class="g2_169" />
<image x="320" y="959" width="2" height="2" xlink:href="img/71.png" />
<image x="319" y="960" width="5" height="2" xlink:href="img/72.png" />
<image x="276.5" y="720.75" width="6.999" height="3" xlink:href="img/73.png" transform="scale(1.142 , 1.333)" />
<image x="331" y="641.333" width="2" height="2" xlink:href="img/74.png" transform="scale(1 , 1.5)" />
<image x="319" y="964" width="4" height="2" xlink:href="img/75.png" />
<image x="331" y="964" width="2" height="2" xlink:href="img/76.png" />
<image x="312" y="804.166" width="16" height="5" xlink:href="img/77.png" transform="scale(1 , 1.2)" />
<image x="315" y="970" width="12" height="2" xlink:href="img/78.png" />
<image x="274.75" y="971" width="6.999" height="2" xlink:href="img/79.png" transform="scale(1.142 , 1)" />
<image x="313" y="972" width="6" height="2" xlink:href="img/80.png" />
<image x="312" y="973" width="5" height="2" xlink:href="img/81.png" />
<image x="312" y="974" width="4" height="2" xlink:href="img/82.png" />
<image x="311" y="780" width="5" height="4" xlink:href="img/83.png" transform="scale(1 , 1.25)" />
<image x="311" y="979" width="6" height="2" xlink:href="img/84.png" />
<image x="311" y="980" width="8" height="2" xlink:href="img/85.png" />
<image x="311" y="654" width="13" height="2" xlink:href="img/86.png" transform="scale(1 , 1.5)" />
<image x="330" y="654" width="2" height="2" xlink:href="img/87.png" transform="scale(1 , 1.5)" />
<image x="312" y="983" width="21" height="3" xlink:href="img/88.png" />
<image x="314" y="985" width="16" height="2" xlink:href="img/89.png" />
<image x="315" y="986" width="13" height="2" xlink:href="img/90.png" />
<image x="320" y="658" width="6" height="2" xlink:href="img/91.png" transform="scale(1 , 1.5)" />
<path d="M217,958l7,0l0,-10l-7,0l0,10Z" class="g1_169" />
<path d="M710,958l7,0l0,-10l-7,0l0,10Z" class="g2_169" />
<path d="M226.5,952.5l0,-1" class="g3_169" />
<path d="M226.5,952.5l54,0" class="g3_169" />
<path d="M280.5,952.5l0,-1" class="g4_169" />
<path d="M280.5,952.5l0,-1" class="g3_169" />
<path d="M226.5,996.5l0,-1" class="g3_169" />
<path d="M226.5,996.5l55,0" class="g4_169" />
<path d="M280.5,996.5l0,-1" class="g4_169" />
<path d="M226.5,995.5l0,-43" class="g3_169" />
<path d="M280.5,995.5l0,-43" class="g4_169" />
<path d="M217,999l7,0l0,-41l-7,0l0,41Z" class="g1_169" />
<path d="M286.5,952.5l0,-1" class="g3_169" />
<path d="M286.5,952.5l67,0" class="g3_169" />
<path d="M353.5,952.5l0,-1" class="g4_169" />
<path d="M353.5,952.5l0,-1" class="g3_169" />
<path d="M286.5,996.5l0,-1" class="g3_169" />
<path d="M286.5,996.5l68,0" class="g4_169" />
<path d="M353.5,996.5l0,-1" class="g4_169" />
<path d="M286.5,995.5l0,-43" class="g3_169" />
<path d="M353.5,995.5l0,-43" class="g4_169" />
<path d="M360.5,952.5l0,-1" class="g3_169" />
<path d="M360.5,952.5l347,0" class="g3_169" />
<path d="M707.5,952.5l0,-1" class="g4_169" />
<path d="M707.5,952.5l0,-1" class="g3_169" />
<path d="M360.5,996.5l0,-1" class="g3_169" />
<path d="M360.5,996.5l348,0" class="g4_169" />
<path d="M707.5,996.5l0,-1" class="g4_169" />
<path d="M360.5,995.5l0,-43" class="g3_169" />
<path d="M707.5,995.5l0,-43" class="g4_169" />
<path d="M710,999l7,0l0,-41l-7,0l0,41Z" class="g2_169" />
<image x="308" y="1008" width="27" height="31" xlink:href="img/92.png" />
<path d="M217,1008l7,0l0,-9l-7,0l0,9Z" class="g1_169" />
<path d="M710,1008l7,0l0,-9l-7,0l0,9Z" class="g2_169" />
<path d="M226.5,1003.5l0,-2" class="g3_169" />
<path d="M226.5,1003.5l54,0" class="g3_169" />
<path d="M280.5,1003.5l0,-2" class="g4_169" />
<path d="M280.5,1003.5l0,-2" class="g3_169" />
<path d="M226.5,1043.5l0,-2" class="g3_169" />
<path d="M226.5,1043.5l55,0" class="g4_169" />
<path d="M280.5,1043.5l0,-2" class="g4_169" />
<path d="M226.5,1041.5l0,-38" class="g3_169" />
<path d="M280.5,1041.5l0,-38" class="g4_169" />
<path d="M217,1045l7,0l0,-37l-7,0l0,37Z" class="g1_169" />
<path d="M286.5,1003.5l0,-2" class="g3_169" />
<path d="M286.5,1003.5l67,0" class="g3_169" />
<path d="M353.5,1003.5l0,-2" class="g4_169" />
<path d="M353.5,1003.5l0,-2" class="g3_169" />
<path d="M286.5,1043.5l0,-2" class="g3_169" />
<path d="M286.5,1043.5l68,0" class="g4_169" />
<path d="M353.5,1043.5l0,-2" class="g4_169" />
<path d="M286.5,1041.5l0,-38" class="g3_169" />
<path d="M353.5,1041.5l0,-38" class="g4_169" />
<path d="M360.5,1003.5l0,-2" class="g3_169" />
<path d="M360.5,1003.5l347,0" class="g3_169" />
<path d="M707.5,1003.5l0,-2" class="g4_169" />
<path d="M707.5,1003.5l0,-2" class="g3_169" />
<path d="M360.5,1043.5l0,-2" class="g3_169" />
<path d="M360.5,1043.5l348,0" class="g4_169" />
<path d="M707.5,1043.5l0,-2" class="g4_169" />
<path d="M360.5,1041.5l0,-38" class="g3_169" />
<path d="M707.5,1041.5l0,-38" class="g4_169" />
<path d="M710,1045l7,0l0,-37l-7,0l0,37Z" class="g2_169" />
<image x="306" y="1075" width="31" height="27" xlink:href="img/93.png" />
<path d="M217,1055l7,0l0,-10l-7,0l0,10Z" class="g1_169" />
<path d="M710,1055l7,0l0,-10l-7,0l0,10Z" class="g2_169" />
<path d="M226.5,1049.5l0,-1" class="g3_169" />
<path d="M226.5,1049.5l54,0" class="g3_169" />
<path d="M280.5,1049.5l0,-1" class="g4_169" />
<path d="M280.5,1049.5l0,-1" class="g3_169" />
<path d="M226.5,1126.5l0,-1" class="g3_169" />
<path d="M226.5,1126.5l55,0" class="g4_169" />
<path d="M280.5,1126.5l0,-1" class="g4_169" />
<path d="M226.5,1125.5l0,-76" class="g3_169" />
<path d="M280.5,1125.5l0,-76" class="g4_169" />
<path d="M217,1136l7,0l0,-81l-7,0l0,81Z" class="g1_169" />
<path d="M217,1136l67,0l0,-7l-67,0l0,7Z" class="g2_169" />
<path d="M286.5,1049.5l0,-1" class="g3_169" />
<path d="M286.5,1049.5l67,0" class="g3_169" />
<path d="M353.5,1049.5l0,-1" class="g4_169" />
<path d="M353.5,1049.5l0,-1" class="g3_169" />
<path d="M286.5,1126.5l0,-1" class="g3_169" />
<path d="M286.5,1126.5l68,0" class="g4_169" />
<path d="M353.5,1126.5l0,-1" class="g4_169" />
<path d="M286.5,1125.5l0,-76" class="g3_169" />
<path d="M353.5,1125.5l0,-76" class="g4_169" />
<path d="M284,1136l73,0l0,-7l-73,0l0,7Z" class="g2_169" />
<path d="M360.5,1049.5l0,-1" class="g3_169" />
<path d="M360.5,1049.5l347,0" class="g3_169" />
<path d="M707.5,1049.5l0,-1" class="g4_169" />
<path d="M707.5,1049.5l0,-1" class="g3_169" />
<path d="M360.5,1126.5l0,-1" class="g3_169" />
<path d="M360.5,1126.5l348,0" class="g4_169" />
<path d="M707.5,1126.5l0,-1" class="g4_169" />
<path d="M360.5,1125.5l0,-76" class="g3_169" />
<path d="M707.5,1125.5l0,-76" class="g4_169" />
<path d="M357,1136l353,0l0,-7l-353,0l0,7Z" class="g2_169" />
<path d="M710,1136l7,0l0,-81l-7,0l0,81Z" class="g2_169" />
<path d="M710,1136l7,0l0,-7l-7,0l0,7Z" class="g2_169" />
</svg>