<?xml version="1.0" encoding="UTF-8" standalone="no"?>
<!DOCTYPE svg PUBLIC "-//W3C//DTD SVG 1.1//EN"
"http://www.w3.org/Graphics/SVG/1.1/DTD/svg11.dtd">
<svg version="1.1" xmlns="http://www.w3.org/2000/svg" xmlns:xlink="http://www.w3.org/1999/xlink">
<defs>
<style type="text/css"><![CDATA[
.g6_67{
fill: none;
stroke: #000000;
stroke-width: 1;
stroke-linecap: butt;
stroke-linejoin: miter;
}
.g5_67{
}
.g1_67{
fill: #CCCCCC;
}
.g8_67{
fill: none;
stroke: #E3E3E3;
stroke-width: 1;
stroke-linecap: butt;
stroke-linejoin: miter;
}
.g7_67{
fill: #A0A0A0;
}
.g2_67{
fill: none;
stroke: #EFEFEF;
stroke-width: 1;
stroke-linecap: butt;
stroke-linejoin: miter;
}
.g4_67{
fill: none;
stroke: #CCCCCC;
stroke-width: 1;
stroke-linecap: butt;
stroke-linejoin: miter;
}
.g3_67{
fill: none;
stroke: #A0A0A0;
stroke-width: 1;
stroke-linecap: butt;
stroke-linejoin: miter;
}
]]></style>
</defs>
<path d="M108,82l229,0l0,-24L108,58l0,24Z" class="g1_67" />
<path d="M342,82l125,0l0,-24L342,58l0,24Z" class="g1_67" />
<path d="M472,82l91,0l0,-24l-91,0l0,24Z" class="g1_67" />
<path d="M473,80l89,0l0,-21l-89,0l0,21Z" class="g1_67" />
<path d="M567,82l41,0l0,-24l-41,0l0,24Z" class="g1_67" />
<path d="M612,82l66,0l0,-24l-66,0l0,24Z" class="g1_67" />
<path d="M682,82l40,0l0,-24l-40,0l0,24Z" class="g1_67" />
<path d="M727,82l54,0l0,-24l-54,0l0,24Z" class="g1_67" />
<path d="M786,82l40,0l0,-24l-40,0l0,24Z" class="g1_67" />
<path d="M104.5,59.5l0,-4" class="g2_67" />
<path d="M104.5,56.5l725,0" class="g2_67" />
<path d="M829.5,59.5l0,-4" class="g3_67" />
<path d="M829.5,56.5l0,-1" class="g2_67" />
<path d="M107.5,58.5l0,-1" class="g3_67" />
<path d="M107.5,58.5l230,0" class="g3_67" />
<path d="M337.5,58.5l0,-1" class="g2_67" />
<path d="M337.5,58.5l0,-1" class="g3_67" />
<path d="M105.5,58.5l2,0" class="g4_67" />
<path d="M338.5,58.5l0,-1" class="g4_67" />
<path d="M105.5,57.5l235,0" class="g4_67" />
<path d="M107.5,83.5l0,-1" class="g3_67" />
<path d="M107.5,83.5l231,0" class="g2_67" />
<path d="M337.5,83.5l0,-1" class="g2_67" />
<path d="M105.5,83.5l2,0" class="g4_67" />
<path d="M338.5,83.5l0,-1" class="g4_67" />
<path d="M105.5,84.5l235,0" class="g4_67" />
<path d="M107.5,82.5l231,0" class="g4_67" />
<path d="M107.5,59.5l231,0" class="g4_67" />
<path d="M107.5,82.5l0,-24" class="g3_67" />
<path d="M105,82l2,0l0,-24l-2,0l0,24Z" class="g1_67" />
<path d="M337.5,82.5l0,-24" class="g2_67" />
<path d="M338.5,82.5l0,-24" class="g4_67" />
<path d="M104.5,84.5l0,-25" class="g2_67" />
<path d="M341.5,58.5l0,-1" class="g3_67" />
<path d="M341.5,58.5l126,0" class="g3_67" />
<path d="M467.5,58.5l0,-1" class="g2_67" />
<path d="M467.5,58.5l0,-1" class="g3_67" />
<path d="M340.5,58.5l0,-1" class="g4_67" />
<path d="M468.5,58.5l0,-1" class="g4_67" />
<path d="M340.5,57.5l130,0" class="g4_67" />
<path d="M341.5,83.5l0,-1" class="g3_67" />
<path d="M341.5,83.5l127,0" class="g2_67" />
<path d="M467.5,83.5l0,-1" class="g2_67" />
<path d="M340.5,83.5l0,-1" class="g4_67" />
<path d="M468.5,83.5l0,-1" class="g4_67" />
<path d="M340.5,84.5l130,0" class="g4_67" />
<path d="M341.5,82.5l127,0" class="g4_67" />
<path d="M341.5,59.5l127,0" class="g4_67" />
<path d="M341.5,82.5l0,-24" class="g3_67" />
<path d="M340.5,82.5l0,-24" class="g4_67" />
<path d="M467.5,82.5l0,-24" class="g2_67" />
<path d="M468.5,82.5l0,-24" class="g4_67" />
<path d="M471.5,58.5l0,-1" class="g3_67" />
<path d="M471.5,58.5l92,0" class="g3_67" />
<path d="M563.5,58.5l0,-1" class="g2_67" />
<path d="M563.5,58.5l0,-1" class="g3_67" />
<path d="M470.5,58.5l0,-1" class="g4_67" />
<path d="M564.5,58.5l0,-1" class="g4_67" />
<path d="M470.5,57.5l95,0" class="g4_67" />
<path d="M471.5,83.5l0,-1" class="g3_67" />
<path d="M471.5,83.5l93,0" class="g2_67" />
<path d="M563.5,83.5l0,-1" class="g2_67" />
<path d="M470.5,83.5l0,-1" class="g4_67" />
<path d="M564.5,83.5l0,-1" class="g4_67" />
<path d="M470.5,84.5l95,0" class="g4_67" />
<path d="M471.5,82.5l93,0" class="g4_67" />
<path d="M471.5,59.5l93,0" class="g4_67" />
<path d="M471.5,82.5l0,-24" class="g3_67" />
<path d="M470.5,82.5l0,-24" class="g4_67" />
<path d="M563.5,82.5l0,-24" class="g2_67" />
<path d="M564.5,82.5l0,-24" class="g4_67" />
<path d="M566.5,58.5l0,-1" class="g3_67" />
<path d="M566.5,58.5l42,0" class="g3_67" />
<path d="M608.5,58.5l0,-1" class="g2_67" />
<path d="M608.5,58.5l0,-1" class="g3_67" />
<path d="M565.5,58.5l0,-1" class="g4_67" />
<path d="M609.5,58.5l0,-1" class="g4_67" />
<path d="M565.5,57.5l45,0" class="g4_67" />
<path d="M566.5,83.5l0,-1" class="g3_67" />
<path d="M566.5,83.5l43,0" class="g2_67" />
<path d="M608.5,83.5l0,-1" class="g2_67" />
<path d="M565.5,83.5l0,-1" class="g4_67" />
<path d="M609.5,83.5l0,-1" class="g4_67" />
<path d="M565.5,84.5l45,0" class="g4_67" />
<path d="M566.5,82.5l43,0" class="g4_67" />
<path d="M566.5,59.5l43,0" class="g4_67" />
<path d="M566.5,82.5l0,-24" class="g3_67" />
<path d="M565.5,82.5l0,-24" class="g4_67" />
<path d="M608.5,82.5l0,-24" class="g2_67" />
<path d="M609.5,82.5l0,-24" class="g4_67" />
<path d="M611.5,58.5l0,-1" class="g3_67" />
<path d="M611.5,58.5l67,0" class="g3_67" />
<path d="M678.5,58.5l0,-1" class="g2_67" />
<path d="M678.5,58.5l0,-1" class="g3_67" />
<path d="M610.5,58.5l0,-1" class="g4_67" />
<path d="M679.5,58.5l0,-1" class="g4_67" />
<path d="M610.5,57.5l70,0" class="g4_67" />
<path d="M611.5,83.5l0,-1" class="g3_67" />
<path d="M611.5,83.5l68,0" class="g2_67" />
<path d="M678.5,83.5l0,-1" class="g2_67" />
<path d="M610.5,83.5l0,-1" class="g4_67" />
<path d="M679.5,83.5l0,-1" class="g4_67" />
<path d="M610.5,84.5l70,0" class="g4_67" />
<path d="M611.5,82.5l68,0" class="g4_67" />
<path d="M611.5,59.5l68,0" class="g4_67" />
<path d="M611.5,82.5l0,-24" class="g3_67" />
<path d="M610.5,82.5l0,-24" class="g4_67" />
<path d="M678.5,82.5l0,-24" class="g2_67" />
<path d="M679.5,82.5l0,-24" class="g4_67" />
<path d="M681.5,58.5l0,-1" class="g3_67" />
<path d="M681.5,58.5l41,0" class="g3_67" />
<path d="M722.5,58.5l0,-1" class="g2_67" />
<path d="M722.5,58.5l0,-1" class="g3_67" />
<path d="M680.5,58.5l0,-1" class="g4_67" />
<path d="M723.5,58.5l0,-1" class="g4_67" />
<path d="M680.5,57.5l45,0" class="g4_67" />
<path d="M681.5,83.5l0,-1" class="g3_67" />
<path d="M681.5,83.5l42,0" class="g2_67" />
<path d="M722.5,83.5l0,-1" class="g2_67" />
<path d="M680.5,83.5l0,-1" class="g4_67" />
<path d="M723.5,83.5l0,-1" class="g4_67" />
<path d="M680.5,84.5l45,0" class="g4_67" />
<path d="M681.5,82.5l42,0" class="g4_67" />
<path d="M681.5,59.5l42,0" class="g4_67" />
<path d="M681.5,82.5l0,-24" class="g3_67" />
<path d="M680.5,82.5l0,-24" class="g4_67" />
<path d="M722.5,82.5l0,-24" class="g2_67" />
<path d="M723.5,82.5l0,-24" class="g4_67" />
<path d="M726.5,58.5l0,-1" class="g3_67" />
<path d="M726.5,58.5l55,0" class="g3_67" />
<path d="M781.5,58.5l0,-1" class="g2_67" />
<path d="M781.5,58.5l0,-1" class="g3_67" />
<path d="M725.5,58.5l0,-1" class="g4_67" />
<path d="M782.5,58.5l0,-1" class="g4_67" />
<path d="M725.5,57.5l58,0" class="g4_67" />
<path d="M726.5,83.5l0,-1" class="g3_67" />
<path d="M726.5,83.5l56,0" class="g2_67" />
<path d="M781.5,83.5l0,-1" class="g2_67" />
<path d="M725.5,83.5l0,-1" class="g4_67" />
<path d="M782.5,83.5l0,-1" class="g4_67" />
<path d="M725.5,84.5l58,0" class="g4_67" />
<path d="M726.5,82.5l56,0" class="g4_67" />
<path d="M726.5,59.5l56,0" class="g4_67" />
<path d="M726.5,82.5l0,-24" class="g3_67" />
<path d="M725.5,82.5l0,-24" class="g4_67" />
<path d="M781.5,82.5l0,-24" class="g2_67" />
<path d="M782.5,82.5l0,-24" class="g4_67" />
<path d="M784.5,58.5l0,-1" class="g3_67" />
<path d="M784.5,58.5l42,0" class="g3_67" />
<path d="M826.5,58.5l0,-1" class="g2_67" />
<path d="M826.5,58.5l0,-1" class="g3_67" />
<path d="M783.5,58.5l0,-1" class="g4_67" />
<path d="M827.5,58.5l2,0" class="g4_67" />
<path d="M783.5,57.5l46,0" class="g4_67" />
<path d="M784.5,83.5l0,-1" class="g3_67" />
<path d="M784.5,83.5l43,0" class="g2_67" />
<path d="M826.5,83.5l0,-1" class="g2_67" />
<path d="M783.5,83.5l0,-1" class="g4_67" />
<path d="M827.5,83.5l2,0" class="g4_67" />
<path d="M783.5,84.5l46,0" class="g4_67" />
<path d="M784.5,82.5l43,0" class="g4_67" />
<path d="M784.5,59.5l43,0" class="g4_67" />
<path d="M784.5,82.5l0,-24" class="g3_67" />
<path d="M783.5,82.5l0,-24" class="g4_67" />
<path d="M826.5,82.5l0,-24" class="g2_67" />
<path d="M827,82l2,0l0,-24l-2,0l0,24Z" class="g1_67" />
<path d="M829.5,84.5l0,-25" class="g3_67" />
<path d="M108,153l229,0l0,-67L108,86l0,67Z" class="g1_67" />
<path d="M110,130l226,0l0,-21l-226,0l0,21Z" class="g1_67" />
<path d="M342,153l125,0l0,-67L342,86l0,67Z" class="g1_67" />
<path d="M343,130l123,0l0,-21l-123,0l0,21Z" class="g1_67" />
<path d="M472,153l91,0l0,-67l-91,0l0,67Z" class="g1_67" />
<path d="M473,109l89,0l0,-22l-89,0l0,22Z" class="g1_67" />
<path d="M473,130l89,0l0,-21l-89,0l0,21Z" class="g1_67" />
<path d="M473,151l89,0l0,-21l-89,0l0,21Z" class="g1_67" />
<path d="M567,153l41,0l0,-67l-41,0l0,67Z" class="g1_67" />
<path d="M569,130l37,0l0,-21l-37,0l0,21Z" class="g1_67" />
<path d="M612,153l66,0l0,-67l-66,0l0,67Z" class="g1_67" />
<path d="M613,130l64,0l0,-21l-64,0l0,21Z" class="g1_67" />
<path d="M682,153l40,0l0,-67l-40,0l0,67Z" class="g1_67" />
<path d="M683,130l38,0l0,-21l-38,0l0,21Z" class="g1_67" />
<path d="M727,153l54,0l0,-67l-54,0l0,67Z" class="g1_67" />
<path d="M728,130l52,0l0,-21l-52,0l0,21Z" class="g1_67" />
<path d="M786,153l40,0l0,-67l-40,0l0,67Z" class="g1_67" />
<path d="M787,130l38,0l0,-21l-38,0l0,21Z" class="g1_67" />
<path d="M104.5,87.5l0,-3" class="g2_67" />
<path d="M829.5,87.5l0,-3" class="g3_67" />
<path d="M107.5,86.5l0,-1" class="g3_67" />
<path d="M107.5,86.5l230,0" class="g3_67" />
<path d="M337.5,86.5l0,-1" class="g2_67" />
<path d="M337.5,86.5l0,-1" class="g3_67" />
<path d="M105.5,86.5l2,0" class="g4_67" />
<path d="M338.5,86.5l0,-1" class="g4_67" />
<path d="M105.5,85.5l235,0" class="g4_67" />
<path d="M107.5,154.5l0,-1" class="g3_67" />
<path d="M107.5,154.5l231,0" class="g2_67" />
<path d="M337.5,154.5l0,-1" class="g2_67" />
<path d="M105.5,154.5l2,0" class="g4_67" />
<path d="M338.5,154.5l0,-1" class="g4_67" />
<path d="M105.5,155.5l235,0" class="g4_67" />
<path d="M107.5,153.5l231,0" class="g4_67" />
<path d="M107.5,87.5l231,0" class="g4_67" />
<path d="M107.5,153.5l0,-67" class="g3_67" />
<path d="M105,153l2,0l0,-67l-2,0l0,67Z" class="g1_67" />
<path d="M337.5,153.5l0,-67" class="g2_67" />
<path d="M338.5,153.5l0,-67" class="g4_67" />
<path d="M104.5,155.5l0,-68" class="g2_67" />
<path d="M341.5,86.5l0,-1" class="g3_67" />
<path d="M341.5,86.5l126,0" class="g3_67" />
<path d="M467.5,86.5l0,-1" class="g2_67" />
<path d="M467.5,86.5l0,-1" class="g3_67" />
<path d="M340.5,86.5l0,-1" class="g4_67" />
<path d="M468.5,86.5l0,-1" class="g4_67" />
<path d="M340.5,85.5l130,0" class="g4_67" />
<path d="M341.5,154.5l0,-1" class="g3_67" />
<path d="M341.5,154.5l127,0" class="g2_67" />
<path d="M467.5,154.5l0,-1" class="g2_67" />
<path d="M340.5,154.5l0,-1" class="g4_67" />
<path d="M468.5,154.5l0,-1" class="g4_67" />
<path d="M340.5,155.5l130,0" class="g4_67" />
<path d="M341.5,153.5l127,0" class="g4_67" />
<path d="M341.5,87.5l127,0" class="g4_67" />
<path d="M341.5,153.5l0,-67" class="g3_67" />
<path d="M340.5,153.5l0,-67" class="g4_67" />
<path d="M467.5,153.5l0,-67" class="g2_67" />
<path d="M468.5,153.5l0,-67" class="g4_67" />
<path d="M471.5,86.5l0,-1" class="g3_67" />
<path d="M471.5,86.5l92,0" class="g3_67" />
<path d="M563.5,86.5l0,-1" class="g2_67" />
<path d="M563.5,86.5l0,-1" class="g3_67" />
<path d="M470.5,86.5l0,-1" class="g4_67" />
<path d="M564.5,86.5l0,-1" class="g4_67" />
<path d="M470.5,85.5l95,0" class="g4_67" />
<path d="M471.5,154.5l0,-1" class="g3_67" />
<path d="M471.5,154.5l93,0" class="g2_67" />
<path d="M563.5,154.5l0,-1" class="g2_67" />
<path d="M470.5,154.5l0,-1" class="g4_67" />
<path d="M564.5,154.5l0,-1" class="g4_67" />
<path d="M470.5,155.5l95,0" class="g4_67" />
<path d="M471.5,153.5l93,0" class="g4_67" />
<path d="M471.5,87.5l93,0" class="g4_67" />
<path d="M471.5,153.5l0,-67" class="g3_67" />
<path d="M470.5,153.5l0,-67" class="g4_67" />
<path d="M563.5,153.5l0,-67" class="g2_67" />
<path d="M564.5,153.5l0,-67" class="g4_67" />
<path d="M566.5,86.5l0,-1" class="g3_67" />
<path d="M566.5,86.5l42,0" class="g3_67" />
<path d="M608.5,86.5l0,-1" class="g2_67" />
<path d="M608.5,86.5l0,-1" class="g3_67" />
<path d="M565.5,86.5l0,-1" class="g4_67" />
<path d="M609.5,86.5l0,-1" class="g4_67" />
<path d="M565.5,85.5l45,0" class="g4_67" />
<path d="M566.5,154.5l0,-1" class="g3_67" />
<path d="M566.5,154.5l43,0" class="g2_67" />
<path d="M608.5,154.5l0,-1" class="g2_67" />
<path d="M565.5,154.5l0,-1" class="g4_67" />
<path d="M609.5,154.5l0,-1" class="g4_67" />
<path d="M565.5,155.5l45,0" class="g4_67" />
<path d="M566.5,153.5l43,0" class="g4_67" />
<path d="M566.5,87.5l43,0" class="g4_67" />
<path d="M566.5,153.5l0,-67" class="g3_67" />
<path d="M565.5,153.5l0,-67" class="g4_67" />
<path d="M608.5,153.5l0,-67" class="g2_67" />
<path d="M609.5,153.5l0,-67" class="g4_67" />
<path d="M611.5,86.5l0,-1" class="g3_67" />
<path d="M611.5,86.5l67,0" class="g3_67" />
<path d="M678.5,86.5l0,-1" class="g2_67" />
<path d="M678.5,86.5l0,-1" class="g3_67" />
<path d="M610.5,86.5l0,-1" class="g4_67" />
<path d="M679.5,86.5l0,-1" class="g4_67" />
<path d="M610.5,85.5l70,0" class="g4_67" />
<path d="M611.5,154.5l0,-1" class="g3_67" />
<path d="M611.5,154.5l68,0" class="g2_67" />
<path d="M678.5,154.5l0,-1" class="g2_67" />
<path d="M610.5,154.5l0,-1" class="g4_67" />
<path d="M679.5,154.5l0,-1" class="g4_67" />
<path d="M610.5,155.5l70,0" class="g4_67" />
<path d="M611.5,153.5l68,0" class="g4_67" />
<path d="M611.5,87.5l68,0" class="g4_67" />
<path d="M611.5,153.5l0,-67" class="g3_67" />
<path d="M610.5,153.5l0,-67" class="g4_67" />
<path d="M678.5,153.5l0,-67" class="g2_67" />
<path d="M679.5,153.5l0,-67" class="g4_67" />
<path d="M681.5,86.5l0,-1" class="g3_67" />
<path d="M681.5,86.5l41,0" class="g3_67" />
<path d="M722.5,86.5l0,-1" class="g2_67" />
<path d="M722.5,86.5l0,-1" class="g3_67" />
<path d="M680.5,86.5l0,-1" class="g4_67" />
<path d="M723.5,86.5l0,-1" class="g4_67" />
<path d="M680.5,85.5l45,0" class="g4_67" />
<path d="M681.5,154.5l0,-1" class="g3_67" />
<path d="M681.5,154.5l42,0" class="g2_67" />
<path d="M722.5,154.5l0,-1" class="g2_67" />
<path d="M680.5,154.5l0,-1" class="g4_67" />
<path d="M723.5,154.5l0,-1" class="g4_67" />
<path d="M680.5,155.5l45,0" class="g4_67" />
<path d="M681.5,153.5l42,0" class="g4_67" />
<path d="M681.5,87.5l42,0" class="g4_67" />
<path d="M681.5,153.5l0,-67" class="g3_67" />
<path d="M680.5,153.5l0,-67" class="g4_67" />
<path d="M722.5,153.5l0,-67" class="g2_67" />
<path d="M723.5,153.5l0,-67" class="g4_67" />
<path d="M726.5,86.5l0,-1" class="g3_67" />
<path d="M726.5,86.5l55,0" class="g3_67" />
<path d="M781.5,86.5l0,-1" class="g2_67" />
<path d="M781.5,86.5l0,-1" class="g3_67" />
<path d="M725.5,86.5l0,-1" class="g4_67" />
<path d="M782.5,86.5l0,-1" class="g4_67" />
<path d="M725.5,85.5l58,0" class="g4_67" />
<path d="M726.5,154.5l0,-1" class="g3_67" />
<path d="M726.5,154.5l56,0" class="g2_67" />
<path d="M781.5,154.5l0,-1" class="g2_67" />
<path d="M725.5,154.5l0,-1" class="g4_67" />
<path d="M782.5,154.5l0,-1" class="g4_67" />
<path d="M725.5,155.5l58,0" class="g4_67" />
<path d="M726.5,153.5l56,0" class="g4_67" />
<path d="M726.5,87.5l56,0" class="g4_67" />
<path d="M726.5,153.5l0,-67" class="g3_67" />
<path d="M725.5,153.5l0,-67" class="g4_67" />
<path d="M781.5,153.5l0,-67" class="g2_67" />
<path d="M782.5,153.5l0,-67" class="g4_67" />
<path d="M784.5,86.5l0,-1" class="g3_67" />
<path d="M784.5,86.5l42,0" class="g3_67" />
<path d="M826.5,86.5l0,-1" class="g2_67" />
<path d="M826.5,86.5l0,-1" class="g3_67" />
<path d="M783.5,86.5l0,-1" class="g4_67" />
<path d="M827.5,86.5l2,0" class="g4_67" />
<path d="M783.5,85.5l46,0" class="g4_67" />
<path d="M784.5,154.5l0,-1" class="g3_67" />
<path d="M784.5,154.5l43,0" class="g2_67" />
<path d="M826.5,154.5l0,-1" class="g2_67" />
<path d="M783.5,154.5l0,-1" class="g4_67" />
<path d="M827.5,154.5l2,0" class="g4_67" />
<path d="M783.5,155.5l46,0" class="g4_67" />
<path d="M784.5,153.5l43,0" class="g4_67" />
<path d="M784.5,87.5l43,0" class="g4_67" />
<path d="M784.5,153.5l0,-67" class="g3_67" />
<path d="M783.5,153.5l0,-67" class="g4_67" />
<path d="M826.5,153.5l0,-67" class="g2_67" />
<path d="M827,153l2,0l0,-67l-2,0l0,67Z" class="g1_67" />
<path d="M829.5,155.5l0,-68" class="g3_67" />
<path d="M108,181l229,0l0,-24l-229,0l0,24Z" class="g1_67" />
<path d="M110,180l226,0l0,-22l-226,0l0,22Z" class="g1_67" />
<path d="M342,181l125,0l0,-24l-125,0l0,24Z" class="g1_67" />
<path d="M343,180l123,0l0,-22l-123,0l0,22Z" class="g1_67" />
<path d="M472,181l91,0l0,-24l-91,0l0,24Z" class="g1_67" />
<path d="M473,180l89,0l0,-22l-89,0l0,22Z" class="g1_67" />
<path d="M567,181l41,0l0,-24l-41,0l0,24Z" class="g1_67" />
<path d="M569,180l37,0l0,-22l-37,0l0,22Z" class="g1_67" />
<path d="M612,181l66,0l0,-24l-66,0l0,24Z" class="g1_67" />
<path d="M613,180l64,0l0,-22l-64,0l0,22Z" class="g1_67" />
<path d="M682,181l40,0l0,-24l-40,0l0,24Z" class="g1_67" />
<path d="M683,180l38,0l0,-22l-38,0l0,22Z" class="g1_67" />
<path d="M727,181l54,0l0,-24l-54,0l0,24Z" class="g1_67" />
<path d="M728,180l52,0l0,-22l-52,0l0,22Z" class="g1_67" />
<path d="M786,181l40,0l0,-24l-40,0l0,24Z" class="g1_67" />
<path d="M787,180l38,0l0,-22l-38,0l0,22Z" class="g1_67" />
<path d="M104.5,158.5l0,-3" class="g2_67" />
<path d="M829.5,158.5l0,-3" class="g3_67" />
<path d="M107.5,157.5l0,-1" class="g3_67" />
<path d="M107.5,157.5l230,0" class="g3_67" />
<path d="M337.5,157.5l0,-1" class="g2_67" />
<path d="M337.5,157.5l0,-1" class="g3_67" />
<path d="M105.5,157.5l2,0" class="g4_67" />
<path d="M338.5,157.5l0,-1" class="g4_67" />
<path d="M105.5,156.5l235,0" class="g4_67" />
<path d="M107.5,182.5l0,-1" class="g3_67" />
<path d="M107.5,182.5l231,0" class="g2_67" />
<path d="M337.5,182.5l0,-1" class="g2_67" />
<path d="M105.5,182.5l2,0" class="g4_67" />
<path d="M338.5,182.5l0,-1" class="g4_67" />
<path d="M105.5,183.5l235,0" class="g4_67" />
<path d="M107.5,181.5l231,0" class="g4_67" />
<path d="M107.5,158.5l231,0" class="g4_67" />
<path d="M107.5,181.5l0,-24" class="g3_67" />
<path d="M105,181l2,0l0,-24l-2,0l0,24Z" class="g1_67" />
<path d="M337.5,181.5l0,-24" class="g2_67" />
<path d="M338.5,181.5l0,-24" class="g4_67" />
<path d="M104.5,183.5l0,-25" class="g2_67" />
<path d="M341.5,157.5l0,-1" class="g3_67" />
<path d="M341.5,157.5l126,0" class="g3_67" />
<path d="M467.5,157.5l0,-1" class="g2_67" />
<path d="M467.5,157.5l0,-1" class="g3_67" />
<path d="M340.5,157.5l0,-1" class="g4_67" />
<path d="M468.5,157.5l0,-1" class="g4_67" />
<path d="M340.5,156.5l130,0" class="g4_67" />
<path d="M341.5,182.5l0,-1" class="g3_67" />
<path d="M341.5,182.5l127,0" class="g2_67" />
<path d="M467.5,182.5l0,-1" class="g2_67" />
<path d="M340.5,182.5l0,-1" class="g4_67" />
<path d="M468.5,182.5l0,-1" class="g4_67" />
<path d="M340.5,183.5l130,0" class="g4_67" />
<path d="M341.5,181.5l127,0" class="g4_67" />
<path d="M341.5,158.5l127,0" class="g4_67" />
<path d="M341.5,181.5l0,-24" class="g3_67" />
<path d="M340.5,181.5l0,-24" class="g4_67" />
<path d="M467.5,181.5l0,-24" class="g2_67" />
<path d="M468.5,181.5l0,-24" class="g4_67" />
<path d="M471.5,157.5l0,-1" class="g3_67" />
<path d="M471.5,157.5l92,0" class="g3_67" />
<path d="M563.5,157.5l0,-1" class="g2_67" />
<path d="M563.5,157.5l0,-1" class="g3_67" />
<path d="M470.5,157.5l0,-1" class="g4_67" />
<path d="M564.5,157.5l0,-1" class="g4_67" />
<path d="M470.5,156.5l95,0" class="g4_67" />
<path d="M471.5,182.5l0,-1" class="g3_67" />
<path d="M471.5,182.5l93,0" class="g2_67" />
<path d="M563.5,182.5l0,-1" class="g2_67" />
<path d="M470.5,182.5l0,-1" class="g4_67" />
<path d="M564.5,182.5l0,-1" class="g4_67" />
<path d="M470.5,183.5l95,0" class="g4_67" />
<path d="M471.5,181.5l93,0" class="g4_67" />
<path d="M471.5,158.5l93,0" class="g4_67" />
<path d="M471.5,181.5l0,-24" class="g3_67" />
<path d="M470.5,181.5l0,-24" class="g4_67" />
<path d="M563.5,181.5l0,-24" class="g2_67" />
<path d="M564.5,181.5l0,-24" class="g4_67" />
<path d="M566.5,157.5l0,-1" class="g3_67" />
<path d="M566.5,157.5l42,0" class="g3_67" />
<path d="M608.5,157.5l0,-1" class="g2_67" />
<path d="M608.5,157.5l0,-1" class="g3_67" />
<path d="M565.5,157.5l0,-1" class="g4_67" />
<path d="M609.5,157.5l0,-1" class="g4_67" />
<path d="M565.5,156.5l45,0" class="g4_67" />
<path d="M566.5,182.5l0,-1" class="g3_67" />
<path d="M566.5,182.5l43,0" class="g2_67" />
<path d="M608.5,182.5l0,-1" class="g2_67" />
<path d="M565.5,182.5l0,-1" class="g4_67" />
<path d="M609.5,182.5l0,-1" class="g4_67" />
<path d="M565.5,183.5l45,0" class="g4_67" />
<path d="M566.5,181.5l43,0" class="g4_67" />
<path d="M566.5,158.5l43,0" class="g4_67" />
<path d="M566.5,181.5l0,-24" class="g3_67" />
<path d="M565.5,181.5l0,-24" class="g4_67" />
<path d="M608.5,181.5l0,-24" class="g2_67" />
<path d="M609.5,181.5l0,-24" class="g4_67" />
<path d="M611.5,157.5l0,-1" class="g3_67" />
<path d="M611.5,157.5l67,0" class="g3_67" />
<path d="M678.5,157.5l0,-1" class="g2_67" />
<path d="M678.5,157.5l0,-1" class="g3_67" />
<path d="M610.5,157.5l0,-1" class="g4_67" />
<path d="M679.5,157.5l0,-1" class="g4_67" />
<path d="M610.5,156.5l70,0" class="g4_67" />
<path d="M611.5,182.5l0,-1" class="g3_67" />
<path d="M611.5,182.5l68,0" class="g2_67" />
<path d="M678.5,182.5l0,-1" class="g2_67" />
<path d="M610.5,182.5l0,-1" class="g4_67" />
<path d="M679.5,182.5l0,-1" class="g4_67" />
<path d="M610.5,183.5l70,0" class="g4_67" />
<path d="M611.5,181.5l68,0" class="g4_67" />
<path d="M611.5,158.5l68,0" class="g4_67" />
<path d="M611.5,181.5l0,-24" class="g3_67" />
<path d="M610.5,181.5l0,-24" class="g4_67" />
<path d="M678.5,181.5l0,-24" class="g2_67" />
<path d="M679.5,181.5l0,-24" class="g4_67" />
<path d="M681.5,157.5l0,-1" class="g3_67" />
<path d="M681.5,157.5l41,0" class="g3_67" />
<path d="M722.5,157.5l0,-1" class="g2_67" />
<path d="M722.5,157.5l0,-1" class="g3_67" />
<path d="M680.5,157.5l0,-1" class="g4_67" />
<path d="M723.5,157.5l0,-1" class="g4_67" />
<path d="M680.5,156.5l45,0" class="g4_67" />
<path d="M681.5,182.5l0,-1" class="g3_67" />
<path d="M681.5,182.5l42,0" class="g2_67" />
<path d="M722.5,182.5l0,-1" class="g2_67" />
<path d="M680.5,182.5l0,-1" class="g4_67" />
<path d="M723.5,182.5l0,-1" class="g4_67" />
<path d="M680.5,183.5l45,0" class="g4_67" />
<path d="M681.5,181.5l42,0" class="g4_67" />
<path d="M681.5,158.5l42,0" class="g4_67" />
<path d="M681.5,181.5l0,-24" class="g3_67" />
<path d="M680.5,181.5l0,-24" class="g4_67" />
<path d="M722.5,181.5l0,-24" class="g2_67" />
<path d="M723.5,181.5l0,-24" class="g4_67" />
<path d="M726.5,157.5l0,-1" class="g3_67" />
<path d="M726.5,157.5l55,0" class="g3_67" />
<path d="M781.5,157.5l0,-1" class="g2_67" />
<path d="M781.5,157.5l0,-1" class="g3_67" />
<path d="M725.5,157.5l0,-1" class="g4_67" />
<path d="M782.5,157.5l0,-1" class="g4_67" />
<path d="M725.5,156.5l58,0" class="g4_67" />
<path d="M726.5,182.5l0,-1" class="g3_67" />
<path d="M726.5,182.5l56,0" class="g2_67" />
<path d="M781.5,182.5l0,-1" class="g2_67" />
<path d="M725.5,182.5l0,-1" class="g4_67" />
<path d="M782.5,182.5l0,-1" class="g4_67" />
<path d="M725.5,183.5l58,0" class="g4_67" />
<path d="M726.5,181.5l56,0" class="g4_67" />
<path d="M726.5,158.5l56,0" class="g4_67" />
<path d="M726.5,181.5l0,-24" class="g3_67" />
<path d="M725.5,181.5l0,-24" class="g4_67" />
<path d="M781.5,181.5l0,-24" class="g2_67" />
<path d="M782.5,181.5l0,-24" class="g4_67" />
<path d="M784.5,157.5l0,-1" class="g3_67" />
<path d="M784.5,157.5l42,0" class="g3_67" />
<path d="M826.5,157.5l0,-1" class="g2_67" />
<path d="M826.5,157.5l0,-1" class="g3_67" />
<path d="M783.5,157.5l0,-1" class="g4_67" />
<path d="M827.5,157.5l2,0" class="g4_67" />
<path d="M783.5,156.5l46,0" class="g4_67" />
<path d="M784.5,182.5l0,-1" class="g3_67" />
<path d="M784.5,182.5l43,0" class="g2_67" />
<path d="M826.5,182.5l0,-1" class="g2_67" />
<path d="M783.5,182.5l0,-1" class="g4_67" />
<path d="M827.5,182.5l2,0" class="g4_67" />
<path d="M783.5,183.5l46,0" class="g4_67" />
<path d="M784.5,181.5l43,0" class="g4_67" />
<path d="M784.5,158.5l43,0" class="g4_67" />
<path d="M784.5,181.5l0,-24" class="g3_67" />
<path d="M783.5,181.5l0,-24" class="g4_67" />
<path d="M826.5,181.5l0,-24" class="g2_67" />
<path d="M827,181l2,0l0,-24l-2,0l0,24Z" class="g1_67" />
<path d="M829.5,183.5l0,-25" class="g3_67" />
<path d="M108,252l229,0l0,-66l-229,0l0,66Z" class="g1_67" />
<path d="M110,229l226,0l0,-21l-226,0l0,21Z" class="g1_67" />
<path d="M342,252l125,0l0,-66l-125,0l0,66Z" class="g1_67" />
<path d="M343,229l123,0l0,-21l-123,0l0,21Z" class="g1_67" />
<path d="M472,252l91,0l0,-66l-91,0l0,66Z" class="g1_67" />
<path d="M473,208l89,0l0,-21l-89,0l0,21Z" class="g1_67" />
<path d="M473,229l89,0l0,-21l-89,0l0,21Z" class="g1_67" />
<path d="M473,251l89,0l0,-22l-89,0l0,22Z" class="g1_67" />
<path d="M567,252l41,0l0,-66l-41,0l0,66Z" class="g1_67" />
<path d="M569,229l37,0l0,-21l-37,0l0,21Z" class="g1_67" />
<path d="M612,252l66,0l0,-66l-66,0l0,66Z" class="g1_67" />
<path d="M613,229l64,0l0,-21l-64,0l0,21Z" class="g1_67" />
<path d="M682,252l40,0l0,-66l-40,0l0,66Z" class="g1_67" />
<path d="M683,229l38,0l0,-21l-38,0l0,21Z" class="g1_67" />
<path d="M727,252l54,0l0,-66l-54,0l0,66Z" class="g1_67" />
<path d="M728,229l52,0l0,-21l-52,0l0,21Z" class="g1_67" />
<path d="M786,252l40,0l0,-66l-40,0l0,66Z" class="g1_67" />
<path d="M787,229l38,0l0,-21l-38,0l0,21Z" class="g1_67" />
<path d="M104.5,187.5l0,-4" class="g2_67" />
<path d="M829.5,187.5l0,-4" class="g3_67" />
<path d="M107.5,186.5l0,-2" class="g3_67" />
<path d="M107.5,186.5l230,0" class="g3_67" />
<path d="M337.5,186.5l0,-2" class="g2_67" />
<path d="M337.5,186.5l0,-2" class="g3_67" />
<path d="M105.5,186.5l2,0" class="g4_67" />
<path d="M338.5,186.5l0,-2" class="g4_67" />
<path d="M105.5,184.5l235,0" class="g4_67" />
<path d="M107.5,253.5l0,-1" class="g3_67" />
<path d="M107.5,253.5l231,0" class="g2_67" />
<path d="M337.5,253.5l0,-1" class="g2_67" />
<path d="M105.5,253.5l2,0" class="g4_67" />
<path d="M338.5,253.5l0,-1" class="g4_67" />
<path d="M105,255l235,0l0,-2l-235,0l0,2Z" class="g1_67" />
<path d="M105.5,256.5l235,0" class="g4_67" />
<path d="M107.5,252.5l231,0" class="g4_67" />
<path d="M107.5,187.5l231,0" class="g4_67" />
<path d="M107.5,252.5l0,-66" class="g3_67" />
<path d="M105,252l2,0l0,-66l-2,0l0,66Z" class="g1_67" />
<path d="M337.5,252.5l0,-66" class="g2_67" />
<path d="M338.5,252.5l0,-66" class="g4_67" />
<path d="M104.5,257.5l0,-70" class="g2_67" />
<path d="M104.5,257.5l236,0" class="g3_67" />
<path d="M341.5,186.5l0,-2" class="g3_67" />
<path d="M341.5,186.5l126,0" class="g3_67" />
<path d="M467.5,186.5l0,-2" class="g2_67" />
<path d="M467.5,186.5l0,-2" class="g3_67" />
<path d="M340.5,186.5l0,-2" class="g4_67" />
<path d="M468.5,186.5l0,-2" class="g4_67" />
<path d="M340.5,184.5l130,0" class="g4_67" />
<path d="M341.5,253.5l0,-1" class="g3_67" />
<path d="M341.5,253.5l127,0" class="g2_67" />
<path d="M467.5,253.5l0,-1" class="g2_67" />
<path d="M340.5,253.5l0,-1" class="g4_67" />
<path d="M468.5,253.5l0,-1" class="g4_67" />
<path d="M340,256l130,0l0,-3l-130,0l0,3Z" class="g1_67" />
<path d="M341.5,252.5l127,0" class="g4_67" />
<path d="M341.5,187.5l127,0" class="g4_67" />
<path d="M341.5,252.5l0,-66" class="g3_67" />
<path d="M340.5,252.5l0,-66" class="g4_67" />
<path d="M467.5,252.5l0,-66" class="g2_67" />
<path d="M468.5,252.5l0,-66" class="g4_67" />
<path d="M340.5,257.5l130,0" class="g3_67" />
<path d="M471.5,186.5l0,-2" class="g3_67" />
<path d="M471.5,186.5l92,0" class="g3_67" />
<path d="M563.5,186.5l0,-2" class="g2_67" />
<path d="M563.5,186.5l0,-2" class="g3_67" />
<path d="M470.5,186.5l0,-2" class="g4_67" />
<path d="M564.5,186.5l0,-2" class="g4_67" />
<path d="M470.5,184.5l95,0" class="g4_67" />
<path d="M471.5,253.5l0,-1" class="g3_67" />
<path d="M471.5,253.5l93,0" class="g2_67" />
<path d="M563.5,253.5l0,-1" class="g2_67" />
<path d="M470.5,253.5l0,-1" class="g4_67" />
<path d="M564.5,253.5l0,-1" class="g4_67" />
<path d="M470,256l95,0l0,-3l-95,0l0,3Z" class="g1_67" />
<path d="M471.5,252.5l93,0" class="g4_67" />
<path d="M471.5,187.5l93,0" class="g4_67" />
<path d="M471.5,252.5l0,-66" class="g3_67" />
<path d="M470.5,252.5l0,-66" class="g4_67" />
<path d="M563.5,252.5l0,-66" class="g2_67" />
<path d="M564.5,252.5l0,-66" class="g4_67" />
<path d="M470.5,257.5l95,0" class="g3_67" />
<path d="M566.5,186.5l0,-2" class="g3_67" />
<path d="M566.5,186.5l42,0" class="g3_67" />
<path d="M608.5,186.5l0,-2" class="g2_67" />
<path d="M608.5,186.5l0,-2" class="g3_67" />
<path d="M565.5,186.5l0,-2" class="g4_67" />
<path d="M609.5,186.5l0,-2" class="g4_67" />
<path d="M565.5,184.5l45,0" class="g4_67" />
<path d="M566.5,253.5l0,-1" class="g3_67" />
<path d="M566.5,253.5l43,0" class="g2_67" />
<path d="M608.5,253.5l0,-1" class="g2_67" />
<path d="M565.5,253.5l0,-1" class="g4_67" />
<path d="M609.5,253.5l0,-1" class="g4_67" />
<path d="M565,256l45,0l0,-3l-45,0l0,3Z" class="g1_67" />
<path d="M566.5,252.5l43,0" class="g4_67" />
<path d="M566.5,187.5l43,0" class="g4_67" />
<path d="M566.5,252.5l0,-66" class="g3_67" />
<path d="M565.5,252.5l0,-66" class="g4_67" />
<path d="M608.5,252.5l0,-66" class="g2_67" />
<path d="M609.5,252.5l0,-66" class="g4_67" />
<path d="M565.5,257.5l45,0" class="g3_67" />
<path d="M611.5,186.5l0,-2" class="g3_67" />
<path d="M611.5,186.5l67,0" class="g3_67" />
<path d="M678.5,186.5l0,-2" class="g2_67" />
<path d="M678.5,186.5l0,-2" class="g3_67" />
<path d="M610.5,186.5l0,-2" class="g4_67" />
<path d="M679.5,186.5l0,-2" class="g4_67" />
<path d="M610.5,184.5l70,0" class="g4_67" />
<path d="M611.5,253.5l0,-1" class="g3_67" />
<path d="M611.5,253.5l68,0" class="g2_67" />
<path d="M678.5,253.5l0,-1" class="g2_67" />
<path d="M610.5,253.5l0,-1" class="g4_67" />
<path d="M679.5,253.5l0,-1" class="g4_67" />
<path d="M610,256l70,0l0,-3l-70,0l0,3Z" class="g1_67" />
<path d="M611.5,252.5l68,0" class="g4_67" />
<path d="M611.5,187.5l68,0" class="g4_67" />
<path d="M611.5,252.5l0,-66" class="g3_67" />
<path d="M610.5,252.5l0,-66" class="g4_67" />
<path d="M678.5,252.5l0,-66" class="g2_67" />
<path d="M679.5,252.5l0,-66" class="g4_67" />
<path d="M610.5,257.5l70,0" class="g3_67" />
<path d="M681.5,186.5l0,-2" class="g3_67" />
<path d="M681.5,186.5l41,0" class="g3_67" />
<path d="M722.5,186.5l0,-2" class="g2_67" />
<path d="M722.5,186.5l0,-2" class="g3_67" />
<path d="M680.5,186.5l0,-2" class="g4_67" />
<path d="M723.5,186.5l0,-2" class="g4_67" />
<path d="M680.5,184.5l45,0" class="g4_67" />
<path d="M681.5,253.5l0,-1" class="g3_67" />
<path d="M681.5,253.5l42,0" class="g2_67" />
<path d="M722.5,253.5l0,-1" class="g2_67" />
<path d="M680.5,253.5l0,-1" class="g4_67" />
<path d="M723.5,253.5l0,-1" class="g4_67" />
<path d="M680,256l45,0l0,-3l-45,0l0,3Z" class="g1_67" />
<path d="M681.5,252.5l42,0" class="g4_67" />
<path d="M681.5,187.5l42,0" class="g4_67" />
<path d="M681.5,252.5l0,-66" class="g3_67" />
<path d="M680.5,252.5l0,-66" class="g4_67" />
<path d="M722.5,252.5l0,-66" class="g2_67" />
<path d="M723.5,252.5l0,-66" class="g4_67" />
<path d="M680.5,257.5l45,0" class="g3_67" />
<path d="M726.5,186.5l0,-2" class="g3_67" />
<path d="M726.5,186.5l55,0" class="g3_67" />
<path d="M781.5,186.5l0,-2" class="g2_67" />
<path d="M781.5,186.5l0,-2" class="g3_67" />
<path d="M725.5,186.5l0,-2" class="g4_67" />
<path d="M782.5,186.5l0,-2" class="g4_67" />
<path d="M725.5,184.5l58,0" class="g4_67" />
<path d="M726.5,253.5l0,-1" class="g3_67" />
<path d="M726.5,253.5l56,0" class="g2_67" />
<path d="M781.5,253.5l0,-1" class="g2_67" />
<path d="M725.5,253.5l0,-1" class="g4_67" />
<path d="M782.5,253.5l0,-1" class="g4_67" />
<path d="M725,256l58,0l0,-3l-58,0l0,3Z" class="g1_67" />
<path d="M726.5,252.5l56,0" class="g4_67" />
<path d="M726.5,187.5l56,0" class="g4_67" />
<path d="M726.5,252.5l0,-66" class="g3_67" />
<path d="M725.5,252.5l0,-66" class="g4_67" />
<path d="M781.5,252.5l0,-66" class="g2_67" />
<path d="M782.5,252.5l0,-66" class="g4_67" />
<path d="M725.5,257.5l58,0" class="g3_67" />
<path d="M784.5,186.5l0,-2" class="g3_67" />
<path d="M784.5,186.5l42,0" class="g3_67" />
<path d="M826.5,186.5l0,-2" class="g2_67" />
<path d="M826.5,186.5l0,-2" class="g3_67" />
<path d="M783.5,186.5l0,-2" class="g4_67" />
<path d="M827.5,186.5l2,0" class="g4_67" />
<path d="M783.5,184.5l46,0" class="g4_67" />
<path d="M784.5,253.5l0,-1" class="g3_67" />
<path d="M784.5,253.5l43,0" class="g2_67" />
<path d="M826.5,253.5l0,-1" class="g2_67" />
<path d="M783.5,253.5l0,-1" class="g4_67" />
<path d="M827.5,253.5l2,0" class="g4_67" />
<path d="M783,255l46,0l0,-2l-46,0l0,2Z" class="g1_67" />
<path d="M783.5,256.5l46,0" class="g4_67" />
<path d="M784.5,252.5l43,0" class="g4_67" />
<path d="M784.5,187.5l43,0" class="g4_67" />
<path d="M784.5,252.5l0,-66" class="g3_67" />
<path d="M783.5,252.5l0,-66" class="g4_67" />
<path d="M826.5,252.5l0,-66" class="g2_67" />
<path d="M827,252l2,0l0,-66l-2,0l0,66Z" class="g1_67" />
<path d="M783.5,257.5l46,0" class="g3_67" />
<path d="M829.5,257.5l0,-70" class="g3_67" />
<path d="M829.5,257.5l0,-1" class="g3_67" />
<path d="M108,306l139,0l0,-45l-139,0l0,45Z" class="g1_67" />
<path d="M110,284l136,0l0,-22l-136,0l0,22Z" class="g1_67" />
<path d="M110,305l136,0l0,-21l-136,0l0,21Z" class="g1_67" />
<path d="M251,306l19,0l0,-45l-19,0l0,45Z" class="g1_67" />
<path d="M253,294l16,0l0,-21l-16,0l0,21Z" class="g1_67" />
<path d="M275,306l19,0l0,-45l-19,0l0,45Z" class="g1_67" />
<path d="M276,294l16,0l0,-21l-16,0l0,21Z" class="g1_67" />
<path d="M298,306l19,0l0,-45l-19,0l0,45Z" class="g1_67" />
<path d="M299,294l17,0l0,-21l-17,0l0,21Z" class="g1_67" />
<path d="M322,306l18,0l0,-45l-18,0l0,45Z" class="g1_67" />
<path d="M323,294l16,0l0,-21l-16,0l0,21Z" class="g1_67" />
<path d="M345,306l143,0l0,-45l-143,0l0,45Z" class="g1_67" />
<path d="M346,294l141,0l0,-21l-141,0l0,21Z" class="g1_67" />
<path d="M493,306l333,0l0,-45l-333,0l0,45Z" class="g1_67" />
<path d="M494,284l331,0l0,-22l-331,0l0,22Z" class="g1_67" />
<path d="M494,305l331,0l0,-21l-331,0l0,21Z" class="g1_67" />
<path d="M104.5,262.5l0,-5" class="g2_67" />
<path d="M104.5,258.5l725,0" class="g2_67" />
<path d="M829.5,262.5l0,-5" class="g3_67" />
<path d="M829.5,258.5l0,-1" class="g2_67" />
<path d="M107.5,261.5l0,-1" class="g3_67" />
<path d="M107.5,261.5l140,0" class="g3_67" />
<path d="M247.5,261.5l0,-1" class="g2_67" />
<path d="M247.5,261.5l0,-1" class="g3_67" />
<path d="M105.5,261.5l2,0" class="g4_67" />
<path d="M248.5,261.5l0,-1" class="g4_67" />
<path d="M105,260l144,0l0,-2l-144,0l0,2Z" class="g1_67" />
<path d="M107.5,307.5l0,-1" class="g3_67" />
<path d="M107.5,307.5l141,0" class="g2_67" />
<path d="M247.5,307.5l0,-1" class="g2_67" />
<path d="M105.5,307.5l2,0" class="g4_67" />
<path d="M248.5,307.5l0,-1" class="g4_67" />
<path d="M105,310l144,0l0,-3l-144,0l0,3Z" class="g1_67" />
<path d="M105.5,310.5l144,0" class="g4_67" />
<path d="M107.5,306.5l141,0" class="g4_67" />
<path d="M107.5,262.5l141,0" class="g4_67" />
<path d="M107.5,306.5l0,-45" class="g3_67" />
<path d="M105,306l2,0l0,-45l-2,0l0,45Z" class="g1_67" />
<path d="M247.5,306.5l0,-45" class="g2_67" />
<path d="M248.5,306.5l0,-45" class="g4_67" />
<path d="M104.5,311.5l0,-49" class="g2_67" />
<path d="M104.5,311.5l145,0" class="g3_67" />
<path d="M250.5,261.5l0,-1" class="g3_67" />
<path d="M250.5,261.5l20,0" class="g3_67" />
<path d="M270.5,261.5l0,-1" class="g2_67" />
<path d="M270.5,261.5l0,-1" class="g3_67" />
<path d="M249.5,261.5l0,-1" class="g4_67" />
<path d="M271.5,261.5l0,-1" class="g4_67" />
<path d="M249,260l23,0l0,-2l-23,0l0,2Z" class="g1_67" />
<path d="M250.5,307.5l0,-1" class="g3_67" />
<path d="M250.5,307.5l21,0" class="g2_67" />
<path d="M270.5,307.5l0,-1" class="g2_67" />
<path d="M249.5,307.5l0,-1" class="g4_67" />
<path d="M271.5,307.5l0,-1" class="g4_67" />
<path d="M249,310l23,0l0,-3l-23,0l0,3Z" class="g1_67" />
<path d="M250.5,306.5l21,0" class="g4_67" />
<path d="M250.5,262.5l21,0" class="g4_67" />
<path d="M250.5,306.5l0,-45" class="g3_67" />
<path d="M249.5,306.5l0,-45" class="g4_67" />
<path d="M270.5,306.5l0,-45" class="g2_67" />
<path d="M271.5,306.5l0,-45" class="g4_67" />
<path d="M249.5,311.5l23,0" class="g3_67" />
<path d="M274.5,261.5l0,-1" class="g3_67" />
<path d="M274.5,261.5l20,0" class="g3_67" />
<path d="M294.5,261.5l0,-1" class="g2_67" />
<path d="M294.5,261.5l0,-1" class="g3_67" />
<path d="M272.5,261.5l0,-1" class="g4_67" />
<path d="M295.5,261.5l0,-1" class="g4_67" />
<path d="M272,260l24,0l0,-2l-24,0l0,2Z" class="g1_67" />
<path d="M274.5,307.5l0,-1" class="g3_67" />
<path d="M274.5,307.5l21,0" class="g2_67" />
<path d="M294.5,307.5l0,-1" class="g2_67" />
<path d="M272.5,307.5l0,-1" class="g4_67" />
<path d="M295.5,307.5l0,-1" class="g4_67" />
<path d="M272,310l24,0l0,-3l-24,0l0,3Z" class="g1_67" />
<path d="M274.5,306.5l21,0" class="g4_67" />
<path d="M274.5,262.5l21,0" class="g4_67" />
<path d="M274.5,306.5l0,-45" class="g3_67" />
<path d="M272.5,306.5l0,-45" class="g4_67" />
<path d="M294.5,306.5l0,-45" class="g2_67" />
<path d="M295.5,306.5l0,-45" class="g4_67" />
<path d="M272.5,311.5l24,0" class="g3_67" />
<path d="M297.5,261.5l0,-1" class="g3_67" />
<path d="M297.5,261.5l20,0" class="g3_67" />
<path d="M317.5,261.5l0,-1" class="g2_67" />
<path d="M317.5,261.5l0,-1" class="g3_67" />
<path d="M296.5,261.5l0,-1" class="g4_67" />
<path d="M318.5,261.5l0,-1" class="g4_67" />
<path d="M296,260l23,0l0,-2l-23,0l0,2Z" class="g1_67" />
<path d="M297.5,307.5l0,-1" class="g3_67" />
<path d="M297.5,307.5l21,0" class="g2_67" />
<path d="M317.5,307.5l0,-1" class="g2_67" />
<path d="M296.5,307.5l0,-1" class="g4_67" />
<path d="M318.5,307.5l0,-1" class="g4_67" />
<path d="M296,310l23,0l0,-3l-23,0l0,3Z" class="g1_67" />
<path d="M297.5,306.5l21,0" class="g4_67" />
<path d="M297.5,262.5l21,0" class="g4_67" />
<path d="M297.5,306.5l0,-45" class="g3_67" />
<path d="M296.5,306.5l0,-45" class="g4_67" />
<path d="M317.5,306.5l0,-45" class="g2_67" />
<path d="M318.5,306.5l0,-45" class="g4_67" />
<path d="M296.5,311.5l23,0" class="g3_67" />
<path d="M320.5,261.5l0,-1" class="g3_67" />
<path d="M320.5,261.5l20,0" class="g3_67" />
<path d="M340.5,261.5l0,-1" class="g2_67" />
<path d="M340.5,261.5l0,-1" class="g3_67" />
<path d="M319.5,261.5l0,-1" class="g4_67" />
<path d="M342.5,261.5l0,-1" class="g4_67" />
<path d="M319,260l24,0l0,-2l-24,0l0,2Z" class="g1_67" />
<path d="M320.5,307.5l0,-1" class="g3_67" />
<path d="M320.5,307.5l22,0" class="g2_67" />
<path d="M340.5,307.5l0,-1" class="g2_67" />
<path d="M319.5,307.5l0,-1" class="g4_67" />
<path d="M342.5,307.5l0,-1" class="g4_67" />
<path d="M319,310l24,0l0,-3l-24,0l0,3Z" class="g1_67" />
<path d="M320.5,306.5l22,0" class="g4_67" />
<path d="M320.5,262.5l22,0" class="g4_67" />
<path d="M320.5,306.5l0,-45" class="g3_67" />
<path d="M319.5,306.5l0,-45" class="g4_67" />
<path d="M340.5,306.5l0,-45" class="g2_67" />
<path d="M342.5,306.5l0,-45" class="g4_67" />
<path d="M319.5,311.5l24,0" class="g3_67" />
<path d="M344.5,261.5l0,-1" class="g3_67" />
<path d="M344.5,261.5l144,0" class="g3_67" />
<path d="M488.5,261.5l0,-1" class="g2_67" />
<path d="M488.5,261.5l0,-1" class="g3_67" />
<path d="M343.5,261.5l0,-1" class="g4_67" />
<path d="M489.5,261.5l0,-1" class="g4_67" />
<path d="M343,260l147,0l0,-2l-147,0l0,2Z" class="g1_67" />
<path d="M344.5,307.5l0,-1" class="g3_67" />
<path d="M344.5,307.5l145,0" class="g2_67" />
<path d="M488.5,307.5l0,-1" class="g2_67" />
<path d="M343.5,307.5l0,-1" class="g4_67" />
<path d="M489.5,307.5l0,-1" class="g4_67" />
<path d="M343,310l147,0l0,-3l-147,0l0,3Z" class="g1_67" />
<path d="M344.5,306.5l145,0" class="g4_67" />
<path d="M344.5,262.5l145,0" class="g4_67" />
<path d="M344.5,306.5l0,-45" class="g3_67" />
<path d="M343.5,306.5l0,-45" class="g4_67" />
<path d="M488.5,306.5l0,-45" class="g2_67" />
<path d="M489.5,306.5l0,-45" class="g4_67" />
<path d="M343.5,311.5l147,0" class="g3_67" />
<path d="M491.5,261.5l0,-1" class="g3_67" />
<path d="M491.5,261.5l335,0" class="g3_67" />
<path d="M826.5,261.5l0,-1" class="g2_67" />
<path d="M826.5,261.5l0,-1" class="g3_67" />
<path d="M490.5,261.5l0,-1" class="g4_67" />
<path d="M827.5,261.5l2,0" class="g4_67" />
<path d="M490,260l339,0l0,-2l-339,0l0,2Z" class="g1_67" />
<path d="M491.5,307.5l0,-1" class="g3_67" />
<path d="M491.5,307.5l336,0" class="g2_67" />
<path d="M826.5,307.5l0,-1" class="g2_67" />
<path d="M490.5,307.5l0,-1" class="g4_67" />
<path d="M827.5,307.5l2,0" class="g4_67" />
<path d="M490,310l339,0l0,-3l-339,0l0,3Z" class="g1_67" />
<path d="M490.5,310.5l339,0" class="g4_67" />
<path d="M491.5,306.5l336,0" class="g4_67" />
<path d="M491.5,262.5l336,0" class="g4_67" />
<path d="M491.5,306.5l0,-45" class="g3_67" />
<path d="M490.5,306.5l0,-45" class="g4_67" />
<path d="M826.5,306.5l0,-45" class="g2_67" />
<path d="M827,306l2,0l0,-45l-2,0l0,45Z" class="g1_67" />
<path d="M490.5,311.5l339,0" class="g3_67" />
<path d="M829.5,311.5l0,-49" class="g3_67" />
<path d="M829.5,311.5l0,-1" class="g3_67" />
<path d="M108,382l161,0l0,-67l-161,0l0,67Z" class="g1_67" />
<path d="M110,359l158,0l0,-21l-158,0l0,21Z" class="g1_67" />
<path d="M273,382l370,0l0,-67l-370,0l0,67Z" class="g1_67" />
<path d="M274,338l368,0l0,-21l-368,0l0,21Z" class="g1_67" />
<path d="M274,359l368,0l0,-21l-368,0l0,21Z" class="g1_67" />
<path d="M274,381l368,0l0,-22l-368,0l0,22Z" class="g1_67" />
<path d="M648,382l178,0l0,-67l-178,0l0,67Z" class="g1_67" />
<path d="M649,338l176,0l0,-21l-176,0l0,21Z" class="g1_67" />
<path d="M649,359l176,0l0,-21l-176,0l0,21Z" class="g1_67" />
<path d="M649,381l176,0l0,-22l-176,0l0,22Z" class="g1_67" />
<path d="M104.5,317.5l0,-6" class="g2_67" />
<path d="M104.5,312.5l725,0" class="g2_67" />
<path d="M829.5,317.5l0,-6" class="g3_67" />
<path d="M829.5,312.5l0,-1" class="g2_67" />
<path d="M107.5,315.5l0,-1" class="g3_67" />
<path d="M107.5,315.5l162,0" class="g3_67" />
<path d="M269.5,315.5l0,-1" class="g2_67" />
<path d="M269.5,315.5l0,-1" class="g3_67" />
<path d="M105.5,315.5l2,0" class="g4_67" />
<path d="M270.5,315.5l0,-1" class="g4_67" />
<path d="M105,314l166,0l0,-2l-166,0l0,2Z" class="g1_67" />
<path d="M107.5,383.5l0,-1" class="g3_67" />
<path d="M107.5,383.5l163,0" class="g2_67" />
<path d="M269.5,383.5l0,-1" class="g2_67" />
<path d="M105.5,383.5l2,0" class="g4_67" />
<path d="M270.5,383.5l0,-1" class="g4_67" />
<path d="M105,385l166,0l0,-2l-166,0l0,2Z" class="g1_67" />
<path d="M105.5,385.5l166,0" class="g4_67" />
<path d="M107.5,382.5l163,0" class="g4_67" />
<path d="M107.5,317.5l163,0" class="g4_67" />
<path d="M107.5,382.5l0,-67" class="g3_67" />
<path d="M105,382l2,0l0,-67l-2,0l0,67Z" class="g1_67" />
<path d="M269.5,382.5l0,-67" class="g2_67" />
<path d="M270.5,382.5l0,-67" class="g4_67" />
<path d="M104.5,387.5l0,-70" class="g2_67" />
<path d="M104.5,387.5l167,0" class="g3_67" />
<path d="M272.5,315.5l0,-1" class="g3_67" />
<path d="M272.5,315.5l371,0" class="g3_67" />
<path d="M643.5,315.5l0,-1" class="g2_67" />
<path d="M643.5,315.5l0,-1" class="g3_67" />
<path d="M271.5,315.5l0,-1" class="g4_67" />
<path d="M644.5,315.5l0,-1" class="g4_67" />
<path d="M271,314l375,0l0,-2l-375,0l0,2Z" class="g1_67" />
<path d="M272.5,383.5l0,-1" class="g3_67" />
<path d="M272.5,383.5l372,0" class="g2_67" />
<path d="M643.5,383.5l0,-1" class="g2_67" />
<path d="M271.5,383.5l0,-1" class="g4_67" />
<path d="M644.5,383.5l0,-1" class="g4_67" />
<path d="M271,385l375,0l0,-2l-375,0l0,2Z" class="g1_67" />
<path d="M272.5,382.5l372,0" class="g4_67" />
<path d="M272.5,317.5l372,0" class="g4_67" />
<path d="M272.5,382.5l0,-67" class="g3_67" />
<path d="M271.5,382.5l0,-67" class="g4_67" />
<path d="M643.5,382.5l0,-67" class="g2_67" />
<path d="M644.5,382.5l0,-67" class="g4_67" />
<path d="M271.5,387.5l375,0" class="g3_67" />
<path d="M647.5,315.5l0,-1" class="g3_67" />
<path d="M647.5,315.5l179,0" class="g3_67" />
<path d="M826.5,315.5l0,-1" class="g2_67" />
<path d="M826.5,315.5l0,-1" class="g3_67" />
<path d="M646.5,315.5l0,-1" class="g4_67" />
<path d="M827.5,315.5l2,0" class="g4_67" />
<path d="M646,314l183,0l0,-2l-183,0l0,2Z" class="g1_67" />
<path d="M647.5,383.5l0,-1" class="g3_67" />
<path d="M647.5,383.5l180,0" class="g2_67" />
<path d="M826.5,383.5l0,-1" class="g2_67" />
<path d="M646.5,383.5l0,-1" class="g4_67" />
<path d="M827.5,383.5l2,0" class="g4_67" />
<path d="M646,385l183,0l0,-2l-183,0l0,2Z" class="g1_67" />
<path d="M646.5,385.5l183,0" class="g4_67" />
<path d="M647.5,382.5l180,0" class="g4_67" />
<path d="M647.5,317.5l180,0" class="g4_67" />
<path d="M647.5,382.5l0,-67" class="g3_67" />
<path d="M646.5,382.5l0,-67" class="g4_67" />
<path d="M826.5,382.5l0,-67" class="g2_67" />
<path d="M827,382l2,0l0,-67l-2,0l0,67Z" class="g1_67" />
<path d="M646.5,387.5l183,0" class="g3_67" />
<path d="M829.5,387.5l0,-70" class="g3_67" />
<path d="M829.5,387.5l0,-2" class="g3_67" />
<path d="M108,415l172,0l0,-24l-172,0l0,24Z" class="g1_67" />
<path d="M110,414l169,0l0,-22l-169,0l0,22Z" class="g1_67" />
<path d="M284,415l179,0l0,-24l-179,0l0,24Z" class="g1_67" />
<path d="M285,414l177,0l0,-22l-177,0l0,22Z" class="g1_67" />
<path d="M468,415l358,0l0,-24l-358,0l0,24Z" class="g1_67" />
<path d="M469,414l356,0l0,-22l-356,0l0,22Z" class="g1_67" />
<path d="M104.5,392.5l0,-5" class="g2_67" />
<path d="M104.5,388.5l725,0" class="g2_67" />
<path d="M829.5,392.5l0,-5" class="g3_67" />
<path d="M829.5,388.5l0,-1" class="g2_67" />
<path d="M107.5,391.5l0,-1" class="g3_67" />
<path d="M107.5,391.5l173,0" class="g3_67" />
<path d="M280.5,391.5l0,-1" class="g2_67" />
<path d="M280.5,391.5l0,-1" class="g3_67" />
<path d="M105.5,391.5l2,0" class="g4_67" />
<path d="M281.5,391.5l0,-1" class="g4_67" />
<path d="M105,390l177,0l0,-2l-177,0l0,2Z" class="g1_67" />
<path d="M107.5,416.5l0,-1" class="g3_67" />
<path d="M107.5,416.5l174,0" class="g2_67" />
<path d="M280.5,416.5l0,-1" class="g2_67" />
<path d="M105.5,416.5l2,0" class="g4_67" />
<path d="M281.5,416.5l0,-1" class="g4_67" />
<path d="M105,418l177,0l0,-2l-177,0l0,2Z" class="g1_67" />
<path d="M105.5,418.5l177,0" class="g4_67" />
<path d="M107.5,415.5l174,0" class="g4_67" />
<path d="M107.5,392.5l174,0" class="g4_67" />
<path d="M107.5,415.5l0,-24" class="g3_67" />
<path d="M105,415l2,0l0,-24l-2,0l0,24Z" class="g1_67" />
<path d="M280.5,415.5l0,-24" class="g2_67" />
<path d="M281.5,415.5l0,-24" class="g4_67" />
<path d="M104.5,419.5l0,-27" class="g2_67" />
<path d="M104.5,419.5l178,0" class="g3_67" />
<path d="M283.5,391.5l0,-1" class="g3_67" />
<path d="M283.5,391.5l180,0" class="g3_67" />
<path d="M463.5,391.5l0,-1" class="g2_67" />
<path d="M463.5,391.5l0,-1" class="g3_67" />
<path d="M282.5,391.5l0,-1" class="g4_67" />
<path d="M464.5,391.5l0,-1" class="g4_67" />
<path d="M282,390l183,0l0,-2l-183,0l0,2Z" class="g1_67" />
<path d="M283.5,416.5l0,-1" class="g3_67" />
<path d="M283.5,416.5l181,0" class="g2_67" />
<path d="M463.5,416.5l0,-1" class="g2_67" />
<path d="M282.5,416.5l0,-1" class="g4_67" />
<path d="M464.5,416.5l0,-1" class="g4_67" />
<path d="M282,418l183,0l0,-2l-183,0l0,2Z" class="g1_67" />
<path d="M283.5,415.5l181,0" class="g4_67" />
<path d="M283.5,392.5l181,0" class="g4_67" />
<path d="M283.5,415.5l0,-24" class="g3_67" />
<path d="M282.5,415.5l0,-24" class="g4_67" />
<path d="M463.5,415.5l0,-24" class="g2_67" />
<path d="M464.5,415.5l0,-24" class="g4_67" />
<path d="M282.5,419.5l183,0" class="g3_67" />
<path d="M466.5,391.5l0,-1" class="g3_67" />
<path d="M466.5,391.5l360,0" class="g3_67" />
<path d="M826.5,391.5l0,-1" class="g2_67" />
<path d="M826.5,391.5l0,-1" class="g3_67" />
<path d="M465.5,391.5l0,-1" class="g4_67" />
<path d="M827.5,391.5l2,0" class="g4_67" />
<path d="M465,390l364,0l0,-2l-364,0l0,2Z" class="g1_67" />
<path d="M466.5,416.5l0,-1" class="g3_67" />
<path d="M466.5,416.5l361,0" class="g2_67" />
<path d="M826.5,416.5l0,-1" class="g2_67" />
<path d="M465.5,416.5l0,-1" class="g4_67" />
<path d="M827.5,416.5l2,0" class="g4_67" />
<path d="M465,418l364,0l0,-2l-364,0l0,2Z" class="g1_67" />
<path d="M465.5,418.5l364,0" class="g4_67" />
<path d="M466.5,415.5l361,0" class="g4_67" />
<path d="M466.5,392.5l361,0" class="g4_67" />
<path d="M466.5,415.5l0,-24" class="g3_67" />
<path d="M465.5,415.5l0,-24" class="g4_67" />
<path d="M826.5,415.5l0,-24" class="g2_67" />
<path d="M827,415l2,0l0,-24l-2,0l0,24Z" class="g1_67" />
<path d="M465.5,419.5l364,0" class="g3_67" />
<path d="M829.5,419.5l0,-27" class="g3_67" />
<path d="M829.5,419.5l0,-1" class="g3_67" />
<path d="M108,491l718,0l0,-24l-718,0l0,24Z" class="g5_67" />
<path d="M110,490l715,0l0,-21l-715,0l0,21Z" class="g5_67" />
<path d="M108.5,491.5l718,0" class="g6_67" />
<path d="M108.5,469.5l718,0" class="g6_67" />
<path d="M110,631l715,0l0,-2l-715,0l0,2Z" class="g7_67" />
<path d="M110.5,629.5l714,0" class="g3_67" />
<path d="M110.5,630.5l0,-1" class="g3_67" />
<path d="M824.5,630.5l0,-1" class="g8_67" />
<path d="M110.5,631.5l0,-1" class="g3_67" />
<path d="M110.5,631.5l715,0" class="g8_67" />
<path d="M824.5,631.5l0,-1" class="g8_67" />
</svg>