<?xml version="1.0" encoding="UTF-8" standalone="no"?>
<!DOCTYPE svg PUBLIC "-//W3C//DTD SVG 1.1//EN"
"http://www.w3.org/Graphics/SVG/1.1/DTD/svg11.dtd">
<svg version="1.1" xmlns="http://www.w3.org/2000/svg" xmlns:xlink="http://www.w3.org/1999/xlink">
<defs>
<clipPath id="c0_150"><path d="M784.5,852.5l0,-39l35,0l0,39Z" /></clipPath>
<style type="text/css"><![CDATA[
.g1_150{
fill: none;
stroke: #000000;
stroke-width: 1;
stroke-linecap: butt;
stroke-linejoin: miter;
}
.g2_150{
}
.g3_150{
fill: #FFFFFF;
}
]]></style>
</defs>
<path d="M105.5,205.5l0,-1" class="g1_150" />
<path d="M105.5,205.5l724,0" class="g1_150" />
<path d="M828.5,205.5l0,-1" class="g1_150" />
<path d="M105.5,231.5l0,-1" class="g1_150" />
<path d="M105.5,231.5l0,-1" class="g1_150" />
<path d="M106,232l722,0l0,-2l-722,0l0,2Z" class="g2_150" />
<path d="M829.5,232.5l0,-2" class="g1_150" />
<path d="M828.5,232.5l2,0" class="g1_150" />
<path d="M828.5,231.5l0,-1" class="g1_150" />
<path d="M828.5,231.5l0,-1" class="g1_150" />
<path d="M105.5,230.5l0,-25" class="g1_150" />
<path d="M828,230l2,0l0,-25l-2,0l0,25Z" class="g2_150" />
<image x="516" y="253" width="37" height="23" xlink:href="img/1.png" />
<image x="552" y="256" width="31" height="20" xlink:href="img/2.png" />
<image x="583" y="261" width="23" height="15" xlink:href="img/3.png" />
<path d="M335.5,320.5l34,0" class="g1_150" />
<g clip-path="url(#c0_150)">
<path d="M784,852l35,0l0,-39l-35,0l0,39Z" class="g3_150" />
</g>
<image x="784" y="813" width="37" height="42" xlink:href="img/4.png" />
<image x="784" y="813" width="37" height="42" xlink:href="img/5.png" />
</svg>