<?xml version="1.0" encoding="UTF-8" standalone="no"?>
<!DOCTYPE svg PUBLIC "-//W3C//DTD SVG 1.1//EN"
"http://www.w3.org/Graphics/SVG/1.1/DTD/svg11.dtd">
<svg version="1.1" xmlns="http://www.w3.org/2000/svg" xmlns:xlink="http://www.w3.org/1999/xlink">
<defs>
<style type="text/css"><![CDATA[
.g1_23{
fill: none;
stroke: #EFEFEF;
stroke-width: 1;
stroke-linecap: butt;
stroke-linejoin: miter;
}
.g2_23{
fill: none;
stroke: #A0A0A0;
stroke-width: 1;
stroke-linecap: butt;
stroke-linejoin: miter;
}
]]></style>
</defs>
<path d="M168.5,68.5l0,-13" class="g1_23" />
<path d="M168.5,56.5l597,0" class="g1_23" />
<path d="M765.5,68.5l0,-13" class="g2_23" />
<path d="M765.5,56.5l0,-1" class="g1_23" />
<path d="M169.5,57.5l0,-1" class="g2_23" />
<path d="M169.5,57.5l175,0" class="g2_23" />
<path d="M344.5,57.5l0,-1" class="g1_23" />
<path d="M344.5,57.5l0,-1" class="g2_23" />
<path d="M169.5,119.5l0,-1" class="g2_23" />
<path d="M169.5,119.5l176,0" class="g1_23" />
<path d="M344.5,119.5l0,-1" class="g1_23" />
<path d="M169.5,118.5l0,-61" class="g2_23" />
<path d="M344.5,118.5l0,-61" class="g1_23" />
<path d="M168.5,119.5l0,-51" class="g1_23" />
<path d="M345.5,57.5l0,-1" class="g2_23" />
<path d="M345.5,57.5l419,0" class="g2_23" />
<path d="M764.5,57.5l0,-1" class="g1_23" />
<path d="M764.5,57.5l0,-1" class="g2_23" />
<path d="M345.5,119.5l0,-1" class="g2_23" />
<path d="M345.5,119.5l420,0" class="g1_23" />
<path d="M764.5,119.5l0,-1" class="g1_23" />
<path d="M345.5,118.5l0,-61" class="g2_23" />
<path d="M764.5,118.5l0,-61" class="g1_23" />
<path d="M765.5,119.5l0,-51" class="g2_23" />
<path d="M168.5,131.5l0,-12" class="g1_23" />
<path d="M765.5,131.5l0,-12" class="g2_23" />
<path d="M169.5,120.5l0,-1" class="g2_23" />
<path d="M169.5,120.5l175,0" class="g2_23" />
<path d="M344.5,120.5l0,-1" class="g1_23" />
<path d="M344.5,120.5l0,-1" class="g2_23" />
<path d="M169.5,182.5l0,-1" class="g2_23" />
<path d="M169.5,182.5l176,0" class="g1_23" />
<path d="M344.5,182.5l0,-1" class="g1_23" />
<path d="M169.5,181.5l0,-61" class="g2_23" />
<path d="M344.5,181.5l0,-61" class="g1_23" />
<path d="M168.5,182.5l0,-51" class="g1_23" />
<path d="M345.5,120.5l0,-1" class="g2_23" />
<path d="M345.5,120.5l419,0" class="g2_23" />
<path d="M764.5,120.5l0,-1" class="g1_23" />
<path d="M764.5,120.5l0,-1" class="g2_23" />
<path d="M345.5,182.5l0,-1" class="g2_23" />
<path d="M345.5,182.5l420,0" class="g1_23" />
<path d="M764.5,182.5l0,-1" class="g1_23" />
<path d="M345.5,181.5l0,-61" class="g2_23" />
<path d="M764.5,181.5l0,-61" class="g1_23" />
<path d="M765.5,182.5l0,-51" class="g2_23" />
<path d="M168.5,195.5l0,-13" class="g1_23" />
<path d="M765.5,195.5l0,-13" class="g2_23" />
<path d="M169.5,183.5l0,-1" class="g2_23" />
<path d="M169.5,183.5l175,0" class="g2_23" />
<path d="M344.5,183.5l0,-1" class="g1_23" />
<path d="M344.5,183.5l0,-1" class="g2_23" />
<path d="M169.5,238.5l0,-1" class="g2_23" />
<path d="M169.5,238.5l176,0" class="g1_23" />
<path d="M344.5,238.5l0,-1" class="g1_23" />
<path d="M169.5,237.5l0,-54" class="g2_23" />
<path d="M344.5,237.5l0,-54" class="g1_23" />
<path d="M168.5,238.5l0,-43" class="g1_23" />
<path d="M345.5,183.5l0,-1" class="g2_23" />
<path d="M345.5,183.5l419,0" class="g2_23" />
<path d="M764.5,183.5l0,-1" class="g1_23" />
<path d="M764.5,183.5l0,-1" class="g2_23" />
<path d="M345.5,238.5l0,-1" class="g2_23" />
<path d="M345.5,238.5l420,0" class="g1_23" />
<path d="M764.5,238.5l0,-1" class="g1_23" />
<path d="M345.5,237.5l0,-54" class="g2_23" />
<path d="M764.5,237.5l0,-54" class="g1_23" />
<path d="M765.5,238.5l0,-43" class="g2_23" />
<path d="M168.5,251.5l0,-13" class="g1_23" />
<path d="M765.5,251.5l0,-13" class="g2_23" />
<path d="M169.5,239.5l0,-1" class="g2_23" />
<path d="M169.5,239.5l175,0" class="g2_23" />
<path d="M344.5,239.5l0,-1" class="g1_23" />
<path d="M344.5,239.5l0,-1" class="g2_23" />
<path d="M169.5,323.5l0,-1" class="g2_23" />
<path d="M169.5,323.5l176,0" class="g1_23" />
<path d="M344.5,323.5l0,-1" class="g1_23" />
<path d="M169.5,322.5l0,-83" class="g2_23" />
<path d="M344.5,322.5l0,-83" class="g1_23" />
<path d="M168.5,323.5l0,-72" class="g1_23" />
<path d="M345.5,239.5l0,-1" class="g2_23" />
<path d="M345.5,239.5l419,0" class="g2_23" />
<path d="M764.5,239.5l0,-1" class="g1_23" />
<path d="M764.5,239.5l0,-1" class="g2_23" />
<path d="M345.5,323.5l0,-1" class="g2_23" />
<path d="M345.5,323.5l420,0" class="g1_23" />
<path d="M764.5,323.5l0,-1" class="g1_23" />
<path d="M345.5,322.5l0,-83" class="g2_23" />
<path d="M764.5,322.5l0,-83" class="g1_23" />
<path d="M765.5,323.5l0,-72" class="g2_23" />
<path d="M168.5,336.5l0,-13" class="g1_23" />
<path d="M765.5,336.5l0,-13" class="g2_23" />
<path d="M169.5,324.5l0,-1" class="g2_23" />
<path d="M169.5,324.5l175,0" class="g2_23" />
<path d="M344.5,324.5l0,-1" class="g1_23" />
<path d="M344.5,324.5l0,-1" class="g2_23" />
<path d="M169.5,380.5l0,-1" class="g2_23" />
<path d="M169.5,380.5l176,0" class="g1_23" />
<path d="M344.5,380.5l0,-1" class="g1_23" />
<path d="M169.5,379.5l0,-55" class="g2_23" />
<path d="M344.5,379.5l0,-55" class="g1_23" />
<path d="M168.5,380.5l0,-44" class="g1_23" />
<path d="M345.5,324.5l0,-1" class="g2_23" />
<path d="M345.5,324.5l419,0" class="g2_23" />
<path d="M764.5,324.5l0,-1" class="g1_23" />
<path d="M764.5,324.5l0,-1" class="g2_23" />
<path d="M345.5,380.5l0,-1" class="g2_23" />
<path d="M345.5,380.5l420,0" class="g1_23" />
<path d="M764.5,380.5l0,-1" class="g1_23" />
<path d="M345.5,379.5l0,-55" class="g2_23" />
<path d="M764.5,379.5l0,-55" class="g1_23" />
<path d="M765.5,380.5l0,-44" class="g2_23" />
<path d="M168.5,393.5l0,-13" class="g1_23" />
<path d="M765.5,393.5l0,-13" class="g2_23" />
<path d="M169.5,382.5l0,-1" class="g2_23" />
<path d="M169.5,382.5l175,0" class="g2_23" />
<path d="M344.5,382.5l0,-1" class="g1_23" />
<path d="M344.5,382.5l0,-1" class="g2_23" />
<path d="M169.5,465.5l0,-1" class="g2_23" />
<path d="M169.5,465.5l176,0" class="g1_23" />
<path d="M344.5,465.5l0,-1" class="g1_23" />
<path d="M169.5,464.5l0,-82" class="g2_23" />
<path d="M344.5,464.5l0,-82" class="g1_23" />
<path d="M168.5,465.5l0,-72" class="g1_23" />
<path d="M345.5,382.5l0,-1" class="g2_23" />
<path d="M345.5,382.5l419,0" class="g2_23" />
<path d="M764.5,382.5l0,-1" class="g1_23" />
<path d="M764.5,382.5l0,-1" class="g2_23" />
<path d="M345.5,465.5l0,-1" class="g2_23" />
<path d="M345.5,465.5l420,0" class="g1_23" />
<path d="M764.5,465.5l0,-1" class="g1_23" />
<path d="M345.5,464.5l0,-82" class="g2_23" />
<path d="M764.5,464.5l0,-82" class="g1_23" />
<path d="M765.5,465.5l0,-72" class="g2_23" />
<path d="M168.5,478.5l0,-13" class="g1_23" />
<path d="M765.5,478.5l0,-13" class="g2_23" />
<path d="M169.5,467.5l0,-2" class="g2_23" />
<path d="M169.5,467.5l175,0" class="g2_23" />
<path d="M344.5,467.5l0,-2" class="g1_23" />
<path d="M344.5,467.5l0,-2" class="g2_23" />
<path d="M169.5,528.5l0,-1" class="g2_23" />
<path d="M169.5,528.5l176,0" class="g1_23" />
<path d="M344.5,528.5l0,-1" class="g1_23" />
<path d="M169.5,527.5l0,-60" class="g2_23" />
<path d="M344.5,527.5l0,-60" class="g1_23" />
<path d="M168.5,529.5l0,-51" class="g1_23" />
<path d="M345.5,467.5l0,-2" class="g2_23" />
<path d="M345.5,467.5l419,0" class="g2_23" />
<path d="M764.5,467.5l0,-2" class="g1_23" />
<path d="M764.5,467.5l0,-2" class="g2_23" />
<path d="M345.5,528.5l0,-1" class="g2_23" />
<path d="M345.5,528.5l420,0" class="g1_23" />
<path d="M764.5,528.5l0,-1" class="g1_23" />
<path d="M345.5,527.5l0,-60" class="g2_23" />
<path d="M764.5,527.5l0,-60" class="g1_23" />
<path d="M765.5,529.5l0,-51" class="g2_23" />
<path d="M168.5,541.5l0,-12" class="g1_23" />
<path d="M765.5,541.5l0,-12" class="g2_23" />
<path d="M169.5,530.5l0,-1" class="g2_23" />
<path d="M169.5,530.5l175,0" class="g2_23" />
<path d="M344.5,530.5l0,-1" class="g1_23" />
<path d="M344.5,530.5l0,-1" class="g2_23" />
<path d="M169.5,592.5l0,-2" class="g2_23" />
<path d="M169.5,592.5l176,0" class="g1_23" />
<path d="M344.5,592.5l0,-2" class="g1_23" />
<path d="M169.5,590.5l0,-60" class="g2_23" />
<path d="M344.5,590.5l0,-60" class="g1_23" />
<path d="M168.5,592.5l0,-51" class="g1_23" />
<path d="M345.5,530.5l0,-1" class="g2_23" />
<path d="M345.5,530.5l419,0" class="g2_23" />
<path d="M764.5,530.5l0,-1" class="g1_23" />
<path d="M764.5,530.5l0,-1" class="g2_23" />
<path d="M345.5,592.5l0,-2" class="g2_23" />
<path d="M345.5,592.5l420,0" class="g1_23" />
<path d="M764.5,592.5l0,-2" class="g1_23" />
<path d="M345.5,590.5l0,-60" class="g2_23" />
<path d="M764.5,590.5l0,-60" class="g1_23" />
<path d="M765.5,592.5l0,-51" class="g2_23" />
<path d="M168.5,604.5l0,-12" class="g1_23" />
<path d="M765.5,604.5l0,-12" class="g2_23" />
<path d="M169.5,593.5l0,-1" class="g2_23" />
<path d="M169.5,593.5l175,0" class="g2_23" />
<path d="M344.5,593.5l0,-1" class="g1_23" />
<path d="M344.5,593.5l0,-1" class="g2_23" />
<path d="M169.5,640.5l0,-1" class="g2_23" />
<path d="M169.5,640.5l176,0" class="g1_23" />
<path d="M344.5,640.5l0,-1" class="g1_23" />
<path d="M169.5,639.5l0,-46" class="g2_23" />
<path d="M344.5,639.5l0,-46" class="g1_23" />
<path d="M168.5,641.5l0,-37" class="g1_23" />
<path d="M168.5,641.5l177,0" class="g2_23" />
<path d="M345.5,593.5l0,-1" class="g2_23" />
<path d="M345.5,593.5l419,0" class="g2_23" />
<path d="M764.5,593.5l0,-1" class="g1_23" />
<path d="M764.5,593.5l0,-1" class="g2_23" />
<path d="M345.5,640.5l0,-1" class="g2_23" />
<path d="M345.5,640.5l420,0" class="g1_23" />
<path d="M764.5,640.5l0,-1" class="g1_23" />
<path d="M345.5,639.5l0,-46" class="g2_23" />
<path d="M764.5,639.5l0,-46" class="g1_23" />
<path d="M345.5,641.5l420,0" class="g2_23" />
<path d="M765.5,641.5l0,-37" class="g2_23" />
<path d="M765.5,641.5l0,-1" class="g2_23" />
</svg>