<?xml version="1.0" encoding="UTF-8" standalone="no"?>
<!DOCTYPE svg PUBLIC "-//W3C//DTD SVG 1.1//EN"
"http://www.w3.org/Graphics/SVG/1.1/DTD/svg11.dtd">
<svg version="1.1" xmlns="http://www.w3.org/2000/svg" xmlns:xlink="http://www.w3.org/1999/xlink">
<defs>
<clipPath id="c0_19"><path d="M225.5,1048.5l0,-21l248,0l0,21Z" /></clipPath>
<style type="text/css"><![CDATA[
.g1_19{
fill: #FFFFFF;
}
]]></style>
</defs>
<path d="M135,88l692,0l0,-33L135,55l0,33Z" class="g1_19" />
<path d="M135,130l692,0l0,-42L135,88l0,42Z" class="g1_19" />
<path d="M135,171l692,0l0,-41l-692,0l0,41Z" class="g1_19" />
<path d="M135,213l692,0l0,-42l-692,0l0,42Z" class="g1_19" />
<path d="M135,254l692,0l0,-41l-692,0l0,41Z" class="g1_19" />
<path d="M135,295l692,0l0,-41l-692,0l0,41Z" class="g1_19" />
<path d="M135,337l692,0l0,-42l-692,0l0,42Z" class="g1_19" />
<path d="M135,378l692,0l0,-41l-692,0l0,41Z" class="g1_19" />
<path d="M135,420l692,0l0,-42l-692,0l0,42Z" class="g1_19" />
<path d="M135,461l692,0l0,-41l-692,0l0,41Z" class="g1_19" />
<path d="M135,503l692,0l0,-42l-692,0l0,42Z" class="g1_19" />
<path d="M135,544l692,0l0,-41l-692,0l0,41Z" class="g1_19" />
<path d="M135,586l692,0l0,-42l-692,0l0,42Z" class="g1_19" />
<path d="M135,627l692,0l0,-41l-692,0l0,41Z" class="g1_19" />
<path d="M135,668l692,0l0,-41l-692,0l0,41Z" class="g1_19" />
<path d="M135,710l692,0l0,-42l-692,0l0,42Z" class="g1_19" />
<path d="M135,744l692,0l0,-34l-692,0l0,34Z" class="g1_19" />
<path d="M322,945l290,0l0,-32l-290,0l0,32Z" class="g1_19" />
<image x="322" y="913" width="291" height="33" xlink:href="img/1.png" />
<g clip-path="url(#c0_19)">
<path d="M253,1048l192,0l0,-21l-192,0l0,21Z" class="g1_19" />
</g>
<image x="253" y="1027" width="193" height="22" xlink:href="img/2.png" />
</svg>