<?xml version="1.0" encoding="UTF-8" standalone="no"?>
<!DOCTYPE svg PUBLIC "-//W3C//DTD SVG 1.1//EN"
"http://www.w3.org/Graphics/SVG/1.1/DTD/svg11.dtd">
<svg version="1.1" xmlns="http://www.w3.org/2000/svg" xmlns:xlink="http://www.w3.org/1999/xlink">
<defs>
<clipPath id="c0_9"><path d="M133.5,258.5l0,-92l503,0l0,92Z" /></clipPath>
<clipPath id="c1_9"><path d="M182.5,692.5l0,-123l476,0l0,123Z" /></clipPath>
<clipPath id="c2_9"><path d="M464.5,1084.5l0,-58l362,0l0,58Z" /></clipPath>
<style type="text/css"><![CDATA[
.g1_9{
fill: #FFFFFF;
}
.g2_9{
fill: none;
stroke: #EFEFEF;
stroke-width: 1;
stroke-linecap: butt;
stroke-linejoin: miter;
}
.g3_9{
fill: none;
stroke: #A0A0A0;
stroke-width: 1;
stroke-linecap: butt;
stroke-linejoin: miter;
}
]]></style>
</defs>
<path d="M107,86l720,0l0,-31L107,55l0,31Z" class="g1_9" />
<path d="M107,117l720,0l0,-31L107,86l0,31Z" class="g1_9" />
<path d="M107,156l720,0l0,-39l-720,0l0,39Z" class="g1_9" />
<g clip-path="url(#c0_9)">
<path d="M133,258l503,0l0,-92l-503,0l0,92Z" class="g1_9" />
</g>
<image x="133" y="166" width="505" height="94" xlink:href="img/1.png" />
<image x="133" y="166" width="505" height="94" xlink:href="img/2.png" />
<path d="M108.5,166.5l0,-2" class="g2_9" />
<path d="M108.5,165.5l552,0" class="g2_9" />
<path d="M660.5,166.5l0,-2" class="g3_9" />
<path d="M660.5,165.5l0,-1" class="g2_9" />
<path d="M108.5,166.5l0,-1" class="g3_9" />
<path d="M108.5,166.5l552,0" class="g3_9" />
<path d="M660.5,166.5l0,-1" class="g2_9" />
<path d="M660.5,166.5l0,-1" class="g3_9" />
<path d="M108.5,263.5l0,-1" class="g3_9" />
<path d="M108.5,263.5l553,0" class="g2_9" />
<path d="M660.5,263.5l0,-1" class="g2_9" />
<path d="M108.5,262.5l0,-96" class="g3_9" />
<path d="M660.5,262.5l0,-96" class="g2_9" />
<path d="M108.5,264.5l0,-98" class="g2_9" />
<path d="M660.5,264.5l0,-98" class="g3_9" />
<image x="181" y="265" width="139" height="52" xlink:href="img/3.png" />
<image x="432" y="265" width="189" height="50" xlink:href="img/4.png" />
<path d="M108.5,265.5l0,-1" class="g2_9" />
<path d="M660.5,265.5l0,-1" class="g3_9" />
<path d="M108.5,265.5l0,-1" class="g3_9" />
<path d="M108.5,265.5l283,0" class="g3_9" />
<path d="M391.5,265.5l0,-1" class="g2_9" />
<path d="M391.5,265.5l0,-1" class="g3_9" />
<path d="M108.5,330.5l0,-1" class="g3_9" />
<path d="M108.5,330.5l284,0" class="g2_9" />
<path d="M391.5,330.5l0,-1" class="g2_9" />
<path d="M108.5,329.5l0,-64" class="g3_9" />
<path d="M391.5,329.5l0,-64" class="g2_9" />
<path d="M108.5,330.5l0,-65" class="g2_9" />
<path d="M392.5,265.5l0,-1" class="g3_9" />
<path d="M392.5,265.5l268,0" class="g3_9" />
<path d="M660.5,265.5l0,-1" class="g2_9" />
<path d="M660.5,265.5l0,-1" class="g3_9" />
<path d="M392.5,330.5l0,-1" class="g3_9" />
<path d="M392.5,330.5l269,0" class="g2_9" />
<path d="M660.5,330.5l0,-1" class="g2_9" />
<path d="M392.5,329.5l0,-64" class="g3_9" />
<path d="M660.5,329.5l0,-64" class="g2_9" />
<path d="M660.5,330.5l0,-65" class="g3_9" />
<path d="M108.5,331.5l0,-1" class="g2_9" />
<path d="M660.5,331.5l0,-1" class="g3_9" />
<path d="M108.5,331.5l0,-1" class="g3_9" />
<path d="M108.5,331.5l283,0" class="g3_9" />
<path d="M391.5,331.5l0,-1" class="g2_9" />
<path d="M391.5,331.5l0,-1" class="g3_9" />
<path d="M108.5,407.5l0,-1" class="g3_9" />
<path d="M108.5,407.5l284,0" class="g2_9" />
<path d="M391.5,407.5l0,-1" class="g2_9" />
<path d="M108.5,406.5l0,-75" class="g3_9" />
<path d="M391.5,406.5l0,-75" class="g2_9" />
<path d="M108.5,408.5l0,-77" class="g2_9" />
<path d="M108.5,408.5l284,0" class="g3_9" />
<path d="M392.5,331.5l0,-1" class="g3_9" />
<path d="M392.5,331.5l268,0" class="g3_9" />
<path d="M660.5,331.5l0,-1" class="g2_9" />
<path d="M660.5,331.5l0,-1" class="g3_9" />
<path d="M392.5,407.5l0,-1" class="g3_9" />
<path d="M392.5,407.5l269,0" class="g2_9" />
<path d="M660.5,407.5l0,-1" class="g2_9" />
<path d="M392.5,406.5l0,-75" class="g3_9" />
<path d="M660.5,406.5l0,-75" class="g2_9" />
<path d="M392.5,408.5l268,0" class="g3_9" />
<path d="M660.5,408.5l0,-77" class="g3_9" />
<path d="M660.5,408.5l0,-1" class="g3_9" />
<path d="M107,447l720,0l0,-31l-720,0l0,31Z" class="g1_9" />
<path d="M107,486l720,0l0,-39l-720,0l0,39Z" class="g1_9" />
<path d="M107,517l720,0l0,-31l-720,0l0,31Z" class="g1_9" />
<path d="M107,557l720,0l0,-40l-720,0l0,40Z" class="g1_9" />
<g clip-path="url(#c1_9)">
<path d="M182,692l476,0l0,-123l-476,0l0,123Z" class="g1_9" />
</g>
<image x="182" y="569" width="478" height="124" xlink:href="img/5.png" />
<image x="182" y="569" width="478" height="124" xlink:href="img/6.png" />
<path d="M105.5,569.5l0,-5" class="g2_9" />
<path d="M105.5,565.5l629,0" class="g2_9" />
<path d="M734.5,569.5l0,-5" class="g3_9" />
<path d="M734.5,565.5l0,-1" class="g2_9" />
<path d="M108.5,569.5l0,-1" class="g3_9" />
<path d="M108.5,569.5l623,0" class="g3_9" />
<path d="M731.5,569.5l0,-1" class="g2_9" />
<path d="M731.5,569.5l0,-1" class="g3_9" />
<path d="M108.5,693.5l0,-1" class="g3_9" />
<path d="M108.5,693.5l624,0" class="g2_9" />
<path d="M731.5,693.5l0,-1" class="g2_9" />
<path d="M108.5,692.5l0,-123" class="g3_9" />
<path d="M731.5,692.5l0,-123" class="g2_9" />
<path d="M105.5,694.5l0,-125" class="g2_9" />
<path d="M734.5,694.5l0,-125" class="g3_9" />
<path d="M118,750l202,0l0,-49l-202,0l0,49Z" class="g1_9" />
<image x="117" y="701" width="204" height="50" xlink:href="img/7.png" />
<path d="M578,748l81,0l0,-46l-81,0l0,46Z" class="g1_9" />
<image x="578" y="702" width="82" height="47" xlink:href="img/8.png" />
<path d="M105.5,696.5l0,-2" class="g2_9" />
<path d="M734.5,696.5l0,-2" class="g3_9" />
<path d="M108.5,696.5l0,-1" class="g3_9" />
<path d="M108.5,696.5l456,0" class="g3_9" />
<path d="M564.5,696.5l0,-1" class="g2_9" />
<path d="M564.5,696.5l0,-1" class="g3_9" />
<path d="M108.5,777.5l0,-1" class="g3_9" />
<path d="M108.5,777.5l457,0" class="g2_9" />
<path d="M564.5,777.5l0,-1" class="g2_9" />
<path d="M108.5,776.5l0,-80" class="g3_9" />
<path d="M564.5,776.5l0,-80" class="g2_9" />
<path d="M105.5,778.5l0,-82" class="g2_9" />
<path d="M568.5,696.5l0,-1" class="g3_9" />
<path d="M568.5,696.5l163,0" class="g3_9" />
<path d="M731.5,696.5l0,-1" class="g2_9" />
<path d="M731.5,696.5l0,-1" class="g3_9" />
<path d="M568.5,777.5l0,-1" class="g3_9" />
<path d="M568.5,777.5l164,0" class="g2_9" />
<path d="M731.5,777.5l0,-1" class="g2_9" />
<path d="M568.5,776.5l0,-80" class="g3_9" />
<path d="M731.5,776.5l0,-80" class="g2_9" />
<path d="M734.5,778.5l0,-82" class="g3_9" />
<image x="204" y="788" width="267" height="54" xlink:href="img/9.png" />
<path d="M606,857l88,0l0,-61l-88,0l0,61Z" class="g1_9" />
<image x="606" y="796" width="89" height="62" xlink:href="img/10.png" />
<path d="M105.5,780.5l0,-2" class="g2_9" />
<path d="M734.5,780.5l0,-2" class="g3_9" />
<path d="M108.5,780.5l0,-1" class="g3_9" />
<path d="M108.5,780.5l456,0" class="g3_9" />
<path d="M564.5,780.5l0,-1" class="g2_9" />
<path d="M564.5,780.5l0,-1" class="g3_9" />
<path d="M108.5,892.5l0,-1" class="g3_9" />
<path d="M108.5,892.5l457,0" class="g2_9" />
<path d="M564.5,892.5l0,-1" class="g2_9" />
<path d="M108.5,891.5l0,-111" class="g3_9" />
<path d="M564.5,891.5l0,-111" class="g2_9" />
<path d="M105.5,895.5l0,-115" class="g2_9" />
<path d="M105.5,895.5l462,0" class="g3_9" />
<path d="M568.5,780.5l0,-1" class="g3_9" />
<path d="M568.5,780.5l163,0" class="g3_9" />
<path d="M731.5,780.5l0,-1" class="g2_9" />
<path d="M731.5,780.5l0,-1" class="g3_9" />
<path d="M568.5,892.5l0,-1" class="g3_9" />
<path d="M568.5,892.5l164,0" class="g2_9" />
<path d="M731.5,892.5l0,-1" class="g2_9" />
<path d="M568.5,891.5l0,-111" class="g3_9" />
<path d="M731.5,891.5l0,-111" class="g2_9" />
<path d="M567.5,895.5l167,0" class="g3_9" />
<path d="M734.5,895.5l0,-115" class="g3_9" />
<path d="M734.5,895.5l0,-1" class="g3_9" />
<path d="M107,942l720,0l0,-39l-720,0l0,39Z" class="g1_9" />
<path d="M107,973l720,0l0,-31l-720,0l0,31Z" class="g1_9" />
<path d="M107,1012l720,0l0,-39l-720,0l0,39Z" class="g1_9" />
<image x="219" y="1028" width="131" height="37" xlink:href="img/11.png" />
<g clip-path="url(#c2_9)">
<path d="M572,1066l146,0l0,-40l-146,0l0,40Z" class="g1_9" />
</g>
<image x="572" y="1026" width="147" height="41" xlink:href="img/12.png" />
<path d="M104.5,1026.5l0,-6" class="g2_9" />
<path d="M104.5,1021.5l725,0" class="g2_9" />
<path d="M829.5,1026.5l0,-6" class="g3_9" />
<path d="M829.5,1021.5l0,-1" class="g2_9" />
<path d="M107.5,1025.5l0,-1" class="g3_9" />
<path d="M107.5,1025.5l353,0" class="g3_9" />
<path d="M460.5,1025.5l0,-1" class="g2_9" />
<path d="M460.5,1025.5l0,-1" class="g3_9" />
<path d="M107.5,1086.5l0,-1" class="g3_9" />
<path d="M107.5,1086.5l354,0" class="g2_9" />
<path d="M460.5,1086.5l0,-1" class="g2_9" />
<path d="M107.5,1085.5l0,-60" class="g3_9" />
<path d="M460.5,1085.5l0,-60" class="g2_9" />
<path d="M104.5,1088.5l0,-62" class="g2_9" />
<path d="M104.5,1088.5l358,0" class="g3_9" />
<path d="M463.5,1025.5l0,-1" class="g3_9" />
<path d="M463.5,1025.5l363,0" class="g3_9" />
<path d="M826.5,1025.5l0,-1" class="g2_9" />
<path d="M826.5,1025.5l0,-1" class="g3_9" />
<path d="M463.5,1086.5l0,-1" class="g3_9" />
<path d="M463.5,1086.5l364,0" class="g2_9" />
<path d="M826.5,1086.5l0,-1" class="g2_9" />
<path d="M463.5,1085.5l0,-60" class="g3_9" />
<path d="M826.5,1085.5l0,-60" class="g2_9" />
<path d="M462.5,1088.5l367,0" class="g3_9" />
<path d="M829.5,1088.5l0,-62" class="g3_9" />
<path d="M829.5,1088.5l0,-1" class="g3_9" />
</svg>