<?xml version="1.0" encoding="UTF-8" standalone="no"?>
<!DOCTYPE svg PUBLIC "-//W3C//DTD SVG 1.1//EN"
"http://www.w3.org/Graphics/SVG/1.1/DTD/svg11.dtd">
<svg version="1.1" xmlns="http://www.w3.org/2000/svg" xmlns:xlink="http://www.w3.org/1999/xlink">
<defs>
<style type="text/css"><![CDATA[
.g1_125{
fill: none;
stroke: #EFEFEF;
stroke-width: 1;
stroke-linecap: butt;
stroke-linejoin: miter;
}
.g2_125{
fill: none;
stroke: #A0A0A0;
stroke-width: 1;
stroke-linecap: butt;
stroke-linejoin: miter;
}
]]></style>
</defs>
<path d="M100.5,700.5l0,-10" class="g1_125" />
<path d="M100.5,691.5l733,0" class="g1_125" />
<path d="M833.5,700.5l0,-10" class="g2_125" />
<path d="M833.5,691.5l0,-1" class="g1_125" />
<path d="M103.5,695.5l0,-2" class="g2_125" />
<path d="M103.5,695.5l119,0" class="g2_125" />
<path d="M222.5,695.5l0,-2" class="g1_125" />
<path d="M222.5,695.5l0,-2" class="g2_125" />
<path d="M103.5,744.5l0,-1" class="g2_125" />
<path d="M103.5,744.5l120,0" class="g1_125" />
<path d="M222.5,744.5l0,-1" class="g1_125" />
<path d="M103.5,743.5l0,-48" class="g2_125" />
<path d="M222.5,743.5l0,-48" class="g1_125" />
<path d="M100.5,745.5l0,-45" class="g1_125" />
<path d="M225.5,695.5l0,-2" class="g2_125" />
<path d="M225.5,695.5l186,0" class="g2_125" />
<path d="M411.5,695.5l0,-2" class="g1_125" />
<path d="M411.5,695.5l0,-2" class="g2_125" />
<path d="M225.5,744.5l0,-1" class="g2_125" />
<path d="M225.5,744.5l187,0" class="g1_125" />
<path d="M411.5,744.5l0,-1" class="g1_125" />
<path d="M225.5,743.5l0,-48" class="g2_125" />
<path d="M411.5,743.5l0,-48" class="g1_125" />
<path d="M414.5,695.5l0,-2" class="g2_125" />
<path d="M414.5,695.5l108,0" class="g2_125" />
<path d="M522.5,695.5l0,-2" class="g1_125" />
<path d="M522.5,695.5l0,-2" class="g2_125" />
<path d="M414.5,744.5l0,-1" class="g2_125" />
<path d="M414.5,744.5l109,0" class="g1_125" />
<path d="M522.5,744.5l0,-1" class="g1_125" />
<path d="M414.5,743.5l0,-48" class="g2_125" />
<path d="M522.5,743.5l0,-48" class="g1_125" />
<path d="M525.5,695.5l0,-2" class="g2_125" />
<path d="M525.5,695.5l80,0" class="g2_125" />
<path d="M605.5,695.5l0,-2" class="g1_125" />
<path d="M605.5,695.5l0,-2" class="g2_125" />
<path d="M525.5,744.5l0,-1" class="g2_125" />
<path d="M525.5,744.5l81,0" class="g1_125" />
<path d="M605.5,744.5l0,-1" class="g1_125" />
<path d="M525.5,743.5l0,-48" class="g2_125" />
<path d="M605.5,743.5l0,-48" class="g1_125" />
<path d="M608.5,695.5l0,-2" class="g2_125" />
<path d="M608.5,695.5l92,0" class="g2_125" />
<path d="M700.5,695.5l0,-2" class="g1_125" />
<path d="M700.5,695.5l0,-2" class="g2_125" />
<path d="M608.5,744.5l0,-1" class="g2_125" />
<path d="M608.5,744.5l93,0" class="g1_125" />
<path d="M700.5,744.5l0,-1" class="g1_125" />
<path d="M608.5,743.5l0,-48" class="g2_125" />
<path d="M700.5,743.5l0,-48" class="g1_125" />
<path d="M703.5,695.5l0,-2" class="g2_125" />
<path d="M703.5,695.5l127,0" class="g2_125" />
<path d="M830.5,695.5l0,-2" class="g1_125" />
<path d="M830.5,695.5l0,-2" class="g2_125" />
<path d="M703.5,744.5l0,-1" class="g2_125" />
<path d="M703.5,744.5l128,0" class="g1_125" />
<path d="M830.5,744.5l0,-1" class="g1_125" />
<path d="M703.5,743.5l0,-48" class="g2_125" />
<path d="M830.5,743.5l0,-48" class="g1_125" />
<path d="M833.5,745.5l0,-45" class="g2_125" />
<path d="M100.5,753.5l0,-8" class="g1_125" />
<path d="M833.5,753.5l0,-8" class="g2_125" />
<path d="M103.5,747.5l0,-1" class="g2_125" />
<path d="M103.5,747.5l119,0" class="g2_125" />
<path d="M222.5,747.5l0,-1" class="g1_125" />
<path d="M222.5,747.5l0,-1" class="g2_125" />
<path d="M103.5,796.5l0,-1" class="g2_125" />
<path d="M103.5,796.5l120,0" class="g1_125" />
<path d="M222.5,796.5l0,-1" class="g1_125" />
<path d="M103.5,795.5l0,-48" class="g2_125" />
<path d="M222.5,795.5l0,-48" class="g1_125" />
<path d="M100.5,798.5l0,-45" class="g1_125" />
<path d="M225.5,747.5l0,-1" class="g2_125" />
<path d="M225.5,747.5l186,0" class="g2_125" />
<path d="M411.5,747.5l0,-1" class="g1_125" />
<path d="M411.5,747.5l0,-1" class="g2_125" />
<path d="M225.5,796.5l0,-1" class="g2_125" />
<path d="M225.5,796.5l187,0" class="g1_125" />
<path d="M411.5,796.5l0,-1" class="g1_125" />
<path d="M225.5,795.5l0,-48" class="g2_125" />
<path d="M411.5,795.5l0,-48" class="g1_125" />
<path d="M414.5,747.5l0,-1" class="g2_125" />
<path d="M414.5,747.5l108,0" class="g2_125" />
<path d="M522.5,747.5l0,-1" class="g1_125" />
<path d="M522.5,747.5l0,-1" class="g2_125" />
<path d="M414.5,796.5l0,-1" class="g2_125" />
<path d="M414.5,796.5l109,0" class="g1_125" />
<path d="M522.5,796.5l0,-1" class="g1_125" />
<path d="M414.5,795.5l0,-48" class="g2_125" />
<path d="M522.5,795.5l0,-48" class="g1_125" />
<path d="M525.5,747.5l0,-1" class="g2_125" />
<path d="M525.5,747.5l80,0" class="g2_125" />
<path d="M605.5,747.5l0,-1" class="g1_125" />
<path d="M605.5,747.5l0,-1" class="g2_125" />
<path d="M525.5,796.5l0,-1" class="g2_125" />
<path d="M525.5,796.5l81,0" class="g1_125" />
<path d="M605.5,796.5l0,-1" class="g1_125" />
<path d="M525.5,795.5l0,-48" class="g2_125" />
<path d="M605.5,795.5l0,-48" class="g1_125" />
<path d="M608.5,747.5l0,-1" class="g2_125" />
<path d="M608.5,747.5l92,0" class="g2_125" />
<path d="M700.5,747.5l0,-1" class="g1_125" />
<path d="M700.5,747.5l0,-1" class="g2_125" />
<path d="M608.5,796.5l0,-1" class="g2_125" />
<path d="M608.5,796.5l93,0" class="g1_125" />
<path d="M700.5,796.5l0,-1" class="g1_125" />
<path d="M608.5,795.5l0,-48" class="g2_125" />
<path d="M700.5,795.5l0,-48" class="g1_125" />
<path d="M703.5,747.5l0,-1" class="g2_125" />
<path d="M703.5,747.5l127,0" class="g2_125" />
<path d="M830.5,747.5l0,-1" class="g1_125" />
<path d="M830.5,747.5l0,-1" class="g2_125" />
<path d="M703.5,796.5l0,-1" class="g2_125" />
<path d="M703.5,796.5l128,0" class="g1_125" />
<path d="M830.5,796.5l0,-1" class="g1_125" />
<path d="M703.5,795.5l0,-48" class="g2_125" />
<path d="M830.5,795.5l0,-48" class="g1_125" />
<path d="M833.5,798.5l0,-45" class="g2_125" />
<path d="M100.5,806.5l0,-8" class="g1_125" />
<path d="M833.5,806.5l0,-8" class="g2_125" />
<path d="M103.5,800.5l0,-1" class="g2_125" />
<path d="M103.5,800.5l119,0" class="g2_125" />
<path d="M222.5,800.5l0,-1" class="g1_125" />
<path d="M222.5,800.5l0,-1" class="g2_125" />
<path d="M103.5,830.5l0,-1" class="g2_125" />
<path d="M103.5,830.5l120,0" class="g1_125" />
<path d="M222.5,830.5l0,-1" class="g1_125" />
<path d="M103.5,829.5l0,-29" class="g2_125" />
<path d="M222.5,829.5l0,-29" class="g1_125" />
<path d="M100.5,834.5l0,-28" class="g1_125" />
<path d="M100.5,834.5l124,0" class="g2_125" />
<path d="M225.5,800.5l0,-1" class="g2_125" />
<path d="M225.5,800.5l186,0" class="g2_125" />
<path d="M411.5,800.5l0,-1" class="g1_125" />
<path d="M411.5,800.5l0,-1" class="g2_125" />
<path d="M225.5,830.5l0,-1" class="g2_125" />
<path d="M225.5,830.5l187,0" class="g1_125" />
<path d="M411.5,830.5l0,-1" class="g1_125" />
<path d="M225.5,829.5l0,-29" class="g2_125" />
<path d="M411.5,829.5l0,-29" class="g1_125" />
<path d="M224.5,834.5l189,0" class="g2_125" />
<path d="M414.5,800.5l0,-1" class="g2_125" />
<path d="M414.5,800.5l108,0" class="g2_125" />
<path d="M522.5,800.5l0,-1" class="g1_125" />
<path d="M522.5,800.5l0,-1" class="g2_125" />
<path d="M414.5,830.5l0,-1" class="g2_125" />
<path d="M414.5,830.5l109,0" class="g1_125" />
<path d="M522.5,830.5l0,-1" class="g1_125" />
<path d="M414.5,829.5l0,-29" class="g2_125" />
<path d="M522.5,829.5l0,-29" class="g1_125" />
<path d="M413.5,834.5l111,0" class="g2_125" />
<path d="M525.5,800.5l0,-1" class="g2_125" />
<path d="M525.5,800.5l80,0" class="g2_125" />
<path d="M605.5,800.5l0,-1" class="g1_125" />
<path d="M605.5,800.5l0,-1" class="g2_125" />
<path d="M525.5,830.5l0,-1" class="g2_125" />
<path d="M525.5,830.5l81,0" class="g1_125" />
<path d="M605.5,830.5l0,-1" class="g1_125" />
<path d="M525.5,829.5l0,-29" class="g2_125" />
<path d="M605.5,829.5l0,-29" class="g1_125" />
<path d="M524.5,834.5l83,0" class="g2_125" />
<path d="M608.5,800.5l0,-1" class="g2_125" />
<path d="M608.5,800.5l92,0" class="g2_125" />
<path d="M700.5,800.5l0,-1" class="g1_125" />
<path d="M700.5,800.5l0,-1" class="g2_125" />
<path d="M608.5,830.5l0,-1" class="g2_125" />
<path d="M608.5,830.5l93,0" class="g1_125" />
<path d="M700.5,830.5l0,-1" class="g1_125" />
<path d="M608.5,829.5l0,-29" class="g2_125" />
<path d="M700.5,829.5l0,-29" class="g1_125" />
<path d="M607.5,834.5l95,0" class="g2_125" />
<path d="M703.5,800.5l0,-1" class="g2_125" />
<path d="M703.5,800.5l127,0" class="g2_125" />
<path d="M830.5,800.5l0,-1" class="g1_125" />
<path d="M830.5,800.5l0,-1" class="g2_125" />
<path d="M703.5,830.5l0,-1" class="g2_125" />
<path d="M703.5,830.5l128,0" class="g1_125" />
<path d="M830.5,830.5l0,-1" class="g1_125" />
<path d="M703.5,829.5l0,-29" class="g2_125" />
<path d="M830.5,829.5l0,-29" class="g1_125" />
<path d="M702.5,834.5l131,0" class="g2_125" />
<path d="M833.5,834.5l0,-28" class="g2_125" />
<path d="M833.5,834.5l0,-1" class="g2_125" />
<path d="M243.5,1087.5l0,-10" class="g1_125" />
<path d="M243.5,1078.5l447,0" class="g1_125" />
<path d="M690.5,1087.5l0,-10" class="g2_125" />
<path d="M690.5,1078.5l0,-1" class="g1_125" />
<path d="M246.5,1081.5l0,-1" class="g2_125" />
<path d="M246.5,1081.5l200,0" class="g2_125" />
<path d="M446.5,1081.5l0,-1" class="g1_125" />
<path d="M446.5,1081.5l0,-1" class="g2_125" />
<path d="M246.5,1130.5l0,-2" class="g2_125" />
<path d="M246.5,1130.5l201,0" class="g1_125" />
<path d="M446.5,1130.5l0,-2" class="g1_125" />
<path d="M246.5,1128.5l0,-47" class="g2_125" />
<path d="M446.5,1128.5l0,-47" class="g1_125" />
<path d="M243.5,1132.5l0,-45" class="g1_125" />
<path d="M243.5,1132.5l205,0" class="g2_125" />
<path d="M450.5,1081.5l0,-1" class="g2_125" />
<path d="M450.5,1081.5l237,0" class="g2_125" />
<path d="M687.5,1081.5l0,-1" class="g1_125" />
<path d="M687.5,1081.5l0,-1" class="g2_125" />
<path d="M450.5,1130.5l0,-2" class="g2_125" />
<path d="M450.5,1130.5l238,0" class="g1_125" />
<path d="M687.5,1130.5l0,-2" class="g1_125" />
<path d="M450.5,1128.5l0,-47" class="g2_125" />
<path d="M687.5,1128.5l0,-47" class="g1_125" />
<path d="M448.5,1132.5l242,0" class="g2_125" />
<path d="M690.5,1132.5l0,-45" class="g2_125" />
<path d="M690.5,1132.5l0,-1" class="g2_125" />
</svg>