<?xml version="1.0" encoding="UTF-8" standalone="no"?>
<!DOCTYPE svg PUBLIC "-//W3C//DTD SVG 1.1//EN"
"http://www.w3.org/Graphics/SVG/1.1/DTD/svg11.dtd">
<svg version="1.1" xmlns="http://www.w3.org/2000/svg" xmlns:xlink="http://www.w3.org/1999/xlink">
<defs>
<style type="text/css"><![CDATA[
.g1_78{
fill: none;
stroke: #EFEFEF;
stroke-width: 1;
stroke-linecap: butt;
stroke-linejoin: miter;
}
.g2_78{
fill: none;
stroke: #A0A0A0;
stroke-width: 1;
stroke-linecap: butt;
stroke-linejoin: miter;
}
]]></style>
</defs>
<path d="M104.5,103.5l0,-6" class="g1_78" />
<path d="M104.5,98.5l505,0" class="g1_78" />
<path d="M609.5,98.5l118,0" class="g1_78" />
<path d="M727.5,98.5l102,0" class="g1_78" />
<path d="M829.5,103.5l0,-6" class="g2_78" />
<path d="M829.5,98.5l0,-1" class="g1_78" />
<path d="M107.5,102.5l0,-1" class="g2_78" />
<path d="M107.5,102.5l116,0" class="g2_78" />
<path d="M223.5,102.5l0,-1" class="g1_78" />
<path d="M223.5,102.5l0,-1" class="g2_78" />
<path d="M107.5,123.5l0,-1" class="g2_78" />
<path d="M107.5,123.5l117,0" class="g1_78" />
<path d="M223.5,123.5l0,-1" class="g1_78" />
<path d="M107.5,122.5l0,-20" class="g2_78" />
<path d="M223.5,122.5l0,-20" class="g1_78" />
<path d="M104.5,124.5l0,-21" class="g1_78" />
<path d="M227.5,102.5l0,-1" class="g2_78" />
<path d="M227.5,102.5l114,0" class="g2_78" />
<path d="M341.5,102.5l0,-1" class="g1_78" />
<path d="M341.5,102.5l0,-1" class="g2_78" />
<path d="M227.5,124.5l0,-22" class="g2_78" />
<path d="M341.5,124.5l0,-22" class="g1_78" />
<path d="M344.5,102.5l0,-1" class="g2_78" />
<path d="M344.5,102.5l142,0" class="g2_78" />
<path d="M486.5,102.5l0,-1" class="g1_78" />
<path d="M486.5,102.5l0,-1" class="g2_78" />
<path d="M344.5,123.5l0,-1" class="g2_78" />
<path d="M344.5,123.5l143,0" class="g1_78" />
<path d="M486.5,123.5l0,-1" class="g1_78" />
<path d="M344.5,122.5l0,-20" class="g2_78" />
<path d="M486.5,122.5l0,-20" class="g1_78" />
<path d="M490.5,102.5l0,-1" class="g2_78" />
<path d="M490.5,102.5l116,0" class="g2_78" />
<path d="M606.5,102.5l0,-1" class="g1_78" />
<path d="M606.5,102.5l0,-1" class="g2_78" />
<path d="M490.5,123.5l0,-1" class="g2_78" />
<path d="M490.5,123.5l117,0" class="g1_78" />
<path d="M606.5,123.5l0,-1" class="g1_78" />
<path d="M490.5,122.5l0,-20" class="g2_78" />
<path d="M606.5,122.5l0,-20" class="g1_78" />
<path d="M609.5,102.5l0,-1" class="g2_78" />
<path d="M609.5,102.5l116,0" class="g2_78" />
<path d="M725.5,102.5l0,-1" class="g1_78" />
<path d="M725.5,102.5l0,-1" class="g2_78" />
<path d="M609.5,123.5l0,-1" class="g2_78" />
<path d="M609.5,123.5l117,0" class="g1_78" />
<path d="M725.5,123.5l0,-1" class="g1_78" />
<path d="M609.5,122.5l0,-20" class="g2_78" />
<path d="M725.5,122.5l0,-20" class="g1_78" />
<path d="M729.5,102.5l0,-1" class="g2_78" />
<path d="M729.5,102.5l97,0" class="g2_78" />
<path d="M826.5,102.5l0,-1" class="g1_78" />
<path d="M826.5,102.5l0,-1" class="g2_78" />
<path d="M729.5,123.5l0,-1" class="g2_78" />
<path d="M729.5,123.5l98,0" class="g1_78" />
<path d="M826.5,123.5l0,-1" class="g1_78" />
<path d="M729.5,122.5l0,-20" class="g2_78" />
<path d="M826.5,122.5l0,-20" class="g1_78" />
<path d="M829.5,124.5l0,-21" class="g2_78" />
<path d="M104.5,128.5l0,-4" class="g1_78" />
<path d="M829.5,128.5l0,-4" class="g2_78" />
<path d="M107.5,127.5l0,-1" class="g2_78" />
<path d="M107.5,127.5l116,0" class="g2_78" />
<path d="M223.5,127.5l0,-1" class="g1_78" />
<path d="M223.5,127.5l0,-1" class="g2_78" />
<path d="M107.5,148.5l0,-1" class="g2_78" />
<path d="M107.5,148.5l117,0" class="g1_78" />
<path d="M223.5,148.5l0,-1" class="g1_78" />
<path d="M107.5,147.5l0,-20" class="g2_78" />
<path d="M223.5,147.5l0,-20" class="g1_78" />
<path d="M104.5,149.5l0,-21" class="g1_78" />
<path d="M227.5,149.5l0,-25" class="g2_78" />
<path d="M341.5,149.5l0,-25" class="g1_78" />
<path d="M344.5,127.5l0,-1" class="g2_78" />
<path d="M344.5,127.5l142,0" class="g2_78" />
<path d="M486.5,127.5l0,-1" class="g1_78" />
<path d="M486.5,127.5l0,-1" class="g2_78" />
<path d="M344.5,148.5l0,-1" class="g2_78" />
<path d="M344.5,148.5l143,0" class="g1_78" />
<path d="M486.5,148.5l0,-1" class="g1_78" />
<path d="M344.5,147.5l0,-20" class="g2_78" />
<path d="M486.5,147.5l0,-20" class="g1_78" />
<path d="M490.5,127.5l0,-1" class="g2_78" />
<path d="M490.5,127.5l116,0" class="g2_78" />
<path d="M606.5,127.5l0,-1" class="g1_78" />
<path d="M606.5,127.5l0,-1" class="g2_78" />
<path d="M490.5,148.5l0,-1" class="g2_78" />
<path d="M490.5,148.5l117,0" class="g1_78" />
<path d="M606.5,148.5l0,-1" class="g1_78" />
<path d="M490.5,147.5l0,-20" class="g2_78" />
<path d="M606.5,147.5l0,-20" class="g1_78" />
<path d="M609.5,127.5l0,-1" class="g2_78" />
<path d="M609.5,127.5l116,0" class="g2_78" />
<path d="M725.5,127.5l0,-1" class="g1_78" />
<path d="M725.5,127.5l0,-1" class="g2_78" />
<path d="M609.5,148.5l0,-1" class="g2_78" />
<path d="M609.5,148.5l117,0" class="g1_78" />
<path d="M725.5,148.5l0,-1" class="g1_78" />
<path d="M609.5,147.5l0,-20" class="g2_78" />
<path d="M725.5,147.5l0,-20" class="g1_78" />
<path d="M729.5,127.5l0,-1" class="g2_78" />
<path d="M729.5,127.5l97,0" class="g2_78" />
<path d="M826.5,127.5l0,-1" class="g1_78" />
<path d="M826.5,127.5l0,-1" class="g2_78" />
<path d="M729.5,148.5l0,-1" class="g2_78" />
<path d="M729.5,148.5l98,0" class="g1_78" />
<path d="M826.5,148.5l0,-1" class="g1_78" />
<path d="M729.5,147.5l0,-20" class="g2_78" />
<path d="M826.5,147.5l0,-20" class="g1_78" />
<path d="M829.5,149.5l0,-21" class="g2_78" />
<path d="M104.5,153.5l0,-4" class="g1_78" />
<path d="M829.5,153.5l0,-4" class="g2_78" />
<path d="M107.5,152.5l0,-2" class="g2_78" />
<path d="M107.5,152.5l116,0" class="g2_78" />
<path d="M223.5,152.5l0,-2" class="g1_78" />
<path d="M223.5,152.5l0,-2" class="g2_78" />
<path d="M107.5,173.5l0,-1" class="g2_78" />
<path d="M107.5,173.5l117,0" class="g1_78" />
<path d="M223.5,173.5l0,-1" class="g1_78" />
<path d="M107.5,172.5l0,-20" class="g2_78" />
<path d="M223.5,172.5l0,-20" class="g1_78" />
<path d="M104.5,176.5l0,-23" class="g1_78" />
<path d="M104.5,176.5l121,0" class="g2_78" />
<path d="M227.5,173.5l0,-1" class="g2_78" />
<path d="M227.5,173.5l115,0" class="g1_78" />
<path d="M341.5,173.5l0,-1" class="g1_78" />
<path d="M227.5,172.5l0,-23" class="g2_78" />
<path d="M341.5,172.5l0,-23" class="g1_78" />
<path d="M225.5,176.5l118,0" class="g2_78" />
<path d="M344.5,152.5l0,-2" class="g2_78" />
<path d="M344.5,152.5l142,0" class="g2_78" />
<path d="M486.5,152.5l0,-2" class="g1_78" />
<path d="M486.5,152.5l0,-2" class="g2_78" />
<path d="M344.5,173.5l0,-1" class="g2_78" />
<path d="M344.5,173.5l143,0" class="g1_78" />
<path d="M486.5,173.5l0,-1" class="g1_78" />
<path d="M344.5,172.5l0,-20" class="g2_78" />
<path d="M486.5,172.5l0,-20" class="g1_78" />
<path d="M343.5,176.5l146,0" class="g2_78" />
<path d="M490.5,152.5l0,-2" class="g2_78" />
<path d="M490.5,152.5l116,0" class="g2_78" />
<path d="M606.5,152.5l0,-2" class="g1_78" />
<path d="M606.5,152.5l0,-2" class="g2_78" />
<path d="M490.5,173.5l0,-1" class="g2_78" />
<path d="M490.5,173.5l117,0" class="g1_78" />
<path d="M606.5,173.5l0,-1" class="g1_78" />
<path d="M490.5,172.5l0,-20" class="g2_78" />
<path d="M606.5,172.5l0,-20" class="g1_78" />
<path d="M489.5,176.5l119,0" class="g2_78" />
<path d="M609.5,152.5l0,-2" class="g2_78" />
<path d="M609.5,152.5l116,0" class="g2_78" />
<path d="M725.5,152.5l0,-2" class="g1_78" />
<path d="M725.5,152.5l0,-2" class="g2_78" />
<path d="M609.5,173.5l0,-1" class="g2_78" />
<path d="M609.5,173.5l117,0" class="g1_78" />
<path d="M725.5,173.5l0,-1" class="g1_78" />
<path d="M609.5,172.5l0,-20" class="g2_78" />
<path d="M725.5,172.5l0,-20" class="g1_78" />
<path d="M608.5,176.5l0,-1" class="g2_78" />
<path d="M609.5,176.5l118,0" class="g2_78" />
<path d="M729.5,152.5l0,-2" class="g2_78" />
<path d="M729.5,152.5l97,0" class="g2_78" />
<path d="M826.5,152.5l0,-2" class="g1_78" />
<path d="M826.5,152.5l0,-2" class="g2_78" />
<path d="M729.5,173.5l0,-1" class="g2_78" />
<path d="M729.5,173.5l98,0" class="g1_78" />
<path d="M826.5,173.5l0,-1" class="g1_78" />
<path d="M729.5,172.5l0,-20" class="g2_78" />
<path d="M826.5,172.5l0,-20" class="g1_78" />
<path d="M727.5,176.5l102,0" class="g2_78" />
<path d="M829.5,176.5l0,-23" class="g2_78" />
<path d="M829.5,176.5l0,-1" class="g2_78" />
</svg>