<?xml version="1.0" encoding="UTF-8" standalone="no"?>
<!DOCTYPE svg PUBLIC "-//W3C//DTD SVG 1.1//EN"
"http://www.w3.org/Graphics/SVG/1.1/DTD/svg11.dtd">
<svg version="1.1" xmlns="http://www.w3.org/2000/svg" xmlns:xlink="http://www.w3.org/1999/xlink">
<defs>
<style type="text/css"><![CDATA[
.g4_170{
fill: none;
stroke: #EFEFEF;
stroke-width: 1;
stroke-linecap: butt;
stroke-linejoin: miter;
}
.g2_170{
fill: #A0A0A0;
}
.g1_170{
fill: #EFEFEF;
}
.g5_170{
fill: #FFFFFF;
}
.g3_170{
fill: none;
stroke: #A0A0A0;
stroke-width: 1;
stroke-linecap: butt;
stroke-linejoin: miter;
}
]]></style>
</defs>
<image x="296.363" y="48.666" width="10" height="2" xlink:href="img/1.png" transform="scale(1.1 , 1.5)" />
<image x="325" y="75" width="12" height="2" xlink:href="img/2.png" />
<image x="324" y="76" width="13" height="2" xlink:href="img/3.png" />
<image x="320" y="77" width="2" height="2" xlink:href="img/4.png" />
<image x="323" y="77" width="14" height="2" xlink:href="img/5.png" />
<image x="319" y="78" width="18" height="2" xlink:href="img/6.png" />
<image x="300.315" y="52.666" width="18" height="2" xlink:href="img/7.png" transform="scale(1.055 , 1.5)" />
<image x="310" y="81" width="3" height="2" xlink:href="img/8.png" />
<image x="317" y="81" width="18" height="2" xlink:href="img/9.png" />
<image x="309" y="82" width="5" height="2" xlink:href="img/10.png" />
<image x="317" y="82" width="16" height="2" xlink:href="img/11.png" />
<image x="309" y="83" width="4" height="2" xlink:href="img/12.png" />
<image x="319" y="83" width="11" height="2" xlink:href="img/13.png" />
<image x="255.833" y="84" width="5" height="2" xlink:href="img/14.png" transform="scale(1.2 , 1)" />
<image x="319" y="84" width="8" height="2" xlink:href="img/15.png" />
<image x="255.833" y="85" width="5" height="2" xlink:href="img/16.png" transform="scale(1.2 , 1)" />
<image x="319" y="85" width="6" height="2" xlink:href="img/17.png" />
<image x="255.833" y="57.333" width="5" height="2" xlink:href="img/18.png" transform="scale(1.2 , 1.5)" />
<image x="264.166" y="57.333" width="5" height="2" xlink:href="img/19.png" transform="scale(1.2 , 1.5)" />
<image x="307" y="88" width="16" height="3" xlink:href="img/20.png" />
<image x="307" y="90" width="15" height="2" xlink:href="img/21.png" />
<image x="309" y="91" width="12" height="2" xlink:href="img/22.png" />
<image x="310" y="61.333" width="9" height="2" xlink:href="img/23.png" transform="scale(1 , 1.5)" />
<path d="M217,71l7,0l0,-16l-7,0l0,16Z" class="g1_170" />
<path d="M217,61l493,0l0,-6L217,55l0,6Z" class="g1_170" />
<path d="M710,71l7,0l0,-16l-7,0l0,16Z" class="g2_170" />
<path d="M710,61l7,0l0,-6l-7,0l0,6Z" class="g1_170" />
<path d="M226.5,65.5l0,-1" class="g3_170" />
<path d="M226.5,65.5l54,0" class="g3_170" />
<path d="M280.5,65.5l0,-1" class="g4_170" />
<path d="M280.5,65.5l0,-1" class="g3_170" />
<path d="M226.5,102.5l0,-1" class="g3_170" />
<path d="M226.5,102.5l55,0" class="g4_170" />
<path d="M280.5,102.5l0,-1" class="g4_170" />
<path d="M226.5,101.5l0,-36" class="g3_170" />
<path d="M280.5,101.5l0,-36" class="g4_170" />
<path d="M217,105l7,0l0,-34l-7,0l0,34Z" class="g1_170" />
<path d="M286.5,65.5l0,-1" class="g3_170" />
<path d="M286.5,65.5l67,0" class="g3_170" />
<path d="M353.5,65.5l0,-1" class="g4_170" />
<path d="M353.5,65.5l0,-1" class="g3_170" />
<path d="M286.5,102.5l0,-1" class="g3_170" />
<path d="M286.5,102.5l68,0" class="g4_170" />
<path d="M353.5,102.5l0,-1" class="g4_170" />
<path d="M286.5,101.5l0,-36" class="g3_170" />
<path d="M353.5,101.5l0,-36" class="g4_170" />
<path d="M360.5,65.5l0,-1" class="g3_170" />
<path d="M360.5,65.5l347,0" class="g3_170" />
<path d="M707.5,65.5l0,-1" class="g4_170" />
<path d="M707.5,65.5l0,-1" class="g3_170" />
<path d="M360.5,102.5l0,-1" class="g3_170" />
<path d="M360.5,102.5l348,0" class="g4_170" />
<path d="M707.5,102.5l0,-1" class="g4_170" />
<path d="M360.5,101.5l0,-36" class="g3_170" />
<path d="M707.5,101.5l0,-36" class="g4_170" />
<path d="M710,105l7,0l0,-34l-7,0l0,34Z" class="g2_170" />
<image x="305" y="114" width="31" height="33" xlink:href="img/24.png" />
<path d="M217,115l7,0l0,-10l-7,0l0,10Z" class="g1_170" />
<path d="M710,115l7,0l0,-10l-7,0l0,10Z" class="g2_170" />
<path d="M226.5,109.5l0,-1" class="g3_170" />
<path d="M226.5,109.5l54,0" class="g3_170" />
<path d="M280.5,109.5l0,-1" class="g4_170" />
<path d="M280.5,109.5l0,-1" class="g3_170" />
<path d="M226.5,151.5l0,-1" class="g3_170" />
<path d="M226.5,151.5l55,0" class="g4_170" />
<path d="M280.5,151.5l0,-1" class="g4_170" />
<path d="M226.5,150.5l0,-41" class="g3_170" />
<path d="M280.5,150.5l0,-41" class="g4_170" />
<path d="M217,154l7,0l0,-39l-7,0l0,39Z" class="g1_170" />
<path d="M286.5,109.5l0,-1" class="g3_170" />
<path d="M286.5,109.5l67,0" class="g3_170" />
<path d="M353.5,109.5l0,-1" class="g4_170" />
<path d="M353.5,109.5l0,-1" class="g3_170" />
<path d="M286.5,151.5l0,-1" class="g3_170" />
<path d="M286.5,151.5l68,0" class="g4_170" />
<path d="M353.5,151.5l0,-1" class="g4_170" />
<path d="M286.5,150.5l0,-41" class="g3_170" />
<path d="M353.5,150.5l0,-41" class="g4_170" />
<path d="M360.5,109.5l0,-1" class="g3_170" />
<path d="M360.5,109.5l347,0" class="g3_170" />
<path d="M707.5,109.5l0,-1" class="g4_170" />
<path d="M707.5,109.5l0,-1" class="g3_170" />
<path d="M360.5,151.5l0,-1" class="g3_170" />
<path d="M360.5,151.5l348,0" class="g4_170" />
<path d="M707.5,151.5l0,-1" class="g4_170" />
<path d="M360.5,150.5l0,-41" class="g3_170" />
<path d="M707.5,150.5l0,-41" class="g4_170" />
<path d="M710,154l7,0l0,-39l-7,0l0,39Z" class="g2_170" />
<image x="319" y="166" width="3" height="2" xlink:href="img/25.png" />
<image x="270.857" y="167" width="6" height="2" xlink:href="img/26.png" transform="scale(1.166 , 1)" />
<image x="276.5" y="168" width="6.999" height="4" xlink:href="img/27.png" transform="scale(1.142 , 1)" />
<image x="270.857" y="171" width="6" height="5" xlink:href="img/28.png" transform="scale(1.166 , 1)" />
<image x="324" y="174" width="5" height="2" xlink:href="img/29.png" />
<image x="316" y="176" width="16" height="3" xlink:href="img/30.png" />
<image x="319" y="178" width="13" height="3" xlink:href="img/31.png" />
<image x="319" y="180" width="6" height="2" xlink:href="img/32.png" />
<image x="278.571" y="180" width="6" height="2" xlink:href="img/33.png" transform="scale(1.166 , 1)" />
<image x="311" y="181" width="21" height="2" xlink:href="img/34.png" />
<image x="311" y="182" width="19" height="2" xlink:href="img/35.png" />
<image x="312" y="183" width="17" height="2" xlink:href="img/36.png" />
<image x="313" y="184" width="14" height="3" xlink:href="img/37.png" />
<image x="285.454" y="124" width="10" height="2" xlink:href="img/38.png" transform="scale(1.1 , 1.5)" />
<path d="M217,164l7,0l0,-10l-7,0l0,10Z" class="g1_170" />
<path d="M710,164l7,0l0,-10l-7,0l0,10Z" class="g2_170" />
<path d="M226.5,158.5l0,-1" class="g3_170" />
<path d="M226.5,158.5l54,0" class="g3_170" />
<path d="M280.5,158.5l0,-1" class="g4_170" />
<path d="M280.5,158.5l0,-1" class="g3_170" />
<path d="M226.5,196.5l0,-1" class="g3_170" />
<path d="M226.5,196.5l55,0" class="g4_170" />
<path d="M280.5,196.5l0,-1" class="g4_170" />
<path d="M226.5,195.5l0,-37" class="g3_170" />
<path d="M280.5,195.5l0,-37" class="g4_170" />
<path d="M217,199l7,0l0,-35l-7,0l0,35Z" class="g1_170" />
<path d="M286.5,158.5l0,-1" class="g3_170" />
<path d="M286.5,158.5l67,0" class="g3_170" />
<path d="M353.5,158.5l0,-1" class="g4_170" />
<path d="M353.5,158.5l0,-1" class="g3_170" />
<path d="M286.5,196.5l0,-1" class="g3_170" />
<path d="M286.5,196.5l68,0" class="g4_170" />
<path d="M353.5,196.5l0,-1" class="g4_170" />
<path d="M286.5,195.5l0,-37" class="g3_170" />
<path d="M353.5,195.5l0,-37" class="g4_170" />
<path d="M360.5,158.5l0,-1" class="g3_170" />
<path d="M360.5,158.5l347,0" class="g3_170" />
<path d="M707.5,158.5l0,-1" class="g4_170" />
<path d="M707.5,158.5l0,-1" class="g3_170" />
<path d="M360.5,196.5l0,-1" class="g3_170" />
<path d="M360.5,196.5l348,0" class="g4_170" />
<path d="M707.5,196.5l0,-1" class="g4_170" />
<path d="M360.5,195.5l0,-37" class="g3_170" />
<path d="M707.5,195.5l0,-37" class="g4_170" />
<path d="M710,199l7,0l0,-35l-7,0l0,35Z" class="g2_170" />
<image x="306" y="207" width="29" height="26" xlink:href="img/39.png" />
<path d="M217,208l7,0l0,-9l-7,0l0,9Z" class="g1_170" />
<path d="M710,208l7,0l0,-9l-7,0l0,9Z" class="g2_170" />
<path d="M226.5,203.5l0,-2" class="g3_170" />
<path d="M226.5,203.5l54,0" class="g3_170" />
<path d="M280.5,203.5l0,-2" class="g4_170" />
<path d="M280.5,203.5l0,-2" class="g3_170" />
<path d="M226.5,238.5l0,-1" class="g3_170" />
<path d="M226.5,238.5l55,0" class="g4_170" />
<path d="M280.5,238.5l0,-1" class="g4_170" />
<path d="M226.5,237.5l0,-34" class="g3_170" />
<path d="M280.5,237.5l0,-34" class="g4_170" />
<path d="M217,241l7,0l0,-33l-7,0l0,33Z" class="g1_170" />
<path d="M286.5,203.5l0,-2" class="g3_170" />
<path d="M286.5,203.5l67,0" class="g3_170" />
<path d="M353.5,203.5l0,-2" class="g4_170" />
<path d="M353.5,203.5l0,-2" class="g3_170" />
<path d="M286.5,238.5l0,-1" class="g3_170" />
<path d="M286.5,238.5l68,0" class="g4_170" />
<path d="M353.5,238.5l0,-1" class="g4_170" />
<path d="M286.5,237.5l0,-34" class="g3_170" />
<path d="M353.5,237.5l0,-34" class="g4_170" />
<path d="M360.5,203.5l0,-2" class="g3_170" />
<path d="M360.5,203.5l347,0" class="g3_170" />
<path d="M707.5,203.5l0,-2" class="g4_170" />
<path d="M707.5,203.5l0,-2" class="g3_170" />
<path d="M360.5,238.5l0,-1" class="g3_170" />
<path d="M360.5,238.5l348,0" class="g4_170" />
<path d="M707.5,238.5l0,-1" class="g4_170" />
<path d="M360.5,237.5l0,-34" class="g3_170" />
<path d="M707.5,237.5l0,-34" class="g4_170" />
<path d="M710,241l7,0l0,-33l-7,0l0,33Z" class="g2_170" />
<image x="264.166" y="254" width="5" height="2" xlink:href="img/40.png" transform="scale(1.2 , 1)" />
<image x="276.5" y="255" width="6.999" height="4" xlink:href="img/41.png" transform="scale(1.142 , 1)" />
<image x="319" y="258" width="4" height="2" xlink:href="img/42.png" />
<image x="277.375" y="259" width="6.999" height="2" xlink:href="img/43.png" transform="scale(1.142 , 1)" />
<image x="281.777" y="260" width="8" height="3" xlink:href="img/44.png" transform="scale(1.125 , 1)" />
<image x="285.3" y="262" width="9" height="2" xlink:href="img/45.png" transform="scale(1.111 , 1)" />
<image x="319" y="264" width="8" height="2" xlink:href="img/46.png" />
<image x="322" y="265" width="5" height="2" xlink:href="img/47.png" />
<image x="322" y="266" width="6" height="2" xlink:href="img/48.png" />
<image x="315" y="267" width="12" height="2" xlink:href="img/49.png" />
<image x="314" y="268" width="13" height="3" xlink:href="img/50.png" />
<image x="314" y="270" width="12" height="2" xlink:href="img/51.png" />
<image x="285.454" y="271" width="10" height="2" xlink:href="img/52.png" transform="scale(1.1 , 1)" />
<path d="M217,250l7,0l0,-9l-7,0l0,9Z" class="g1_170" />
<path d="M710,250l7,0l0,-9l-7,0l0,9Z" class="g2_170" />
<path d="M226.5,245.5l0,-1" class="g3_170" />
<path d="M226.5,245.5l54,0" class="g3_170" />
<path d="M280.5,245.5l0,-1" class="g4_170" />
<path d="M280.5,245.5l0,-1" class="g3_170" />
<path d="M226.5,281.5l0,-1" class="g3_170" />
<path d="M226.5,281.5l55,0" class="g4_170" />
<path d="M280.5,281.5l0,-1" class="g4_170" />
<path d="M226.5,280.5l0,-35" class="g3_170" />
<path d="M280.5,280.5l0,-35" class="g4_170" />
<path d="M217,284l7,0l0,-34l-7,0l0,34Z" class="g1_170" />
<path d="M286.5,245.5l0,-1" class="g3_170" />
<path d="M286.5,245.5l67,0" class="g3_170" />
<path d="M353.5,245.5l0,-1" class="g4_170" />
<path d="M353.5,245.5l0,-1" class="g3_170" />
<path d="M286.5,281.5l0,-1" class="g3_170" />
<path d="M286.5,281.5l68,0" class="g4_170" />
<path d="M353.5,281.5l0,-1" class="g4_170" />
<path d="M286.5,280.5l0,-35" class="g3_170" />
<path d="M353.5,280.5l0,-35" class="g4_170" />
<path d="M360.5,245.5l0,-1" class="g3_170" />
<path d="M360.5,245.5l347,0" class="g3_170" />
<path d="M707.5,245.5l0,-1" class="g4_170" />
<path d="M707.5,245.5l0,-1" class="g3_170" />
<path d="M360.5,281.5l0,-1" class="g3_170" />
<path d="M360.5,281.5l348,0" class="g4_170" />
<path d="M707.5,281.5l0,-1" class="g4_170" />
<path d="M360.5,280.5l0,-35" class="g3_170" />
<path d="M707.5,280.5l0,-35" class="g4_170" />
<path d="M710,284l7,0l0,-34l-7,0l0,34Z" class="g2_170" />
<image x="318" y="294" width="3" height="2" xlink:href="img/53.png" />
<image x="263.333" y="295" width="5" height="2" xlink:href="img/54.png" transform="scale(1.2 , 1)" />
<image x="270.857" y="197.333" width="6" height="2" xlink:href="img/55.png" transform="scale(1.166 , 1.5)" />
<image x="284.4" y="298" width="9" height="2" xlink:href="img/56.png" transform="scale(1.111 , 1)" />
<image x="315" y="299" width="12" height="2" xlink:href="img/57.png" />
<image x="287.272" y="300" width="10" height="4" xlink:href="img/58.png" transform="scale(1.1 , 1)" />
<image x="263.333" y="303" width="5" height="2" xlink:href="img/59.png" transform="scale(1.2 , 1)" />
<image x="241.5" y="303" width="3" height="2" xlink:href="img/60.png" transform="scale(1.333 , 1)" />
<image x="263.333" y="304" width="5" height="2" xlink:href="img/61.png" transform="scale(1.2 , 1)" />
<image x="324" y="304" width="5" height="2" xlink:href="img/62.png" />
<image x="316" y="305" width="15" height="2" xlink:href="img/63.png" />
<image x="316" y="306" width="16" height="2" xlink:href="img/64.png" />
<image x="318" y="308" width="14" height="4" xlink:href="img/65.png" />
<image x="311" y="311" width="20" height="3" xlink:href="img/66.png" />
<image x="312" y="313" width="16" height="2" xlink:href="img/67.png" />
<image x="313" y="314" width="14" height="2" xlink:href="img/68.png" />
<image x="285.454" y="315" width="10" height="2" xlink:href="img/69.png" transform="scale(1.1 , 1)" />
<path d="M217,294l7,0l0,-10l-7,0l0,10Z" class="g1_170" />
<path d="M710,294l7,0l0,-10l-7,0l0,10Z" class="g2_170" />
<path d="M226.5,288.5l0,-1" class="g3_170" />
<path d="M226.5,288.5l54,0" class="g3_170" />
<path d="M280.5,288.5l0,-1" class="g4_170" />
<path d="M280.5,288.5l0,-1" class="g3_170" />
<path d="M226.5,325.5l0,-1" class="g3_170" />
<path d="M226.5,325.5l55,0" class="g4_170" />
<path d="M280.5,325.5l0,-1" class="g4_170" />
<path d="M226.5,324.5l0,-36" class="g3_170" />
<path d="M280.5,324.5l0,-36" class="g4_170" />
<path d="M217,338l7,0l0,-44l-7,0l0,44Z" class="g1_170" />
<path d="M217,338l67,0l0,-7l-67,0l0,7Z" class="g2_170" />
<path d="M286.5,288.5l0,-1" class="g3_170" />
<path d="M286.5,288.5l67,0" class="g3_170" />
<path d="M353.5,288.5l0,-1" class="g4_170" />
<path d="M353.5,288.5l0,-1" class="g3_170" />
<path d="M286.5,325.5l0,-1" class="g3_170" />
<path d="M286.5,325.5l68,0" class="g4_170" />
<path d="M353.5,325.5l0,-1" class="g4_170" />
<path d="M286.5,324.5l0,-36" class="g3_170" />
<path d="M353.5,324.5l0,-36" class="g4_170" />
<path d="M284,338l73,0l0,-7l-73,0l0,7Z" class="g2_170" />
<path d="M360.5,288.5l0,-1" class="g3_170" />
<path d="M360.5,288.5l347,0" class="g3_170" />
<path d="M707.5,288.5l0,-1" class="g4_170" />
<path d="M707.5,288.5l0,-1" class="g3_170" />
<path d="M360.5,325.5l0,-1" class="g3_170" />
<path d="M360.5,325.5l348,0" class="g4_170" />
<path d="M707.5,325.5l0,-1" class="g4_170" />
<path d="M360.5,324.5l0,-36" class="g3_170" />
<path d="M707.5,324.5l0,-36" class="g4_170" />
<path d="M357,338l353,0l0,-7l-353,0l0,7Z" class="g2_170" />
<path d="M710,338l7,0l0,-44l-7,0l0,44Z" class="g2_170" />
<path d="M710,338l7,0l0,-7l-7,0l0,7Z" class="g2_170" />
<path d="M107,413l720,0l0,-31l-720,0l0,31Z" class="g5_170" />
</svg>