<?xml version="1.0" encoding="UTF-8" standalone="no"?>
<!DOCTYPE svg PUBLIC "-//W3C//DTD SVG 1.1//EN"
"http://www.w3.org/Graphics/SVG/1.1/DTD/svg11.dtd">
<svg version="1.1" xmlns="http://www.w3.org/2000/svg" xmlns:xlink="http://www.w3.org/1999/xlink">
<defs>
<clipPath id="c0_11"><path d="M224.5,560.5l0,-120l384,0l0,120Z" /></clipPath>
<clipPath id="c1_11"><path d="M110.5,648.5l0,-85l301,0l0,85Z" /></clipPath>
<clipPath id="c2_11"><path d="M414.5,648.5l0,-85l308,0l0,85Z" /></clipPath>
<style type="text/css"><![CDATA[
.g1_11{
fill: #FFFFFF;
}
.g2_11{
fill: none;
stroke: #EFEFEF;
stroke-width: 1;
stroke-linecap: butt;
stroke-linejoin: miter;
}
.g3_11{
fill: none;
stroke: #A0A0A0;
stroke-width: 1;
stroke-linecap: butt;
stroke-linejoin: miter;
}
]]></style>
</defs>
<path d="M107,86l720,0l0,-31L107,55l0,31Z" class="g1_11" />
<path d="M107,117l720,0l0,-31L107,86l0,31Z" class="g1_11" />
<path d="M107,149l720,0l0,-32l-720,0l0,32Z" class="g1_11" />
<path d="M107,180l720,0l0,-31l-720,0l0,31Z" class="g1_11" />
<path d="M107,219l720,0l0,-39l-720,0l0,39Z" class="g1_11" />
<path d="M107,250l720,0l0,-31l-720,0l0,31Z" class="g1_11" />
<path d="M107,289l720,0l0,-39l-720,0l0,39Z" class="g1_11" />
<path d="M107,321l720,0l0,-32l-720,0l0,32Z" class="g1_11" />
<path d="M107,352l720,0l0,-31l-720,0l0,31Z" class="g1_11" />
<path d="M107,391l720,0l0,-39l-720,0l0,39Z" class="g1_11" />
<path d="M107,430l720,0l0,-39l-720,0l0,39Z" class="g1_11" />
<g clip-path="url(#c0_11)">
<path d="M224,560l384,0l0,-120l-384,0l0,120Z" class="g1_11" />
</g>
<image x="224" y="440" width="386" height="122" xlink:href="img/1.png" />
<image x="224" y="440" width="386" height="122" xlink:href="img/2.png" />
<path d="M108.5,440.5l0,-2" class="g2_11" />
<path d="M108.5,439.5l615,0" class="g2_11" />
<path d="M723.5,440.5l0,-2" class="g3_11" />
<path d="M723.5,439.5l0,-1" class="g2_11" />
<path d="M108.5,440.5l0,-1" class="g3_11" />
<path d="M108.5,440.5l615,0" class="g3_11" />
<path d="M723.5,440.5l0,-1" class="g2_11" />
<path d="M723.5,440.5l0,-1" class="g3_11" />
<path d="M108.5,562.5l0,-2" class="g3_11" />
<path d="M108.5,562.5l616,0" class="g2_11" />
<path d="M723.5,562.5l0,-2" class="g2_11" />
<path d="M108.5,560.5l0,-120" class="g3_11" />
<path d="M723.5,560.5l0,-120" class="g2_11" />
<path d="M108.5,562.5l0,-122" class="g2_11" />
<path d="M723.5,562.5l0,-122" class="g3_11" />
<g clip-path="url(#c1_11)">
<path d="M219,609l83,0l0,-46l-83,0l0,46Z" class="g1_11" />
</g>
<image x="219" y="563" width="84" height="47" xlink:href="img/3.png" />
<g clip-path="url(#c2_11)">
<path d="M498,619l140,0l0,-56l-140,0l0,56Z" class="g1_11" />
</g>
<image x="498" y="563" width="141" height="57" xlink:href="img/4.png" />
<path d="M108.5,563.5l0,-1" class="g2_11" />
<path d="M723.5,563.5l0,-1" class="g3_11" />
<path d="M108.5,563.5l0,-1" class="g3_11" />
<path d="M108.5,563.5l303,0" class="g3_11" />
<path d="M411.5,563.5l0,-1" class="g2_11" />
<path d="M411.5,563.5l0,-1" class="g3_11" />
<path d="M108.5,648.5l0,-85" class="g3_11" />
<path d="M411.5,648.5l0,-85" class="g2_11" />
<path d="M108.5,648.5l0,-85" class="g2_11" />
<path d="M413.5,563.5l0,-1" class="g3_11" />
<path d="M413.5,563.5l310,0" class="g3_11" />
<path d="M723.5,563.5l0,-1" class="g2_11" />
<path d="M723.5,563.5l0,-1" class="g3_11" />
<path d="M413.5,648.5l0,-85" class="g3_11" />
<path d="M723.5,648.5l0,-85" class="g2_11" />
<path d="M723.5,648.5l0,-85" class="g3_11" />
<image x="152" y="649" width="218" height="51" xlink:href="img/5.png" />
<image x="480" y="649" width="177" height="48" xlink:href="img/6.png" />
<path d="M108.5,649.5l0,-1" class="g2_11" />
<path d="M723.5,649.5l0,-1" class="g3_11" />
<path d="M108.5,649.5l0,-1" class="g3_11" />
<path d="M108.5,649.5l303,0" class="g3_11" />
<path d="M411.5,649.5l0,-1" class="g2_11" />
<path d="M411.5,649.5l0,-1" class="g3_11" />
<path d="M108.5,732.5l0,-83" class="g3_11" />
<path d="M411.5,732.5l0,-83" class="g2_11" />
<path d="M108.5,732.5l0,-83" class="g2_11" />
<path d="M108.5,732.5l305,0" class="g3_11" />
<path d="M413.5,649.5l0,-1" class="g3_11" />
<path d="M413.5,649.5l310,0" class="g3_11" />
<path d="M723.5,649.5l0,-1" class="g2_11" />
<path d="M723.5,649.5l0,-1" class="g3_11" />
<path d="M413.5,732.5l0,-83" class="g3_11" />
<path d="M723.5,732.5l0,-83" class="g2_11" />
<path d="M413.5,732.5l310,0" class="g3_11" />
<path d="M723.5,732.5l0,-83" class="g3_11" />
<path d="M723.5,732.5l0,-2" class="g3_11" />
<path d="M107,778l720,0l0,-39l-720,0l0,39Z" class="g1_11" />
<path d="M107,809l720,0l0,-31l-720,0l0,31Z" class="g1_11" />
<image x="189" y="812" width="118" height="55" xlink:href="img/7.png" />
<image x="388" y="812" width="101" height="47" xlink:href="img/8.png" />
<image x="678" y="812" width="87" height="51" xlink:href="img/9.png" />
<path d="M108.5,812.5l0,-3" class="g2_11" />
<path d="M108.5,811.5l743,0" class="g2_11" />
<path d="M851.5,812.5l0,-3" class="g3_11" />
<path d="M851.5,811.5l0,-2" class="g2_11" />
<path d="M108.5,812.5l0,-1" class="g3_11" />
<path d="M108.5,812.5l212,0" class="g3_11" />
<path d="M320.5,812.5l0,-1" class="g2_11" />
<path d="M320.5,812.5l0,-1" class="g3_11" />
<path d="M108.5,916.5l0,-104" class="g3_11" />
<path d="M320.5,916.5l0,-104" class="g2_11" />
<path d="M108.5,916.5l0,-104" class="g2_11" />
<path d="M322.5,812.5l0,-1" class="g3_11" />
<path d="M322.5,812.5l218,0" class="g3_11" />
<path d="M540.5,812.5l0,-1" class="g2_11" />
<path d="M540.5,812.5l0,-1" class="g3_11" />
<path d="M322.5,916.5l0,-104" class="g3_11" />
<path d="M540.5,916.5l0,-104" class="g2_11" />
<path d="M542.5,812.5l0,-1" class="g3_11" />
<path d="M542.5,812.5l309,0" class="g3_11" />
<path d="M851.5,812.5l0,-1" class="g2_11" />
<path d="M851.5,812.5l0,-1" class="g3_11" />
<path d="M542.5,916.5l0,-104" class="g3_11" />
<path d="M851.5,916.5l0,-104" class="g2_11" />
<path d="M851.5,916.5l0,-104" class="g3_11" />
<image x="165" y="917" width="101" height="59" xlink:href="img/10.png" />
<image x="369" y="917" width="126" height="49" xlink:href="img/11.png" />
<image x="627" y="917" width="141" height="70" xlink:href="img/12.png" />
<path d="M108.5,917.5l0,-1" class="g2_11" />
<path d="M851.5,917.5l0,-1" class="g3_11" />
<path d="M108.5,917.5l0,-1" class="g3_11" />
<path d="M108.5,917.5l212,0" class="g3_11" />
<path d="M320.5,917.5l0,-1" class="g2_11" />
<path d="M320.5,917.5l0,-1" class="g3_11" />
<path d="M108.5,1025.5l0,-108" class="g3_11" />
<path d="M320.5,1025.5l0,-108" class="g2_11" />
<path d="M108.5,1025.5l0,-108" class="g2_11" />
<path d="M322.5,917.5l0,-1" class="g3_11" />
<path d="M322.5,917.5l218,0" class="g3_11" />
<path d="M540.5,917.5l0,-1" class="g2_11" />
<path d="M540.5,917.5l0,-1" class="g3_11" />
<path d="M322.5,1025.5l0,-108" class="g3_11" />
<path d="M540.5,1025.5l0,-108" class="g2_11" />
<path d="M542.5,917.5l0,-1" class="g3_11" />
<path d="M542.5,917.5l309,0" class="g3_11" />
<path d="M851.5,917.5l0,-1" class="g2_11" />
<path d="M851.5,917.5l0,-1" class="g3_11" />
<path d="M542.5,1025.5l0,-108" class="g3_11" />
<path d="M851.5,1025.5l0,-108" class="g2_11" />
<path d="M851.5,1025.5l0,-108" class="g3_11" />
<image x="332" y="1027" width="200" height="49" xlink:href="img/13.png" />
<path d="M108.5,1027.5l0,-2" class="g2_11" />
<path d="M851.5,1027.5l0,-2" class="g3_11" />
<path d="M108.5,1027.5l0,-1" class="g3_11" />
<path d="M108.5,1027.5l212,0" class="g3_11" />
<path d="M320.5,1027.5l0,-1" class="g2_11" />
<path d="M320.5,1027.5l0,-1" class="g3_11" />
<path d="M108.5,1114.5l0,-87" class="g3_11" />
<path d="M320.5,1114.5l0,-87" class="g2_11" />
<path d="M108.5,1114.5l0,-87" class="g2_11" />
<path d="M108.5,1114.5l214,0" class="g3_11" />
<path d="M322.5,1027.5l0,-1" class="g3_11" />
<path d="M322.5,1027.5l218,0" class="g3_11" />
<path d="M540.5,1027.5l0,-1" class="g2_11" />
<path d="M540.5,1027.5l0,-1" class="g3_11" />
<path d="M322.5,1114.5l0,-87" class="g3_11" />
<path d="M540.5,1114.5l0,-87" class="g2_11" />
<path d="M322.5,1114.5l220,0" class="g3_11" />
<path d="M542.5,1027.5l0,-1" class="g3_11" />
<path d="M542.5,1027.5l309,0" class="g3_11" />
<path d="M851.5,1027.5l0,-1" class="g2_11" />
<path d="M851.5,1027.5l0,-1" class="g3_11" />
<path d="M542.5,1114.5l0,-87" class="g3_11" />
<path d="M851.5,1114.5l0,-87" class="g2_11" />
<path d="M542.5,1114.5l309,0" class="g3_11" />
<path d="M851.5,1114.5l0,-87" class="g3_11" />
<path d="M851.5,1114.5l0,-1" class="g3_11" />
</svg>