<?xml version="1.0" encoding="UTF-8" standalone="no"?>
<!DOCTYPE svg PUBLIC "-//W3C//DTD SVG 1.1//EN"
"http://www.w3.org/Graphics/SVG/1.1/DTD/svg11.dtd">
<svg version="1.1" xmlns="http://www.w3.org/2000/svg" xmlns:xlink="http://www.w3.org/1999/xlink">
<defs>
<clipPath id="c0_22"><path d="M224.5,918.5l0,-24l247,0l0,24Z" /></clipPath>
<style type="text/css"><![CDATA[
.g1_22{
fill: none;
stroke: #000000;
stroke-width: 1;
stroke-linecap: butt;
stroke-linejoin: miter;
}
.g2_22{
fill: #FFFFFF;
}
]]></style>
</defs>
<path d="M220.5,81.5l11,0" class="g1_22" />
<path d="M289,816l356,0l0,-40l-356,0l0,40Z" class="g2_22" />
<image x="289" y="776" width="357" height="41" xlink:href="img/1.png" />
<g clip-path="url(#c0_22)">
<path d="M249,918l197,0l0,-24l-197,0l0,24Z" class="g2_22" />
</g>
<image x="249" y="894" width="198" height="25" xlink:href="img/2.png" />
<path d="M537,977l2,0l0,-24l-2,0l0,24Z" class="g2_22" />
<image x="402" y="953" width="3" height="25" xlink:href="img/3.png" transform="scale(1.333 , 1)" />
<path d="M656,977l2,0l0,-24l-2,0l0,24Z" class="g2_22" />
<image x="656" y="953" width="3" height="25" xlink:href="img/4.png" />
</svg>