<?xml version="1.0" encoding="UTF-8" standalone="no"?>
<!DOCTYPE svg PUBLIC "-//W3C//DTD SVG 1.1//EN"
"http://www.w3.org/Graphics/SVG/1.1/DTD/svg11.dtd">
<svg version="1.1" xmlns="http://www.w3.org/2000/svg" xmlns:xlink="http://www.w3.org/1999/xlink">
<defs>
<style type="text/css"><![CDATA[
.g1_126{
fill: none;
stroke: #EFEFEF;
stroke-width: 1;
stroke-linecap: butt;
stroke-linejoin: miter;
}
.g2_126{
fill: none;
stroke: #A0A0A0;
stroke-width: 1;
stroke-linecap: butt;
stroke-linejoin: miter;
}
]]></style>
</defs>
<path d="M243.5,64.5l0,-9" class="g1_126" />
<path d="M243.5,56.5l447,0" class="g1_126" />
<path d="M690.5,64.5l0,-9" class="g2_126" />
<path d="M690.5,56.5l0,-1" class="g1_126" />
<path d="M246.5,58.5l0,-1" class="g2_126" />
<path d="M246.5,58.5l200,0" class="g2_126" />
<path d="M446.5,58.5l0,-1" class="g1_126" />
<path d="M446.5,58.5l0,-1" class="g2_126" />
<path d="M246.5,88.5l0,-1" class="g2_126" />
<path d="M246.5,88.5l201,0" class="g1_126" />
<path d="M446.5,88.5l0,-1" class="g1_126" />
<path d="M246.5,87.5l0,-29" class="g2_126" />
<path d="M446.5,87.5l0,-29" class="g1_126" />
<path d="M243.5,90.5l0,-26" class="g1_126" />
<path d="M450.5,58.5l0,-1" class="g2_126" />
<path d="M450.5,58.5l237,0" class="g2_126" />
<path d="M687.5,58.5l0,-1" class="g1_126" />
<path d="M687.5,58.5l0,-1" class="g2_126" />
<path d="M450.5,88.5l0,-1" class="g2_126" />
<path d="M450.5,88.5l238,0" class="g1_126" />
<path d="M687.5,88.5l0,-1" class="g1_126" />
<path d="M450.5,87.5l0,-29" class="g2_126" />
<path d="M687.5,87.5l0,-29" class="g1_126" />
<path d="M690.5,90.5l0,-26" class="g2_126" />
<path d="M243.5,98.5l0,-8" class="g1_126" />
<path d="M690.5,98.5l0,-8" class="g2_126" />
<path d="M246.5,92.5l0,-1" class="g2_126" />
<path d="M246.5,92.5l200,0" class="g2_126" />
<path d="M446.5,92.5l0,-1" class="g1_126" />
<path d="M446.5,92.5l0,-1" class="g2_126" />
<path d="M246.5,122.5l0,-1" class="g2_126" />
<path d="M246.5,122.5l201,0" class="g1_126" />
<path d="M446.5,122.5l0,-1" class="g1_126" />
<path d="M246.5,121.5l0,-29" class="g2_126" />
<path d="M446.5,121.5l0,-29" class="g1_126" />
<path d="M243.5,124.5l0,-26" class="g1_126" />
<path d="M450.5,92.5l0,-1" class="g2_126" />
<path d="M450.5,92.5l237,0" class="g2_126" />
<path d="M687.5,92.5l0,-1" class="g1_126" />
<path d="M687.5,92.5l0,-1" class="g2_126" />
<path d="M450.5,122.5l0,-1" class="g2_126" />
<path d="M450.5,122.5l238,0" class="g1_126" />
<path d="M687.5,122.5l0,-1" class="g1_126" />
<path d="M450.5,121.5l0,-29" class="g2_126" />
<path d="M687.5,121.5l0,-29" class="g1_126" />
<path d="M690.5,124.5l0,-26" class="g2_126" />
<path d="M243.5,132.5l0,-8" class="g1_126" />
<path d="M690.5,132.5l0,-8" class="g2_126" />
<path d="M246.5,126.5l0,-1" class="g2_126" />
<path d="M246.5,126.5l200,0" class="g2_126" />
<path d="M446.5,126.5l0,-1" class="g1_126" />
<path d="M446.5,126.5l0,-1" class="g2_126" />
<path d="M246.5,156.5l0,-1" class="g2_126" />
<path d="M246.5,156.5l201,0" class="g1_126" />
<path d="M446.5,156.5l0,-1" class="g1_126" />
<path d="M246.5,155.5l0,-29" class="g2_126" />
<path d="M446.5,155.5l0,-29" class="g1_126" />
<path d="M243.5,158.5l0,-26" class="g1_126" />
<path d="M450.5,126.5l0,-1" class="g2_126" />
<path d="M450.5,126.5l237,0" class="g2_126" />
<path d="M687.5,126.5l0,-1" class="g1_126" />
<path d="M687.5,126.5l0,-1" class="g2_126" />
<path d="M450.5,156.5l0,-1" class="g2_126" />
<path d="M450.5,156.5l238,0" class="g1_126" />
<path d="M687.5,156.5l0,-1" class="g1_126" />
<path d="M450.5,155.5l0,-29" class="g2_126" />
<path d="M687.5,155.5l0,-29" class="g1_126" />
<path d="M690.5,158.5l0,-26" class="g2_126" />
<path d="M243.5,166.5l0,-8" class="g1_126" />
<path d="M690.5,166.5l0,-8" class="g2_126" />
<path d="M246.5,160.5l0,-1" class="g2_126" />
<path d="M246.5,160.5l200,0" class="g2_126" />
<path d="M446.5,160.5l0,-1" class="g1_126" />
<path d="M446.5,160.5l0,-1" class="g2_126" />
<path d="M246.5,190.5l0,-1" class="g2_126" />
<path d="M246.5,190.5l201,0" class="g1_126" />
<path d="M446.5,190.5l0,-1" class="g1_126" />
<path d="M246.5,189.5l0,-29" class="g2_126" />
<path d="M446.5,189.5l0,-29" class="g1_126" />
<path d="M243.5,194.5l0,-28" class="g1_126" />
<path d="M243.5,194.5l205,0" class="g2_126" />
<path d="M450.5,160.5l0,-1" class="g2_126" />
<path d="M450.5,160.5l237,0" class="g2_126" />
<path d="M687.5,160.5l0,-1" class="g1_126" />
<path d="M687.5,160.5l0,-1" class="g2_126" />
<path d="M450.5,190.5l0,-1" class="g2_126" />
<path d="M450.5,190.5l238,0" class="g1_126" />
<path d="M687.5,190.5l0,-1" class="g1_126" />
<path d="M450.5,189.5l0,-29" class="g2_126" />
<path d="M687.5,189.5l0,-29" class="g1_126" />
<path d="M448.5,194.5l242,0" class="g2_126" />
<path d="M690.5,194.5l0,-28" class="g2_126" />
<path d="M690.5,194.5l0,-1" class="g2_126" />
<path d="M173.5,320.5l0,-10" class="g1_126" />
<path d="M173.5,311.5l587,0" class="g1_126" />
<path d="M760.5,320.5l0,-10" class="g2_126" />
<path d="M760.5,311.5l0,-1" class="g1_126" />
<path d="M176.5,314.5l0,-1" class="g2_126" />
<path d="M176.5,314.5l173,0" class="g2_126" />
<path d="M349.5,314.5l0,-1" class="g1_126" />
<path d="M349.5,314.5l0,-1" class="g2_126" />
<path d="M176.5,345.5l0,-1" class="g2_126" />
<path d="M176.5,345.5l174,0" class="g1_126" />
<path d="M349.5,345.5l0,-1" class="g1_126" />
<path d="M176.5,344.5l0,-30" class="g2_126" />
<path d="M349.5,344.5l0,-30" class="g1_126" />
<path d="M173.5,346.5l0,-26" class="g1_126" />
<path d="M353.5,314.5l0,-1" class="g2_126" />
<path d="M353.5,314.5l404,0" class="g2_126" />
<path d="M757.5,314.5l0,-1" class="g1_126" />
<path d="M757.5,314.5l0,-1" class="g2_126" />
<path d="M353.5,345.5l0,-1" class="g2_126" />
<path d="M353.5,345.5l405,0" class="g1_126" />
<path d="M757.5,345.5l0,-1" class="g1_126" />
<path d="M353.5,344.5l0,-30" class="g2_126" />
<path d="M757.5,344.5l0,-30" class="g1_126" />
<path d="M760.5,346.5l0,-26" class="g2_126" />
<path d="M173.5,354.5l0,-8" class="g1_126" />
<path d="M760.5,354.5l0,-8" class="g2_126" />
<path d="M176.5,348.5l0,-1" class="g2_126" />
<path d="M176.5,348.5l173,0" class="g2_126" />
<path d="M349.5,348.5l0,-1" class="g1_126" />
<path d="M349.5,348.5l0,-1" class="g2_126" />
<path d="M176.5,379.5l0,-1" class="g2_126" />
<path d="M176.5,379.5l174,0" class="g1_126" />
<path d="M349.5,379.5l0,-1" class="g1_126" />
<path d="M176.5,378.5l0,-30" class="g2_126" />
<path d="M349.5,378.5l0,-30" class="g1_126" />
<path d="M173.5,380.5l0,-26" class="g1_126" />
<path d="M353.5,348.5l0,-1" class="g2_126" />
<path d="M353.5,348.5l197,0" class="g2_126" />
<path d="M550.5,348.5l0,-1" class="g1_126" />
<path d="M550.5,348.5l0,-1" class="g2_126" />
<path d="M353.5,379.5l0,-1" class="g2_126" />
<path d="M353.5,379.5l198,0" class="g1_126" />
<path d="M550.5,379.5l0,-1" class="g1_126" />
<path d="M353.5,378.5l0,-30" class="g2_126" />
<path d="M550.5,378.5l0,-30" class="g1_126" />
<path d="M554.5,348.5l0,-1" class="g2_126" />
<path d="M554.5,348.5l203,0" class="g2_126" />
<path d="M757.5,348.5l0,-1" class="g1_126" />
<path d="M757.5,348.5l0,-1" class="g2_126" />
<path d="M554.5,379.5l0,-1" class="g2_126" />
<path d="M554.5,379.5l204,0" class="g1_126" />
<path d="M757.5,379.5l0,-1" class="g1_126" />
<path d="M554.5,378.5l0,-30" class="g2_126" />
<path d="M757.5,378.5l0,-30" class="g1_126" />
<path d="M760.5,380.5l0,-26" class="g2_126" />
<path d="M173.5,388.5l0,-8" class="g1_126" />
<path d="M760.5,388.5l0,-8" class="g2_126" />
<path d="M176.5,382.5l0,-1" class="g2_126" />
<path d="M176.5,382.5l173,0" class="g2_126" />
<path d="M349.5,382.5l0,-1" class="g1_126" />
<path d="M349.5,382.5l0,-1" class="g2_126" />
<path d="M176.5,413.5l0,-1" class="g2_126" />
<path d="M176.5,413.5l174,0" class="g1_126" />
<path d="M349.5,413.5l0,-1" class="g1_126" />
<path d="M176.5,412.5l0,-30" class="g2_126" />
<path d="M349.5,412.5l0,-30" class="g1_126" />
<path d="M173.5,414.5l0,-26" class="g1_126" />
<path d="M353.5,382.5l0,-1" class="g2_126" />
<path d="M353.5,382.5l197,0" class="g2_126" />
<path d="M550.5,382.5l0,-1" class="g1_126" />
<path d="M550.5,382.5l0,-1" class="g2_126" />
<path d="M353.5,413.5l0,-1" class="g2_126" />
<path d="M353.5,413.5l198,0" class="g1_126" />
<path d="M550.5,413.5l0,-1" class="g1_126" />
<path d="M353.5,412.5l0,-30" class="g2_126" />
<path d="M550.5,412.5l0,-30" class="g1_126" />
<path d="M554.5,382.5l0,-1" class="g2_126" />
<path d="M554.5,382.5l203,0" class="g2_126" />
<path d="M757.5,382.5l0,-1" class="g1_126" />
<path d="M757.5,382.5l0,-1" class="g2_126" />
<path d="M554.5,413.5l0,-1" class="g2_126" />
<path d="M554.5,413.5l204,0" class="g1_126" />
<path d="M757.5,413.5l0,-1" class="g1_126" />
<path d="M554.5,412.5l0,-30" class="g2_126" />
<path d="M757.5,412.5l0,-30" class="g1_126" />
<path d="M760.5,414.5l0,-26" class="g2_126" />
<path d="M173.5,422.5l0,-8" class="g1_126" />
<path d="M760.5,422.5l0,-8" class="g2_126" />
<path d="M176.5,416.5l0,-1" class="g2_126" />
<path d="M176.5,416.5l173,0" class="g2_126" />
<path d="M349.5,416.5l0,-1" class="g1_126" />
<path d="M349.5,416.5l0,-1" class="g2_126" />
<path d="M176.5,447.5l0,-1" class="g2_126" />
<path d="M176.5,447.5l174,0" class="g1_126" />
<path d="M349.5,447.5l0,-1" class="g1_126" />
<path d="M176.5,446.5l0,-30" class="g2_126" />
<path d="M349.5,446.5l0,-30" class="g1_126" />
<path d="M173.5,448.5l0,-26" class="g1_126" />
<path d="M353.5,416.5l0,-1" class="g2_126" />
<path d="M353.5,416.5l197,0" class="g2_126" />
<path d="M550.5,416.5l0,-1" class="g1_126" />
<path d="M550.5,416.5l0,-1" class="g2_126" />
<path d="M353.5,447.5l0,-1" class="g2_126" />
<path d="M353.5,447.5l198,0" class="g1_126" />
<path d="M550.5,447.5l0,-1" class="g1_126" />
<path d="M353.5,446.5l0,-30" class="g2_126" />
<path d="M550.5,446.5l0,-30" class="g1_126" />
<path d="M554.5,416.5l0,-1" class="g2_126" />
<path d="M554.5,416.5l203,0" class="g2_126" />
<path d="M757.5,416.5l0,-1" class="g1_126" />
<path d="M757.5,416.5l0,-1" class="g2_126" />
<path d="M554.5,447.5l0,-1" class="g2_126" />
<path d="M554.5,447.5l204,0" class="g1_126" />
<path d="M757.5,447.5l0,-1" class="g1_126" />
<path d="M554.5,446.5l0,-30" class="g2_126" />
<path d="M757.5,446.5l0,-30" class="g1_126" />
<path d="M760.5,448.5l0,-26" class="g2_126" />
<path d="M173.5,456.5l0,-8" class="g1_126" />
<path d="M760.5,456.5l0,-8" class="g2_126" />
<path d="M176.5,450.5l0,-1" class="g2_126" />
<path d="M176.5,450.5l173,0" class="g2_126" />
<path d="M349.5,450.5l0,-1" class="g1_126" />
<path d="M349.5,450.5l0,-1" class="g2_126" />
<path d="M176.5,481.5l0,-1" class="g2_126" />
<path d="M176.5,481.5l174,0" class="g1_126" />
<path d="M349.5,481.5l0,-1" class="g1_126" />
<path d="M176.5,480.5l0,-30" class="g2_126" />
<path d="M349.5,480.5l0,-30" class="g1_126" />
<path d="M173.5,484.5l0,-28" class="g1_126" />
<path d="M173.5,484.5l178,0" class="g2_126" />
<path d="M353.5,450.5l0,-1" class="g2_126" />
<path d="M353.5,450.5l197,0" class="g2_126" />
<path d="M550.5,450.5l0,-1" class="g1_126" />
<path d="M550.5,450.5l0,-1" class="g2_126" />
<path d="M353.5,481.5l0,-1" class="g2_126" />
<path d="M353.5,481.5l198,0" class="g1_126" />
<path d="M550.5,481.5l0,-1" class="g1_126" />
<path d="M353.5,480.5l0,-30" class="g2_126" />
<path d="M550.5,480.5l0,-30" class="g1_126" />
<path d="M351.5,484.5l202,0" class="g2_126" />
<path d="M554.5,450.5l0,-1" class="g2_126" />
<path d="M554.5,450.5l203,0" class="g2_126" />
<path d="M757.5,450.5l0,-1" class="g1_126" />
<path d="M757.5,450.5l0,-1" class="g2_126" />
<path d="M554.5,481.5l0,-1" class="g2_126" />
<path d="M554.5,481.5l204,0" class="g1_126" />
<path d="M757.5,481.5l0,-1" class="g1_126" />
<path d="M554.5,480.5l0,-30" class="g2_126" />
<path d="M757.5,480.5l0,-30" class="g1_126" />
<path d="M553.5,484.5l207,0" class="g2_126" />
<path d="M760.5,484.5l0,-28" class="g2_126" />
<path d="M760.5,484.5l0,-1" class="g2_126" />
<path d="M173.5,589.5l0,-10" class="g1_126" />
<path d="M173.5,580.5l587,0" class="g1_126" />
<path d="M760.5,589.5l0,-10" class="g2_126" />
<path d="M760.5,580.5l0,-1" class="g1_126" />
<path d="M176.5,584.5l0,-2" class="g2_126" />
<path d="M176.5,584.5l112,0" class="g2_126" />
<path d="M288.5,584.5l0,-2" class="g1_126" />
<path d="M288.5,584.5l0,-2" class="g2_126" />
<path d="M176.5,614.5l0,-1" class="g2_126" />
<path d="M176.5,614.5l113,0" class="g1_126" />
<path d="M288.5,614.5l0,-1" class="g1_126" />
<path d="M176.5,613.5l0,-29" class="g2_126" />
<path d="M288.5,613.5l0,-29" class="g1_126" />
<path d="M173.5,615.5l0,-26" class="g1_126" />
<path d="M292.5,584.5l0,-2" class="g2_126" />
<path d="M292.5,584.5l465,0" class="g2_126" />
<path d="M757.5,584.5l0,-2" class="g1_126" />
<path d="M757.5,584.5l0,-2" class="g2_126" />
<path d="M292.5,614.5l0,-1" class="g2_126" />
<path d="M292.5,614.5l466,0" class="g1_126" />
<path d="M757.5,614.5l0,-1" class="g1_126" />
<path d="M292.5,613.5l0,-29" class="g2_126" />
<path d="M757.5,613.5l0,-29" class="g1_126" />
<path d="M760.5,615.5l0,-26" class="g2_126" />
<path d="M173.5,623.5l0,-8" class="g1_126" />
<path d="M760.5,623.5l0,-8" class="g2_126" />
<path d="M176.5,618.5l0,-2" class="g2_126" />
<path d="M176.5,618.5l112,0" class="g2_126" />
<path d="M288.5,618.5l0,-2" class="g1_126" />
<path d="M288.5,618.5l0,-2" class="g2_126" />
<path d="M176.5,648.5l0,-1" class="g2_126" />
<path d="M176.5,648.5l113,0" class="g1_126" />
<path d="M288.5,648.5l0,-1" class="g1_126" />
<path d="M176.5,647.5l0,-29" class="g2_126" />
<path d="M288.5,647.5l0,-29" class="g1_126" />
<path d="M173.5,649.5l0,-26" class="g1_126" />
<path d="M292.5,618.5l0,-2" class="g2_126" />
<path d="M292.5,618.5l231,0" class="g2_126" />
<path d="M523.5,618.5l0,-2" class="g1_126" />
<path d="M523.5,618.5l0,-2" class="g2_126" />
<path d="M292.5,648.5l0,-1" class="g2_126" />
<path d="M292.5,648.5l232,0" class="g1_126" />
<path d="M523.5,648.5l0,-1" class="g1_126" />
<path d="M292.5,647.5l0,-29" class="g2_126" />
<path d="M523.5,647.5l0,-29" class="g1_126" />
<path d="M526.5,618.5l0,-2" class="g2_126" />
<path d="M526.5,618.5l231,0" class="g2_126" />
<path d="M757.5,618.5l0,-2" class="g1_126" />
<path d="M757.5,618.5l0,-2" class="g2_126" />
<path d="M526.5,648.5l0,-1" class="g2_126" />
<path d="M526.5,648.5l232,0" class="g1_126" />
<path d="M757.5,648.5l0,-1" class="g1_126" />
<path d="M526.5,647.5l0,-29" class="g2_126" />
<path d="M757.5,647.5l0,-29" class="g1_126" />
<path d="M760.5,649.5l0,-26" class="g2_126" />
<path d="M173.5,657.5l0,-8" class="g1_126" />
<path d="M760.5,657.5l0,-8" class="g2_126" />
<path d="M176.5,652.5l0,-2" class="g2_126" />
<path d="M176.5,652.5l112,0" class="g2_126" />
<path d="M288.5,652.5l0,-2" class="g1_126" />
<path d="M288.5,652.5l0,-2" class="g2_126" />
<path d="M176.5,682.5l0,-1" class="g2_126" />
<path d="M176.5,682.5l113,0" class="g1_126" />
<path d="M288.5,682.5l0,-1" class="g1_126" />
<path d="M176.5,681.5l0,-29" class="g2_126" />
<path d="M288.5,681.5l0,-29" class="g1_126" />
<path d="M173.5,683.5l0,-26" class="g1_126" />
<path d="M292.5,652.5l0,-2" class="g2_126" />
<path d="M292.5,652.5l231,0" class="g2_126" />
<path d="M523.5,652.5l0,-2" class="g1_126" />
<path d="M523.5,652.5l0,-2" class="g2_126" />
<path d="M292.5,682.5l0,-1" class="g2_126" />
<path d="M292.5,682.5l232,0" class="g1_126" />
<path d="M523.5,682.5l0,-1" class="g1_126" />
<path d="M292.5,681.5l0,-29" class="g2_126" />
<path d="M523.5,681.5l0,-29" class="g1_126" />
<path d="M526.5,652.5l0,-2" class="g2_126" />
<path d="M526.5,652.5l231,0" class="g2_126" />
<path d="M757.5,652.5l0,-2" class="g1_126" />
<path d="M757.5,652.5l0,-2" class="g2_126" />
<path d="M526.5,682.5l0,-1" class="g2_126" />
<path d="M526.5,682.5l232,0" class="g1_126" />
<path d="M757.5,682.5l0,-1" class="g1_126" />
<path d="M526.5,681.5l0,-29" class="g2_126" />
<path d="M757.5,681.5l0,-29" class="g1_126" />
<path d="M760.5,683.5l0,-26" class="g2_126" />
<path d="M173.5,691.5l0,-8" class="g1_126" />
<path d="M760.5,691.5l0,-8" class="g2_126" />
<path d="M176.5,686.5l0,-2" class="g2_126" />
<path d="M176.5,686.5l112,0" class="g2_126" />
<path d="M288.5,686.5l0,-2" class="g1_126" />
<path d="M288.5,686.5l0,-2" class="g2_126" />
<path d="M176.5,716.5l0,-1" class="g2_126" />
<path d="M176.5,716.5l113,0" class="g1_126" />
<path d="M288.5,716.5l0,-1" class="g1_126" />
<path d="M176.5,715.5l0,-29" class="g2_126" />
<path d="M288.5,715.5l0,-29" class="g1_126" />
<path d="M173.5,717.5l0,-26" class="g1_126" />
<path d="M292.5,686.5l0,-2" class="g2_126" />
<path d="M292.5,686.5l231,0" class="g2_126" />
<path d="M523.5,686.5l0,-2" class="g1_126" />
<path d="M523.5,686.5l0,-2" class="g2_126" />
<path d="M292.5,716.5l0,-1" class="g2_126" />
<path d="M292.5,716.5l232,0" class="g1_126" />
<path d="M523.5,716.5l0,-1" class="g1_126" />
<path d="M292.5,715.5l0,-29" class="g2_126" />
<path d="M523.5,715.5l0,-29" class="g1_126" />
<path d="M526.5,686.5l0,-2" class="g2_126" />
<path d="M526.5,686.5l231,0" class="g2_126" />
<path d="M757.5,686.5l0,-2" class="g1_126" />
<path d="M757.5,686.5l0,-2" class="g2_126" />
<path d="M526.5,716.5l0,-1" class="g2_126" />
<path d="M526.5,716.5l232,0" class="g1_126" />
<path d="M757.5,716.5l0,-1" class="g1_126" />
<path d="M526.5,715.5l0,-29" class="g2_126" />
<path d="M757.5,715.5l0,-29" class="g1_126" />
<path d="M760.5,717.5l0,-26" class="g2_126" />
<path d="M173.5,725.5l0,-8" class="g1_126" />
<path d="M760.5,725.5l0,-8" class="g2_126" />
<path d="M176.5,720.5l0,-2" class="g2_126" />
<path d="M176.5,720.5l112,0" class="g2_126" />
<path d="M288.5,720.5l0,-2" class="g1_126" />
<path d="M288.5,720.5l0,-2" class="g2_126" />
<path d="M176.5,750.5l0,-1" class="g2_126" />
<path d="M176.5,750.5l113,0" class="g1_126" />
<path d="M288.5,750.5l0,-1" class="g1_126" />
<path d="M176.5,749.5l0,-29" class="g2_126" />
<path d="M288.5,749.5l0,-29" class="g1_126" />
<path d="M173.5,751.5l0,-26" class="g1_126" />
<path d="M292.5,720.5l0,-2" class="g2_126" />
<path d="M292.5,720.5l231,0" class="g2_126" />
<path d="M523.5,720.5l0,-2" class="g1_126" />
<path d="M523.5,720.5l0,-2" class="g2_126" />
<path d="M292.5,750.5l0,-1" class="g2_126" />
<path d="M292.5,750.5l232,0" class="g1_126" />
<path d="M523.5,750.5l0,-1" class="g1_126" />
<path d="M292.5,749.5l0,-29" class="g2_126" />
<path d="M523.5,749.5l0,-29" class="g1_126" />
<path d="M526.5,720.5l0,-2" class="g2_126" />
<path d="M526.5,720.5l231,0" class="g2_126" />
<path d="M757.5,720.5l0,-2" class="g1_126" />
<path d="M757.5,720.5l0,-2" class="g2_126" />
<path d="M526.5,750.5l0,-1" class="g2_126" />
<path d="M526.5,750.5l232,0" class="g1_126" />
<path d="M757.5,750.5l0,-1" class="g1_126" />
<path d="M526.5,749.5l0,-29" class="g2_126" />
<path d="M757.5,749.5l0,-29" class="g1_126" />
<path d="M760.5,751.5l0,-26" class="g2_126" />
<path d="M173.5,759.5l0,-8" class="g1_126" />
<path d="M760.5,759.5l0,-8" class="g2_126" />
<path d="M176.5,754.5l0,-2" class="g2_126" />
<path d="M176.5,754.5l112,0" class="g2_126" />
<path d="M288.5,754.5l0,-2" class="g1_126" />
<path d="M288.5,754.5l0,-2" class="g2_126" />
<path d="M176.5,784.5l0,-1" class="g2_126" />
<path d="M176.5,784.5l113,0" class="g1_126" />
<path d="M288.5,784.5l0,-1" class="g1_126" />
<path d="M176.5,783.5l0,-29" class="g2_126" />
<path d="M288.5,783.5l0,-29" class="g1_126" />
<path d="M173.5,785.5l0,-26" class="g1_126" />
<path d="M292.5,754.5l0,-2" class="g2_126" />
<path d="M292.5,754.5l465,0" class="g2_126" />
<path d="M757.5,754.5l0,-2" class="g1_126" />
<path d="M757.5,754.5l0,-2" class="g2_126" />
<path d="M292.5,784.5l0,-1" class="g2_126" />
<path d="M292.5,784.5l466,0" class="g1_126" />
<path d="M757.5,784.5l0,-1" class="g1_126" />
<path d="M292.5,783.5l0,-29" class="g2_126" />
<path d="M757.5,783.5l0,-29" class="g1_126" />
<path d="M760.5,785.5l0,-26" class="g2_126" />
<path d="M173.5,793.5l0,-8" class="g1_126" />
<path d="M760.5,793.5l0,-8" class="g2_126" />
<path d="M176.5,788.5l0,-2" class="g2_126" />
<path d="M176.5,788.5l112,0" class="g2_126" />
<path d="M288.5,788.5l0,-2" class="g1_126" />
<path d="M288.5,788.5l0,-2" class="g2_126" />
<path d="M176.5,818.5l0,-1" class="g2_126" />
<path d="M176.5,818.5l113,0" class="g1_126" />
<path d="M288.5,818.5l0,-1" class="g1_126" />
<path d="M176.5,817.5l0,-29" class="g2_126" />
<path d="M288.5,817.5l0,-29" class="g1_126" />
<path d="M173.5,819.5l0,-26" class="g1_126" />
<path d="M292.5,788.5l0,-2" class="g2_126" />
<path d="M292.5,788.5l465,0" class="g2_126" />
<path d="M757.5,788.5l0,-2" class="g1_126" />
<path d="M757.5,788.5l0,-2" class="g2_126" />
<path d="M292.5,818.5l0,-1" class="g2_126" />
<path d="M292.5,818.5l466,0" class="g1_126" />
<path d="M757.5,818.5l0,-1" class="g1_126" />
<path d="M292.5,817.5l0,-29" class="g2_126" />
<path d="M757.5,817.5l0,-29" class="g1_126" />
<path d="M760.5,819.5l0,-26" class="g2_126" />
<path d="M173.5,827.5l0,-8" class="g1_126" />
<path d="M760.5,827.5l0,-8" class="g2_126" />
<path d="M176.5,822.5l0,-2" class="g2_126" />
<path d="M176.5,822.5l112,0" class="g2_126" />
<path d="M288.5,822.5l0,-2" class="g1_126" />
<path d="M288.5,822.5l0,-2" class="g2_126" />
<path d="M176.5,852.5l0,-1" class="g2_126" />
<path d="M176.5,852.5l113,0" class="g1_126" />
<path d="M288.5,852.5l0,-1" class="g1_126" />
<path d="M176.5,851.5l0,-29" class="g2_126" />
<path d="M288.5,851.5l0,-29" class="g1_126" />
<path d="M173.5,856.5l0,-29" class="g1_126" />
<path d="M173.5,856.5l117,0" class="g2_126" />
<path d="M292.5,822.5l0,-2" class="g2_126" />
<path d="M292.5,822.5l465,0" class="g2_126" />
<path d="M757.5,822.5l0,-2" class="g1_126" />
<path d="M757.5,822.5l0,-2" class="g2_126" />
<path d="M292.5,852.5l0,-1" class="g2_126" />
<path d="M292.5,852.5l466,0" class="g1_126" />
<path d="M757.5,852.5l0,-1" class="g1_126" />
<path d="M292.5,851.5l0,-29" class="g2_126" />
<path d="M757.5,851.5l0,-29" class="g1_126" />
<path d="M290.5,856.5l470,0" class="g2_126" />
<path d="M760.5,856.5l0,-29" class="g2_126" />
<path d="M760.5,856.5l0,-2" class="g2_126" />
</svg>