<?xml version="1.0" encoding="UTF-8" standalone="no"?>
<!DOCTYPE svg PUBLIC "-//W3C//DTD SVG 1.1//EN"
"http://www.w3.org/Graphics/SVG/1.1/DTD/svg11.dtd">
<svg version="1.1" xmlns="http://www.w3.org/2000/svg" xmlns:xlink="http://www.w3.org/1999/xlink">
<defs>
<clipPath id="c0_27"><path d="M110.5,680.5l0,-302l218,0l0,302Z" /></clipPath>
<clipPath id="c1_27"><path d="M320.5,926.5l0,-134l226,0l0,134Z" /></clipPath>
<clipPath id="c2_27"><path d="M537.5,640.5l0,-239l178,0l0,239Z" /></clipPath>
<clipPath id="c3_27"><path d="M588.5,968.5l0,-191l148,0l0,191Z" /></clipPath>
<style type="text/css"><![CDATA[
.g1_27{
fill: #FFFFFF;
}
]]></style>
</defs>
<g clip-path="url(#c0_27)">
<path d="M110,680l218,0l0,-302l-218,0l0,302Z" class="g1_27" />
</g>
<image x="110" y="378" width="220" height="304" xlink:href="img/1.png" />
<image x="110" y="378" width="221" height="304" xlink:href="img/2.png" />
<image x="110" y="790" width="213" height="138" xlink:href="img/3.png" />
<g clip-path="url(#c1_27)">
<path d="M320,926l226,0l0,-134l-226,0l0,134Z" class="g1_27" />
</g>
<image x="320" y="792" width="228" height="136" xlink:href="img/4.png" />
<image x="320" y="792" width="229" height="136" xlink:href="img/5.png" />
<g clip-path="url(#c2_27)">
<path d="M537,640l178,0l0,-239l-178,0l0,239Z" class="g1_27" />
</g>
<image x="537" y="401" width="179" height="241" xlink:href="img/6.png" />
<image x="537" y="401" width="180" height="241" xlink:href="img/7.png" />
<g clip-path="url(#c3_27)">
<path d="M588,968l148,0l0,-190l-148,0l0,190Z" class="g1_27" />
</g>
<image x="588" y="777" width="150" height="193" xlink:href="img/8.png" />
<image x="588" y="777" width="151" height="193" xlink:href="img/9.png" />
</svg>