<?xml version="1.0" encoding="UTF-8" standalone="no"?>
<!DOCTYPE svg PUBLIC "-//W3C//DTD SVG 1.1//EN"
"http://www.w3.org/Graphics/SVG/1.1/DTD/svg11.dtd">
<svg version="1.1" xmlns="http://www.w3.org/2000/svg" xmlns:xlink="http://www.w3.org/1999/xlink">
<defs>
<style type="text/css"><![CDATA[
.g5_46{
}
.g1_46{
fill: none;
stroke: #EFEFEF;
stroke-width: 1;
stroke-linecap: butt;
stroke-linejoin: miter;
}
.g2_46{
fill: none;
stroke: #A0A0A0;
stroke-width: 1;
stroke-linecap: butt;
stroke-linejoin: miter;
}
.g6_46{
fill: none;
stroke: #F2F2F2;
stroke-width: 5;
stroke-linecap: round;
stroke-linejoin: miter;
stroke-miterlimit: 8;
}
.g4_46{
fill: none;
stroke: #E3E3E3;
stroke-width: 1;
stroke-linecap: butt;
stroke-linejoin: miter;
}
.g3_46{
fill: #A0A0A0;
}
]]></style>
</defs>
<path d="M172.5,65.5l0,-10" class="g1_46" />
<path d="M172.5,56.5l589,0" class="g1_46" />
<path d="M761.5,65.5l0,-10" class="g2_46" />
<path d="M761.5,56.5l0,-1" class="g1_46" />
<path d="M175.5,58.5l0,-1" class="g2_46" />
<path d="M175.5,58.5l286,0" class="g2_46" />
<path d="M461.5,58.5l0,-1" class="g1_46" />
<path d="M461.5,58.5l0,-1" class="g2_46" />
<path d="M175.5,91.5l0,-1" class="g2_46" />
<path d="M175.5,91.5l287,0" class="g1_46" />
<path d="M461.5,91.5l0,-1" class="g1_46" />
<path d="M175.5,90.5l0,-32" class="g2_46" />
<path d="M461.5,90.5l0,-32" class="g1_46" />
<path d="M172.5,92.5l0,-27" class="g1_46" />
<path d="M465.5,58.5l0,-1" class="g2_46" />
<path d="M465.5,58.5l293,0" class="g2_46" />
<path d="M758.5,58.5l0,-1" class="g1_46" />
<path d="M758.5,58.5l0,-1" class="g2_46" />
<path d="M465.5,91.5l0,-1" class="g2_46" />
<path d="M465.5,91.5l294,0" class="g1_46" />
<path d="M758.5,91.5l0,-1" class="g1_46" />
<path d="M465.5,90.5l0,-32" class="g2_46" />
<path d="M758.5,90.5l0,-32" class="g1_46" />
<path d="M761.5,92.5l0,-27" class="g2_46" />
<image x="245" y="101" width="148" height="95" xlink:href="img/1.png" />
<image x="538" y="101" width="149" height="95" xlink:href="img/2.png" />
<path d="M172.5,101.5l0,-9" class="g1_46" />
<path d="M761.5,101.5l0,-9" class="g2_46" />
<path d="M175.5,94.5l0,-1" class="g2_46" />
<path d="M175.5,94.5l286,0" class="g2_46" />
<path d="M461.5,94.5l0,-1" class="g1_46" />
<path d="M461.5,94.5l0,-1" class="g2_46" />
<path d="M175.5,275.5l0,-2" class="g2_46" />
<path d="M175.5,275.5l287,0" class="g1_46" />
<path d="M461.5,275.5l0,-2" class="g1_46" />
<path d="M175.5,273.5l0,-179" class="g2_46" />
<path d="M461.5,273.5l0,-179" class="g1_46" />
<path d="M172.5,276.5l0,-175" class="g1_46" />
<path d="M465.5,94.5l0,-1" class="g2_46" />
<path d="M465.5,94.5l293,0" class="g2_46" />
<path d="M758.5,94.5l0,-1" class="g1_46" />
<path d="M758.5,94.5l0,-1" class="g2_46" />
<path d="M465.5,275.5l0,-2" class="g2_46" />
<path d="M465.5,275.5l294,0" class="g1_46" />
<path d="M758.5,275.5l0,-2" class="g1_46" />
<path d="M465.5,273.5l0,-179" class="g2_46" />
<path d="M758.5,273.5l0,-179" class="g1_46" />
<path d="M761.5,276.5l0,-175" class="g2_46" />
<image x="226" y="285" width="186" height="47" xlink:href="img/3.png" />
<image x="529" y="285" width="166" height="41" xlink:href="img/4.png" />
<path d="M172.5,285.5l0,-9" class="g1_46" />
<path d="M761.5,285.5l0,-9" class="g2_46" />
<path d="M175.5,278.5l0,-1" class="g2_46" />
<path d="M175.5,278.5l286,0" class="g2_46" />
<path d="M461.5,278.5l0,-1" class="g1_46" />
<path d="M461.5,278.5l0,-1" class="g2_46" />
<path d="M175.5,425.5l0,-1" class="g2_46" />
<path d="M175.5,425.5l287,0" class="g1_46" />
<path d="M461.5,425.5l0,-1" class="g1_46" />
<path d="M175.5,424.5l0,-146" class="g2_46" />
<path d="M461.5,424.5l0,-146" class="g1_46" />
<path d="M172.5,426.5l0,-141" class="g1_46" />
<path d="M465.5,278.5l0,-1" class="g2_46" />
<path d="M465.5,278.5l293,0" class="g2_46" />
<path d="M758.5,278.5l0,-1" class="g1_46" />
<path d="M758.5,278.5l0,-1" class="g2_46" />
<path d="M465.5,425.5l0,-1" class="g2_46" />
<path d="M465.5,425.5l294,0" class="g1_46" />
<path d="M758.5,425.5l0,-1" class="g1_46" />
<path d="M465.5,424.5l0,-146" class="g2_46" />
<path d="M758.5,424.5l0,-146" class="g1_46" />
<path d="M761.5,426.5l0,-141" class="g2_46" />
<image x="236" y="435" width="167" height="40" xlink:href="img/5.png" />
<image x="530" y="435" width="165" height="44" xlink:href="img/6.png" />
<path d="M172.5,435.5l0,-9" class="g1_46" />
<path d="M761.5,435.5l0,-9" class="g2_46" />
<path d="M175.5,428.5l0,-1" class="g2_46" />
<path d="M175.5,428.5l286,0" class="g2_46" />
<path d="M461.5,428.5l0,-1" class="g1_46" />
<path d="M461.5,428.5l0,-1" class="g2_46" />
<path d="M175.5,575.5l0,-1" class="g2_46" />
<path d="M175.5,575.5l287,0" class="g1_46" />
<path d="M461.5,575.5l0,-1" class="g1_46" />
<path d="M175.5,574.5l0,-146" class="g2_46" />
<path d="M461.5,574.5l0,-146" class="g1_46" />
<path d="M172.5,576.5l0,-141" class="g1_46" />
<path d="M465.5,428.5l0,-1" class="g2_46" />
<path d="M465.5,428.5l293,0" class="g2_46" />
<path d="M758.5,428.5l0,-1" class="g1_46" />
<path d="M758.5,428.5l0,-1" class="g2_46" />
<path d="M465.5,575.5l0,-1" class="g2_46" />
<path d="M465.5,575.5l294,0" class="g1_46" />
<path d="M758.5,575.5l0,-1" class="g1_46" />
<path d="M465.5,574.5l0,-146" class="g2_46" />
<path d="M758.5,574.5l0,-146" class="g1_46" />
<path d="M761.5,576.5l0,-141" class="g2_46" />
<image x="260" y="585" width="119" height="48" xlink:href="img/7.png" />
<image x="550" y="586" width="125" height="47" xlink:href="img/8.png" />
<path d="M172.5,585.5l0,-9" class="g1_46" />
<path d="M761.5,585.5l0,-9" class="g2_46" />
<path d="M175.5,578.5l0,-1" class="g2_46" />
<path d="M175.5,578.5l286,0" class="g2_46" />
<path d="M461.5,578.5l0,-1" class="g1_46" />
<path d="M461.5,578.5l0,-1" class="g2_46" />
<path d="M175.5,676.5l0,-1" class="g2_46" />
<path d="M175.5,676.5l287,0" class="g1_46" />
<path d="M461.5,676.5l0,-1" class="g1_46" />
<path d="M175.5,675.5l0,-97" class="g2_46" />
<path d="M461.5,675.5l0,-97" class="g1_46" />
<path d="M172.5,677.5l0,-92" class="g1_46" />
<path d="M465.5,578.5l0,-1" class="g2_46" />
<path d="M465.5,578.5l293,0" class="g2_46" />
<path d="M758.5,578.5l0,-1" class="g1_46" />
<path d="M758.5,578.5l0,-1" class="g2_46" />
<path d="M465.5,676.5l0,-1" class="g2_46" />
<path d="M465.5,676.5l294,0" class="g1_46" />
<path d="M758.5,676.5l0,-1" class="g1_46" />
<path d="M465.5,675.5l0,-97" class="g2_46" />
<path d="M758.5,675.5l0,-97" class="g1_46" />
<path d="M761.5,677.5l0,-92" class="g2_46" />
<image x="383" y="687" width="169" height="39" xlink:href="img/9.png" />
<path d="M172.5,687.5l0,-10" class="g1_46" />
<path d="M761.5,687.5l0,-10" class="g2_46" />
<path d="M175.5,680.5l0,-1" class="g2_46" />
<path d="M175.5,680.5l583,0" class="g2_46" />
<path d="M758.5,680.5l0,-1" class="g1_46" />
<path d="M758.5,680.5l0,-1" class="g2_46" />
<path d="M175.5,769.5l0,-1" class="g2_46" />
<path d="M175.5,769.5l584,0" class="g1_46" />
<path d="M758.5,769.5l0,-1" class="g1_46" />
<path d="M175.5,768.5l0,-88" class="g2_46" />
<path d="M758.5,768.5l0,-88" class="g1_46" />
<path d="M172.5,771.5l0,-84" class="g1_46" />
<path d="M761.5,771.5l0,-84" class="g2_46" />
<path d="M172.5,780.5l0,-9" class="g1_46" />
<path d="M761.5,780.5l0,-9" class="g2_46" />
<path d="M175.5,773.5l0,-1" class="g2_46" />
<path d="M175.5,773.5l583,0" class="g2_46" />
<path d="M758.5,773.5l0,-1" class="g1_46" />
<path d="M758.5,773.5l0,-1" class="g2_46" />
<path d="M175.5,806.5l0,-1" class="g2_46" />
<path d="M175.5,806.5l584,0" class="g1_46" />
<path d="M758.5,806.5l0,-1" class="g1_46" />
<path d="M175.5,805.5l0,-32" class="g2_46" />
<path d="M758.5,805.5l0,-32" class="g1_46" />
<path d="M172.5,809.5l0,-29" class="g1_46" />
<path d="M172.5,809.5l589,0" class="g2_46" />
<path d="M761.5,809.5l0,-29" class="g2_46" />
<path d="M761.5,809.5l0,-1" class="g2_46" />
<path d="M110,823l715,0l0,-2l-715,0l0,2Z" class="g3_46" />
<path d="M110.5,821.5l714,0" class="g2_46" />
<path d="M110.5,822.5l0,-1" class="g2_46" />
<path d="M824.5,822.5l0,-1" class="g4_46" />
<path d="M110.5,823.5l0,-1" class="g2_46" />
<path d="M110.5,823.5l715,0" class="g4_46" />
<path d="M824.5,823.5l0,-1" class="g4_46" />
<image x="306" y="355" width="114" height="61" xlink:href="img/10.png" />
<image x="413" y="408" width="7" height="7" xlink:href="img/11.png" />
<path fill-rule="evenodd" d="M387,358l0,11l-79,0l0,23l79,0l0,12l27,-23Z" class="g5_46" />
<path d="M387.5,358.5l0,11l-79,0l0,23l79,0l0,12l27,-23Z" class="g6_46" />
<image x="596" y="349" width="114" height="61" xlink:href="img/12.png" />
<image x="702" y="403" width="7" height="7" xlink:href="img/13.png" />
<path fill-rule="evenodd" d="M677,352l0,12l-79,0l0,23l79,0l0,11l26,-23Z" class="g5_46" />
<path d="M677.5,352.5l0,12l-79,0l0,23l79,0l0,11l26,-23Z" class="g6_46" />
<image x="292" y="504" width="114" height="67" xlink:href="img/14.png" />
<path fill-rule="evenodd" d="M320,507l0,12l79,0l0,25l-79,0l0,13L294,532Z" class="g5_46" />
<path d="M320.5,507.5l0,12l79,0l0,25l-79,0l0,13l-26,-25Z" class="g6_46" />
<image x="581" y="507" width="114" height="67" xlink:href="img/15.png" />
<image x="688" y="567" width="6" height="6" xlink:href="img/16.png" />
<path fill-rule="evenodd" d="M610,510l0,13l78,0l0,25l-78,0l0,12L584,535Z" class="g5_46" />
<path d="M610.5,510.5l0,13l78,0l0,25l-78,0l0,12l-26,-25Z" class="g6_46" />
</svg>