<?xml version="1.0" encoding="UTF-8" standalone="no"?>
<!DOCTYPE svg PUBLIC "-//W3C//DTD SVG 1.1//EN"
"http://www.w3.org/Graphics/SVG/1.1/DTD/svg11.dtd">
<svg version="1.1" xmlns="http://www.w3.org/2000/svg" xmlns:xlink="http://www.w3.org/1999/xlink">
<defs>
<clipPath id="c0_40"><path d="M477.5,279.5l0,-130l174,0l0,130Z" /></clipPath>
<clipPath id="c1_40"><path d="M270.5,814.5l0,-117l394,0l0,117Z" /></clipPath>
<clipPath id="c2_40"><path d="M244.5,1090.5l0,-155l344,0l0,155Z" /></clipPath>
<style type="text/css"><![CDATA[
.g1_40{
fill: #FFFFFF;
}
]]></style>
</defs>
<image x="283" y="150" width="196" height="131" xlink:href="img/1.png" />
<g clip-path="url(#c0_40)">
<path d="M477,279l174,0l0,-130l-174,0l0,130Z" class="g1_40" />
</g>
<image x="477" y="149" width="176" height="132" xlink:href="img/2.png" />
<image x="477" y="149" width="176" height="132" xlink:href="img/3.png" />
<g clip-path="url(#c1_40)">
<path d="M270,814l394,0l0,-117l-394,0l0,117Z" class="g1_40" />
</g>
<image x="270" y="697" width="396" height="119" xlink:href="img/4.png" />
<image x="270" y="697" width="396" height="119" xlink:href="img/5.png" />
<image x="377" y="368" width="165" height="206" xlink:href="img/6.png" />
<g clip-path="url(#c2_40)">
<path d="M244,1090l344,0l0,-155l-344,0l0,155Z" class="g1_40" />
</g>
<image x="244" y="935" width="346" height="157" xlink:href="img/7.png" />
<image x="244" y="935" width="346" height="157" xlink:href="img/8.png" />
</svg>