<?xml version="1.0" encoding="UTF-8" standalone="no"?>
<!DOCTYPE svg PUBLIC "-//W3C//DTD SVG 1.1//EN"
"http://www.w3.org/Graphics/SVG/1.1/DTD/svg11.dtd">
<svg version="1.1" xmlns="http://www.w3.org/2000/svg" xmlns:xlink="http://www.w3.org/1999/xlink">
<defs>
<style type="text/css"><![CDATA[
.g1_88{
fill: none;
stroke: #EFEFEF;
stroke-width: 1;
stroke-linecap: butt;
stroke-linejoin: miter;
}
.g2_88{
fill: none;
stroke: #A0A0A0;
stroke-width: 1;
stroke-linecap: butt;
stroke-linejoin: miter;
}
]]></style>
</defs>
<path d="M170.5,468.5l0,-6" class="g1_88" />
<path d="M170.5,463.5l593,0" class="g1_88" />
<path d="M763.5,468.5l0,-6" class="g2_88" />
<path d="M763.5,463.5l0,-1" class="g1_88" />
<path d="M172.5,467.5l0,-1" class="g2_88" />
<path d="M172.5,467.5l136,0" class="g2_88" />
<path d="M308.5,467.5l0,-1" class="g1_88" />
<path d="M308.5,467.5l0,-1" class="g2_88" />
<path d="M172.5,518.5l0,-51" class="g2_88" />
<path d="M308.5,518.5l0,-51" class="g1_88" />
<path d="M170.5,518.5l0,-50" class="g1_88" />
<path d="M312.5,467.5l0,-1" class="g2_88" />
<path d="M312.5,467.5l449,0" class="g2_88" />
<path d="M761.5,467.5l0,-1" class="g1_88" />
<path d="M761.5,467.5l0,-1" class="g2_88" />
<path d="M312.5,517.5l0,-1" class="g2_88" />
<path d="M312.5,517.5l450,0" class="g1_88" />
<path d="M761.5,517.5l0,-1" class="g1_88" />
<path d="M312.5,516.5l0,-49" class="g2_88" />
<path d="M761.5,516.5l0,-49" class="g1_88" />
<path d="M763.5,518.5l0,-50" class="g2_88" />
<path d="M170.5,522.5l0,-4" class="g1_88" />
<path d="M763.5,522.5l0,-4" class="g2_88" />
<path d="M172.5,542.5l0,-1" class="g2_88" />
<path d="M172.5,542.5l137,0" class="g1_88" />
<path d="M308.5,542.5l0,-1" class="g1_88" />
<path d="M172.5,541.5l0,-23" class="g2_88" />
<path d="M308.5,541.5l0,-23" class="g1_88" />
<path d="M170.5,543.5l0,-21" class="g1_88" />
<path d="M312.5,521.5l0,-1" class="g2_88" />
<path d="M312.5,521.5l135,0" class="g2_88" />
<path d="M447.5,521.5l0,-1" class="g1_88" />
<path d="M447.5,521.5l0,-1" class="g2_88" />
<path d="M312.5,542.5l0,-1" class="g2_88" />
<path d="M312.5,542.5l136,0" class="g1_88" />
<path d="M447.5,542.5l0,-1" class="g1_88" />
<path d="M312.5,541.5l0,-20" class="g2_88" />
<path d="M447.5,541.5l0,-20" class="g1_88" />
<path d="M450.5,521.5l0,-1" class="g2_88" />
<path d="M450.5,521.5l91,0" class="g2_88" />
<path d="M541.5,521.5l0,-1" class="g1_88" />
<path d="M541.5,521.5l0,-1" class="g2_88" />
<path d="M450.5,542.5l0,-1" class="g2_88" />
<path d="M450.5,542.5l92,0" class="g1_88" />
<path d="M541.5,542.5l0,-1" class="g1_88" />
<path d="M450.5,541.5l0,-20" class="g2_88" />
<path d="M541.5,541.5l0,-20" class="g1_88" />
<path d="M544.5,521.5l0,-1" class="g2_88" />
<path d="M544.5,521.5l217,0" class="g2_88" />
<path d="M761.5,521.5l0,-1" class="g1_88" />
<path d="M761.5,521.5l0,-1" class="g2_88" />
<path d="M544.5,542.5l0,-1" class="g2_88" />
<path d="M544.5,542.5l218,0" class="g1_88" />
<path d="M761.5,542.5l0,-1" class="g1_88" />
<path d="M544.5,541.5l0,-20" class="g2_88" />
<path d="M761.5,541.5l0,-20" class="g1_88" />
<path d="M763.5,543.5l0,-21" class="g2_88" />
<path d="M170.5,547.5l0,-4" class="g1_88" />
<path d="M763.5,547.5l0,-4" class="g2_88" />
<path d="M172.5,546.5l0,-2" class="g2_88" />
<path d="M172.5,546.5l136,0" class="g2_88" />
<path d="M308.5,546.5l0,-2" class="g1_88" />
<path d="M308.5,546.5l0,-2" class="g2_88" />
<path d="M172.5,585.5l0,-1" class="g2_88" />
<path d="M172.5,585.5l137,0" class="g1_88" />
<path d="M308.5,585.5l0,-1" class="g1_88" />
<path d="M172.5,584.5l0,-38" class="g2_88" />
<path d="M308.5,584.5l0,-38" class="g1_88" />
<path d="M170.5,586.5l0,-39" class="g1_88" />
<path d="M312.5,546.5l0,-2" class="g2_88" />
<path d="M312.5,546.5l135,0" class="g2_88" />
<path d="M447.5,546.5l0,-2" class="g1_88" />
<path d="M447.5,546.5l0,-2" class="g2_88" />
<path d="M312.5,585.5l0,-1" class="g2_88" />
<path d="M312.5,585.5l136,0" class="g1_88" />
<path d="M447.5,585.5l0,-1" class="g1_88" />
<path d="M312.5,584.5l0,-38" class="g2_88" />
<path d="M447.5,584.5l0,-38" class="g1_88" />
<path d="M450.5,546.5l0,-2" class="g2_88" />
<path d="M450.5,546.5l91,0" class="g2_88" />
<path d="M541.5,546.5l0,-2" class="g1_88" />
<path d="M541.5,546.5l0,-2" class="g2_88" />
<path d="M450.5,585.5l0,-1" class="g2_88" />
<path d="M450.5,585.5l92,0" class="g1_88" />
<path d="M541.5,585.5l0,-1" class="g1_88" />
<path d="M450.5,584.5l0,-38" class="g2_88" />
<path d="M541.5,584.5l0,-38" class="g1_88" />
<path d="M544.5,546.5l0,-2" class="g2_88" />
<path d="M544.5,546.5l217,0" class="g2_88" />
<path d="M761.5,546.5l0,-2" class="g1_88" />
<path d="M761.5,546.5l0,-2" class="g2_88" />
<path d="M544.5,585.5l0,-1" class="g2_88" />
<path d="M544.5,585.5l218,0" class="g1_88" />
<path d="M761.5,585.5l0,-1" class="g1_88" />
<path d="M544.5,584.5l0,-38" class="g2_88" />
<path d="M761.5,584.5l0,-38" class="g1_88" />
<path d="M763.5,586.5l0,-39" class="g2_88" />
<path d="M170.5,589.5l0,-3" class="g1_88" />
<path d="M763.5,589.5l0,-3" class="g2_88" />
<path d="M172.5,588.5l0,-1" class="g2_88" />
<path d="M172.5,588.5l136,0" class="g2_88" />
<path d="M308.5,588.5l0,-1" class="g1_88" />
<path d="M308.5,588.5l0,-1" class="g2_88" />
<path d="M172.5,628.5l0,-2" class="g2_88" />
<path d="M172.5,628.5l137,0" class="g1_88" />
<path d="M308.5,628.5l0,-2" class="g1_88" />
<path d="M172.5,626.5l0,-38" class="g2_88" />
<path d="M308.5,626.5l0,-38" class="g1_88" />
<path d="M170.5,629.5l0,-40" class="g1_88" />
<path d="M312.5,588.5l0,-1" class="g2_88" />
<path d="M312.5,588.5l135,0" class="g2_88" />
<path d="M447.5,588.5l0,-1" class="g1_88" />
<path d="M447.5,588.5l0,-1" class="g2_88" />
<path d="M312.5,628.5l0,-2" class="g2_88" />
<path d="M312.5,628.5l136,0" class="g1_88" />
<path d="M447.5,628.5l0,-2" class="g1_88" />
<path d="M312.5,626.5l0,-38" class="g2_88" />
<path d="M447.5,626.5l0,-38" class="g1_88" />
<path d="M450.5,588.5l0,-1" class="g2_88" />
<path d="M450.5,588.5l91,0" class="g2_88" />
<path d="M541.5,588.5l0,-1" class="g1_88" />
<path d="M541.5,588.5l0,-1" class="g2_88" />
<path d="M450.5,628.5l0,-2" class="g2_88" />
<path d="M450.5,628.5l92,0" class="g1_88" />
<path d="M541.5,628.5l0,-2" class="g1_88" />
<path d="M450.5,626.5l0,-38" class="g2_88" />
<path d="M541.5,626.5l0,-38" class="g1_88" />
<path d="M544.5,588.5l0,-1" class="g2_88" />
<path d="M544.5,588.5l217,0" class="g2_88" />
<path d="M761.5,588.5l0,-1" class="g1_88" />
<path d="M761.5,588.5l0,-1" class="g2_88" />
<path d="M544.5,628.5l0,-2" class="g2_88" />
<path d="M544.5,628.5l218,0" class="g1_88" />
<path d="M761.5,628.5l0,-2" class="g1_88" />
<path d="M544.5,626.5l0,-38" class="g2_88" />
<path d="M761.5,626.5l0,-38" class="g1_88" />
<path d="M763.5,629.5l0,-40" class="g2_88" />
<path d="M170.5,632.5l0,-3" class="g1_88" />
<path d="M763.5,632.5l0,-3" class="g2_88" />
<path d="M172.5,631.5l0,-1" class="g2_88" />
<path d="M172.5,631.5l136,0" class="g2_88" />
<path d="M308.5,631.5l0,-1" class="g1_88" />
<path d="M308.5,631.5l0,-1" class="g2_88" />
<path d="M172.5,670.5l0,-1" class="g2_88" />
<path d="M172.5,670.5l137,0" class="g1_88" />
<path d="M308.5,670.5l0,-1" class="g1_88" />
<path d="M172.5,669.5l0,-38" class="g2_88" />
<path d="M308.5,669.5l0,-38" class="g1_88" />
<path d="M170.5,671.5l0,-39" class="g1_88" />
<path d="M312.5,631.5l0,-1" class="g2_88" />
<path d="M312.5,631.5l135,0" class="g2_88" />
<path d="M447.5,631.5l0,-1" class="g1_88" />
<path d="M447.5,631.5l0,-1" class="g2_88" />
<path d="M312.5,670.5l0,-1" class="g2_88" />
<path d="M312.5,670.5l136,0" class="g1_88" />
<path d="M447.5,670.5l0,-1" class="g1_88" />
<path d="M312.5,669.5l0,-38" class="g2_88" />
<path d="M447.5,669.5l0,-38" class="g1_88" />
<path d="M450.5,631.5l0,-1" class="g2_88" />
<path d="M450.5,631.5l91,0" class="g2_88" />
<path d="M541.5,631.5l0,-1" class="g1_88" />
<path d="M541.5,631.5l0,-1" class="g2_88" />
<path d="M450.5,670.5l0,-1" class="g2_88" />
<path d="M450.5,670.5l92,0" class="g1_88" />
<path d="M541.5,670.5l0,-1" class="g1_88" />
<path d="M450.5,669.5l0,-38" class="g2_88" />
<path d="M541.5,669.5l0,-38" class="g1_88" />
<path d="M544.5,631.5l0,-1" class="g2_88" />
<path d="M544.5,631.5l217,0" class="g2_88" />
<path d="M761.5,631.5l0,-1" class="g1_88" />
<path d="M761.5,631.5l0,-1" class="g2_88" />
<path d="M544.5,670.5l0,-1" class="g2_88" />
<path d="M544.5,670.5l218,0" class="g1_88" />
<path d="M761.5,670.5l0,-1" class="g1_88" />
<path d="M544.5,669.5l0,-38" class="g2_88" />
<path d="M761.5,669.5l0,-38" class="g1_88" />
<path d="M763.5,671.5l0,-39" class="g2_88" />
<path d="M170.5,675.5l0,-4" class="g1_88" />
<path d="M763.5,675.5l0,-4" class="g2_88" />
<path d="M172.5,674.5l0,-1" class="g2_88" />
<path d="M172.5,674.5l589,0" class="g2_88" />
<path d="M761.5,674.5l0,-1" class="g1_88" />
<path d="M761.5,674.5l0,-1" class="g2_88" />
<path d="M172.5,695.5l0,-1" class="g2_88" />
<path d="M172.5,695.5l590,0" class="g1_88" />
<path d="M761.5,695.5l0,-1" class="g1_88" />
<path d="M172.5,694.5l0,-20" class="g2_88" />
<path d="M761.5,694.5l0,-20" class="g1_88" />
<path d="M170.5,696.5l0,-21" class="g1_88" />
<path d="M763.5,696.5l0,-21" class="g2_88" />
<path d="M170.5,700.5l0,-4" class="g1_88" />
<path d="M763.5,700.5l0,-4" class="g2_88" />
<path d="M172.5,699.5l0,-1" class="g2_88" />
<path d="M172.5,699.5l136,0" class="g2_88" />
<path d="M308.5,699.5l0,-1" class="g1_88" />
<path d="M308.5,699.5l0,-1" class="g2_88" />
<path d="M172.5,760.5l0,-1" class="g2_88" />
<path d="M172.5,760.5l137,0" class="g1_88" />
<path d="M308.5,760.5l0,-1" class="g1_88" />
<path d="M172.5,759.5l0,-60" class="g2_88" />
<path d="M308.5,759.5l0,-60" class="g1_88" />
<path d="M170.5,761.5l0,-61" class="g1_88" />
<path d="M312.5,699.5l0,-1" class="g2_88" />
<path d="M312.5,699.5l135,0" class="g2_88" />
<path d="M447.5,699.5l0,-1" class="g1_88" />
<path d="M447.5,699.5l0,-1" class="g2_88" />
<path d="M312.5,760.5l0,-1" class="g2_88" />
<path d="M312.5,760.5l136,0" class="g1_88" />
<path d="M447.5,760.5l0,-1" class="g1_88" />
<path d="M312.5,759.5l0,-60" class="g2_88" />
<path d="M447.5,759.5l0,-60" class="g1_88" />
<path d="M450.5,699.5l0,-1" class="g2_88" />
<path d="M450.5,699.5l91,0" class="g2_88" />
<path d="M541.5,699.5l0,-1" class="g1_88" />
<path d="M541.5,699.5l0,-1" class="g2_88" />
<path d="M450.5,760.5l0,-1" class="g2_88" />
<path d="M450.5,760.5l92,0" class="g1_88" />
<path d="M541.5,760.5l0,-1" class="g1_88" />
<path d="M450.5,759.5l0,-60" class="g2_88" />
<path d="M541.5,759.5l0,-60" class="g1_88" />
<path d="M544.5,699.5l0,-1" class="g2_88" />
<path d="M544.5,699.5l217,0" class="g2_88" />
<path d="M761.5,699.5l0,-1" class="g1_88" />
<path d="M761.5,699.5l0,-1" class="g2_88" />
<path d="M544.5,760.5l0,-1" class="g2_88" />
<path d="M544.5,760.5l218,0" class="g1_88" />
<path d="M761.5,760.5l0,-1" class="g1_88" />
<path d="M544.5,759.5l0,-60" class="g2_88" />
<path d="M761.5,759.5l0,-60" class="g1_88" />
<path d="M763.5,761.5l0,-61" class="g2_88" />
<path d="M170.5,765.5l0,-4" class="g1_88" />
<path d="M763.5,765.5l0,-4" class="g2_88" />
<path d="M172.5,764.5l0,-2" class="g2_88" />
<path d="M172.5,764.5l136,0" class="g2_88" />
<path d="M308.5,764.5l0,-2" class="g1_88" />
<path d="M308.5,764.5l0,-2" class="g2_88" />
<path d="M172.5,823.5l0,-1" class="g2_88" />
<path d="M172.5,823.5l137,0" class="g1_88" />
<path d="M308.5,823.5l0,-1" class="g1_88" />
<path d="M172.5,822.5l0,-58" class="g2_88" />
<path d="M308.5,822.5l0,-58" class="g1_88" />
<path d="M170.5,827.5l0,-62" class="g1_88" />
<path d="M170.5,827.5l141,0" class="g2_88" />
<path d="M312.5,764.5l0,-2" class="g2_88" />
<path d="M312.5,764.5l135,0" class="g2_88" />
<path d="M447.5,764.5l0,-2" class="g1_88" />
<path d="M447.5,764.5l0,-2" class="g2_88" />
<path d="M312.5,823.5l0,-1" class="g2_88" />
<path d="M312.5,823.5l136,0" class="g1_88" />
<path d="M447.5,823.5l0,-1" class="g1_88" />
<path d="M312.5,822.5l0,-58" class="g2_88" />
<path d="M447.5,822.5l0,-58" class="g1_88" />
<path d="M311.5,827.5l138,0" class="g2_88" />
<path d="M450.5,764.5l0,-2" class="g2_88" />
<path d="M450.5,764.5l91,0" class="g2_88" />
<path d="M541.5,764.5l0,-2" class="g1_88" />
<path d="M541.5,764.5l0,-2" class="g2_88" />
<path d="M450.5,823.5l0,-1" class="g2_88" />
<path d="M450.5,823.5l92,0" class="g1_88" />
<path d="M541.5,823.5l0,-1" class="g1_88" />
<path d="M450.5,822.5l0,-58" class="g2_88" />
<path d="M541.5,822.5l0,-58" class="g1_88" />
<path d="M449.5,827.5l94,0" class="g2_88" />
<path d="M544.5,764.5l0,-2" class="g2_88" />
<path d="M544.5,764.5l217,0" class="g2_88" />
<path d="M761.5,764.5l0,-2" class="g1_88" />
<path d="M761.5,764.5l0,-2" class="g2_88" />
<path d="M544.5,823.5l0,-1" class="g2_88" />
<path d="M544.5,823.5l218,0" class="g1_88" />
<path d="M761.5,823.5l0,-1" class="g1_88" />
<path d="M544.5,822.5l0,-58" class="g2_88" />
<path d="M761.5,822.5l0,-58" class="g1_88" />
<path d="M543.5,827.5l220,0" class="g2_88" />
<path d="M763.5,827.5l0,-62" class="g2_88" />
<path d="M763.5,827.5l0,-1" class="g2_88" />
</svg>