<?xml version="1.0" encoding="UTF-8" standalone="no"?>
<!DOCTYPE svg PUBLIC "-//W3C//DTD SVG 1.1//EN"
"http://www.w3.org/Graphics/SVG/1.1/DTD/svg11.dtd">
<svg version="1.1" xmlns="http://www.w3.org/2000/svg" xmlns:xlink="http://www.w3.org/1999/xlink">
<defs>
<style type="text/css"><![CDATA[
.g1_141{
fill: #FFFFFF;
}
.g2_141{
fill: none;
stroke: #CCCCCC;
stroke-width: 1;
stroke-linecap: butt;
stroke-linejoin: miter;
}
.g4_141{
fill: none;
stroke: #FFFFFF;
stroke-width: 1;
stroke-linecap: butt;
stroke-linejoin: miter;
}
.g3_141{
fill: none;
stroke: #656565;
stroke-width: 1;
stroke-linecap: butt;
stroke-linejoin: miter;
}
]]></style>
</defs>
<path d="M269,104l120,0l0,-46L269,58l0,46Z" class="g1_141" />
<path d="M274,99l110,0l0,-36L274,63l0,36Z" class="g1_141" />
<path d="M393,104l148,0l0,-46L393,58l0,46Z" class="g1_141" />
<path d="M398,99l138,0l0,-36L398,63l0,36Z" class="g1_141" />
<path d="M545,58l120,0l0,46l-120,0Z" class="g1_141" />
<path d="M550,72l110,0l0,18L550,90Z" class="g1_141" />
<path d="M265.5,63.5l0,-8" class="g2_141" />
<path d="M265.5,56.5l402,0" class="g2_141" />
<path d="M667.5,63.5l0,-8" class="g3_141" />
<path d="M667.5,56.5l0,-1" class="g2_141" />
<path d="M268.5,58.5l0,-1" class="g3_141" />
<path d="M268.5,58.5l121,0" class="g3_141" />
<path d="M389.5,58.5l0,-1" class="g2_141" />
<path d="M389.5,58.5l0,-1" class="g3_141" />
<path d="M267.5,58.5l1,0" class="g4_141" />
<path d="M390.5,58.5l0,-1" class="g4_141" />
<path d="M267.5,57.5l124,0" class="g4_141" />
<path d="M268.5,105.5l0,-1" class="g3_141" />
<path d="M268.5,105.5l122,0" class="g2_141" />
<path d="M389.5,105.5l0,-1" class="g2_141" />
<path d="M267.5,105.5l1,0" class="g4_141" />
<path d="M390.5,105.5l0,-1" class="g4_141" />
<path d="M267.5,106.5l124,0" class="g4_141" />
<path d="M268,104l122,0l0,-5L268,99l0,5Z" class="g1_141" />
<path d="M268,63l122,0l0,-5L268,58l0,5Z" class="g1_141" />
<path d="M268.5,104.5l0,-46" class="g3_141" />
<path d="M266,104l2,0l0,-46l-2,0l0,46Z" class="g1_141" />
<path d="M389.5,104.5l0,-46" class="g2_141" />
<path d="M390.5,104.5l0,-46" class="g4_141" />
<path d="M265.5,106.5l0,-43" class="g2_141" />
<path d="M392.5,58.5l0,-1" class="g3_141" />
<path d="M392.5,58.5l149,0" class="g3_141" />
<path d="M541.5,58.5l0,-1" class="g2_141" />
<path d="M541.5,58.5l0,-1" class="g3_141" />
<path d="M391.5,58.5l0,-1" class="g4_141" />
<path d="M542.5,58.5l0,-1" class="g4_141" />
<path d="M391.5,57.5l152,0" class="g4_141" />
<path d="M392.5,105.5l0,-1" class="g3_141" />
<path d="M392.5,105.5l150,0" class="g2_141" />
<path d="M541.5,105.5l0,-1" class="g2_141" />
<path d="M391.5,105.5l0,-1" class="g4_141" />
<path d="M542.5,105.5l0,-1" class="g4_141" />
<path d="M391.5,106.5l152,0" class="g4_141" />
<path d="M392,104l150,0l0,-5L392,99l0,5Z" class="g1_141" />
<path d="M392,63l150,0l0,-5L392,58l0,5Z" class="g1_141" />
<path d="M392.5,104.5l0,-46" class="g3_141" />
<path d="M391.5,104.5l0,-46" class="g4_141" />
<path d="M541.5,104.5l0,-46" class="g2_141" />
<path d="M542.5,104.5l0,-46" class="g4_141" />
<path d="M544.5,58.5l0,-1" class="g3_141" />
<path d="M544.5,58.5l0,-1" class="g3_141" />
<path d="M545.5,58.5l120,0" class="g3_141" />
<path d="M665.5,58.5l0,-1" class="g2_141" />
<path d="M665.5,58.5l0,-1" class="g3_141" />
<path d="M543.5,58.5l0,-1" class="g4_141" />
<path d="M666.5,58.5l1,0" class="g4_141" />
<path d="M543.5,57.5l124,0" class="g4_141" />
<path d="M544.5,105.5l0,-1" class="g3_141" />
<path d="M544.5,105.5l0,-1" class="g2_141" />
<path d="M545.5,105.5l120,0" class="g2_141" />
<path d="M665.5,105.5l0,-1" class="g2_141" />
<path d="M665.5,105.5l0,-1" class="g2_141" />
<path d="M543.5,105.5l0,-1" class="g4_141" />
<path d="M666.5,105.5l1,0" class="g4_141" />
<path d="M543.5,106.5l124,0" class="g4_141" />
<path d="M544,104l122,0l0,-5L544,99l0,5Z" class="g1_141" />
<path d="M544,63l122,0l0,-5L544,58l0,5Z" class="g1_141" />
<path d="M544.5,104.5l0,-46" class="g3_141" />
<path d="M543.5,104.5l0,-46" class="g4_141" />
<path d="M665.5,104.5l0,-46" class="g2_141" />
<path d="M666,104l2,0l0,-46l-2,0l0,46Z" class="g1_141" />
<path d="M667.5,106.5l0,-43" class="g3_141" />
<path d="M269,154l120,0l0,-46l-120,0l0,46Z" class="g1_141" />
<path d="M274,150l110,0l0,-37l-110,0l0,37Z" class="g1_141" />
<path d="M393,154l148,0l0,-46l-148,0l0,46Z" class="g1_141" />
<path d="M398,150l138,0l0,-37l-138,0l0,37Z" class="g1_141" />
<path d="M545,108l120,0l0,46l-120,0Z" class="g1_141" />
<path d="M550,122l110,0l0,18l-110,0Z" class="g1_141" />
<path d="M265.5,113.5l0,-7" class="g2_141" />
<path d="M667.5,113.5l0,-7" class="g3_141" />
<path d="M268.5,108.5l0,-1" class="g3_141" />
<path d="M268.5,108.5l121,0" class="g3_141" />
<path d="M389.5,108.5l0,-1" class="g2_141" />
<path d="M389.5,108.5l0,-1" class="g3_141" />
<path d="M267.5,108.5l1,0" class="g4_141" />
<path d="M390.5,108.5l0,-1" class="g4_141" />
<path d="M267.5,107.5l124,0" class="g4_141" />
<path d="M268.5,155.5l0,-1" class="g3_141" />
<path d="M268.5,155.5l122,0" class="g2_141" />
<path d="M389.5,155.5l0,-1" class="g2_141" />
<path d="M267.5,155.5l1,0" class="g4_141" />
<path d="M390.5,155.5l0,-1" class="g4_141" />
<path d="M267.5,157.5l124,0" class="g4_141" />
<path d="M268,154l122,0l0,-4l-122,0l0,4Z" class="g1_141" />
<path d="M268,113l122,0l0,-5l-122,0l0,5Z" class="g1_141" />
<path d="M268.5,154.5l0,-46" class="g3_141" />
<path d="M266,154l2,0l0,-46l-2,0l0,46Z" class="g1_141" />
<path d="M389.5,154.5l0,-46" class="g2_141" />
<path d="M390.5,154.5l0,-46" class="g4_141" />
<path d="M265.5,157.5l0,-44" class="g2_141" />
<path d="M392.5,108.5l0,-1" class="g3_141" />
<path d="M392.5,108.5l149,0" class="g3_141" />
<path d="M541.5,108.5l0,-1" class="g2_141" />
<path d="M541.5,108.5l0,-1" class="g3_141" />
<path d="M391.5,108.5l0,-1" class="g4_141" />
<path d="M542.5,108.5l0,-1" class="g4_141" />
<path d="M391.5,107.5l152,0" class="g4_141" />
<path d="M392.5,155.5l0,-1" class="g3_141" />
<path d="M392.5,155.5l150,0" class="g2_141" />
<path d="M541.5,155.5l0,-1" class="g2_141" />
<path d="M391.5,155.5l0,-1" class="g4_141" />
<path d="M542.5,155.5l0,-1" class="g4_141" />
<path d="M391.5,157.5l152,0" class="g4_141" />
<path d="M392,154l150,0l0,-4l-150,0l0,4Z" class="g1_141" />
<path d="M392,113l150,0l0,-5l-150,0l0,5Z" class="g1_141" />
<path d="M392.5,154.5l0,-46" class="g3_141" />
<path d="M391.5,154.5l0,-46" class="g4_141" />
<path d="M541.5,154.5l0,-46" class="g2_141" />
<path d="M542.5,154.5l0,-46" class="g4_141" />
<path d="M544.5,108.5l0,-1" class="g3_141" />
<path d="M544.5,108.5l0,-1" class="g3_141" />
<path d="M545.5,108.5l120,0" class="g3_141" />
<path d="M665.5,108.5l0,-1" class="g2_141" />
<path d="M665.5,108.5l0,-1" class="g3_141" />
<path d="M543.5,108.5l0,-1" class="g4_141" />
<path d="M666.5,108.5l1,0" class="g4_141" />
<path d="M543.5,107.5l124,0" class="g4_141" />
<path d="M544.5,155.5l0,-1" class="g3_141" />
<path d="M544.5,155.5l0,-1" class="g2_141" />
<path d="M545.5,155.5l120,0" class="g2_141" />
<path d="M665.5,155.5l0,-1" class="g2_141" />
<path d="M665.5,155.5l0,-1" class="g2_141" />
<path d="M543.5,155.5l0,-1" class="g4_141" />
<path d="M666.5,155.5l1,0" class="g4_141" />
<path d="M543.5,157.5l124,0" class="g4_141" />
<path d="M544,154l122,0l0,-4l-122,0l0,4Z" class="g1_141" />
<path d="M544,113l122,0l0,-5l-122,0l0,5Z" class="g1_141" />
<path d="M544.5,154.5l0,-46" class="g3_141" />
<path d="M543.5,154.5l0,-46" class="g4_141" />
<path d="M665.5,154.5l0,-46" class="g2_141" />
<path d="M666,154l2,0l0,-46l-2,0l0,46Z" class="g1_141" />
<path d="M667.5,157.5l0,-44" class="g3_141" />
<path d="M269,205l120,0l0,-46l-120,0l0,46Z" class="g1_141" />
<path d="M274,200l110,0l0,-37l-110,0l0,37Z" class="g1_141" />
<path d="M393,205l148,0l0,-46l-148,0l0,46Z" class="g1_141" />
<path d="M398,200l138,0l0,-37l-138,0l0,37Z" class="g1_141" />
<path d="M545,159l120,0l0,46l-120,0Z" class="g1_141" />
<path d="M550,173l110,0l0,18l-110,0Z" class="g1_141" />
<path d="M265.5,163.5l0,-6" class="g2_141" />
<path d="M667.5,163.5l0,-6" class="g3_141" />
<path d="M268.5,159.5l0,-1" class="g3_141" />
<path d="M268.5,159.5l121,0" class="g3_141" />
<path d="M389.5,159.5l0,-1" class="g2_141" />
<path d="M389.5,159.5l0,-1" class="g3_141" />
<path d="M267.5,159.5l1,0" class="g4_141" />
<path d="M390.5,159.5l0,-1" class="g4_141" />
<path d="M267.5,158.5l124,0" class="g4_141" />
<path d="M268.5,206.5l0,-1" class="g3_141" />
<path d="M268.5,206.5l122,0" class="g2_141" />
<path d="M389.5,206.5l0,-1" class="g2_141" />
<path d="M267.5,206.5l1,0" class="g4_141" />
<path d="M390.5,206.5l0,-1" class="g4_141" />
<path d="M267.5,207.5l124,0" class="g4_141" />
<path d="M268,205l122,0l0,-5l-122,0l0,5Z" class="g1_141" />
<path d="M268,163l122,0l0,-4l-122,0l0,4Z" class="g1_141" />
<path d="M268.5,205.5l0,-46" class="g3_141" />
<path d="M266,205l2,0l0,-46l-2,0l0,46Z" class="g1_141" />
<path d="M389.5,205.5l0,-46" class="g2_141" />
<path d="M390.5,205.5l0,-46" class="g4_141" />
<path d="M265.5,207.5l0,-44" class="g2_141" />
<path d="M392.5,159.5l0,-1" class="g3_141" />
<path d="M392.5,159.5l149,0" class="g3_141" />
<path d="M541.5,159.5l0,-1" class="g2_141" />
<path d="M541.5,159.5l0,-1" class="g3_141" />
<path d="M391.5,159.5l0,-1" class="g4_141" />
<path d="M542.5,159.5l0,-1" class="g4_141" />
<path d="M391.5,158.5l152,0" class="g4_141" />
<path d="M392.5,206.5l0,-1" class="g3_141" />
<path d="M392.5,206.5l150,0" class="g2_141" />
<path d="M541.5,206.5l0,-1" class="g2_141" />
<path d="M391.5,206.5l0,-1" class="g4_141" />
<path d="M542.5,206.5l0,-1" class="g4_141" />
<path d="M391.5,207.5l152,0" class="g4_141" />
<path d="M392,205l150,0l0,-5l-150,0l0,5Z" class="g1_141" />
<path d="M392,163l150,0l0,-4l-150,0l0,4Z" class="g1_141" />
<path d="M392.5,205.5l0,-46" class="g3_141" />
<path d="M391.5,205.5l0,-46" class="g4_141" />
<path d="M541.5,205.5l0,-46" class="g2_141" />
<path d="M542.5,205.5l0,-46" class="g4_141" />
<path d="M544.5,159.5l0,-1" class="g3_141" />
<path d="M544.5,159.5l0,-1" class="g3_141" />
<path d="M545.5,159.5l120,0" class="g3_141" />
<path d="M665.5,159.5l0,-1" class="g2_141" />
<path d="M665.5,159.5l0,-1" class="g3_141" />
<path d="M543.5,159.5l0,-1" class="g4_141" />
<path d="M666.5,159.5l1,0" class="g4_141" />
<path d="M543.5,158.5l124,0" class="g4_141" />
<path d="M544.5,206.5l0,-1" class="g3_141" />
<path d="M544.5,206.5l0,-1" class="g2_141" />
<path d="M545.5,206.5l120,0" class="g2_141" />
<path d="M665.5,206.5l0,-1" class="g2_141" />
<path d="M665.5,206.5l0,-1" class="g2_141" />
<path d="M543.5,206.5l0,-1" class="g4_141" />
<path d="M666.5,206.5l1,0" class="g4_141" />
<path d="M543.5,207.5l124,0" class="g4_141" />
<path d="M544,205l122,0l0,-5l-122,0l0,5Z" class="g1_141" />
<path d="M544,163l122,0l0,-4l-122,0l0,4Z" class="g1_141" />
<path d="M544.5,205.5l0,-46" class="g3_141" />
<path d="M543.5,205.5l0,-46" class="g4_141" />
<path d="M665.5,205.5l0,-46" class="g2_141" />
<path d="M666,205l2,0l0,-46l-2,0l0,46Z" class="g1_141" />
<path d="M667.5,207.5l0,-44" class="g3_141" />
<path d="M269,255l120,0l0,-46l-120,0l0,46Z" class="g1_141" />
<path d="M274,250l110,0l0,-36l-110,0l0,36Z" class="g1_141" />
<path d="M393,255l148,0l0,-46l-148,0l0,46Z" class="g1_141" />
<path d="M398,250l138,0l0,-36l-138,0l0,36Z" class="g1_141" />
<path d="M545,209l120,0l0,46l-120,0Z" class="g1_141" />
<path d="M550,223l110,0l0,18l-110,0Z" class="g1_141" />
<path d="M265.5,214.5l0,-7" class="g2_141" />
<path d="M667.5,214.5l0,-7" class="g3_141" />
<path d="M268.5,209.5l0,-1" class="g3_141" />
<path d="M268.5,209.5l121,0" class="g3_141" />
<path d="M389.5,209.5l0,-1" class="g2_141" />
<path d="M389.5,209.5l0,-1" class="g3_141" />
<path d="M267.5,209.5l1,0" class="g4_141" />
<path d="M390.5,209.5l0,-1" class="g4_141" />
<path d="M267.5,208.5l124,0" class="g4_141" />
<path d="M268.5,256.5l0,-1" class="g3_141" />
<path d="M268.5,256.5l122,0" class="g2_141" />
<path d="M389.5,256.5l0,-1" class="g2_141" />
<path d="M267.5,256.5l1,0" class="g4_141" />
<path d="M390.5,256.5l0,-1" class="g4_141" />
<path d="M267,258l124,0l0,-2l-124,0l0,2Z" class="g1_141" />
<path d="M268,255l122,0l0,-5l-122,0l0,5Z" class="g1_141" />
<path d="M268,214l122,0l0,-5l-122,0l0,5Z" class="g1_141" />
<path d="M268.5,255.5l0,-46" class="g3_141" />
<path d="M266,255l2,0l0,-46l-2,0l0,46Z" class="g1_141" />
<path d="M389.5,255.5l0,-46" class="g2_141" />
<path d="M390.5,255.5l0,-46" class="g4_141" />
<path d="M265.5,260.5l0,-46" class="g2_141" />
<path d="M265.5,260.5l126,0" class="g3_141" />
<path d="M392.5,209.5l0,-1" class="g3_141" />
<path d="M392.5,209.5l149,0" class="g3_141" />
<path d="M541.5,209.5l0,-1" class="g2_141" />
<path d="M541.5,209.5l0,-1" class="g3_141" />
<path d="M391.5,209.5l0,-1" class="g4_141" />
<path d="M542.5,209.5l0,-1" class="g4_141" />
<path d="M391.5,208.5l152,0" class="g4_141" />
<path d="M392.5,256.5l0,-1" class="g3_141" />
<path d="M392.5,256.5l150,0" class="g2_141" />
<path d="M541.5,256.5l0,-1" class="g2_141" />
<path d="M391.5,256.5l0,-1" class="g4_141" />
<path d="M542.5,256.5l0,-1" class="g4_141" />
<path d="M391,258l152,0l0,-2l-152,0l0,2Z" class="g1_141" />
<path d="M392,255l150,0l0,-5l-150,0l0,5Z" class="g1_141" />
<path d="M392,214l150,0l0,-5l-150,0l0,5Z" class="g1_141" />
<path d="M392.5,255.5l0,-46" class="g3_141" />
<path d="M391.5,255.5l0,-46" class="g4_141" />
<path d="M541.5,255.5l0,-46" class="g2_141" />
<path d="M542.5,255.5l0,-46" class="g4_141" />
<path d="M391.5,260.5l152,0" class="g3_141" />
<path d="M544.5,209.5l0,-1" class="g3_141" />
<path d="M544.5,209.5l0,-1" class="g3_141" />
<path d="M545.5,209.5l120,0" class="g3_141" />
<path d="M665.5,209.5l0,-1" class="g2_141" />
<path d="M665.5,209.5l0,-1" class="g3_141" />
<path d="M543.5,209.5l0,-1" class="g4_141" />
<path d="M666.5,209.5l1,0" class="g4_141" />
<path d="M543.5,208.5l124,0" class="g4_141" />
<path d="M544.5,256.5l0,-1" class="g3_141" />
<path d="M544.5,256.5l0,-1" class="g2_141" />
<path d="M545.5,256.5l120,0" class="g2_141" />
<path d="M665.5,256.5l0,-1" class="g2_141" />
<path d="M665.5,256.5l0,-1" class="g2_141" />
<path d="M543.5,256.5l0,-1" class="g4_141" />
<path d="M666.5,256.5l1,0" class="g4_141" />
<path d="M543,256l124,0l0,2l-124,0Z" class="g1_141" />
<path d="M544,255l122,0l0,-5l-122,0l0,5Z" class="g1_141" />
<path d="M544,214l122,0l0,-5l-122,0l0,5Z" class="g1_141" />
<path d="M544.5,255.5l0,-46" class="g3_141" />
<path d="M543.5,255.5l0,-46" class="g4_141" />
<path d="M665.5,255.5l0,-46" class="g2_141" />
<path d="M666,255l2,0l0,-46l-2,0l0,46Z" class="g1_141" />
<path d="M543.5,260.5l124,0" class="g3_141" />
<path d="M667.5,260.5l0,-46" class="g3_141" />
<path d="M667.5,260.5l0,-2" class="g3_141" />
</svg>