<?xml version="1.0" encoding="UTF-8" standalone="no"?>
<!DOCTYPE svg PUBLIC "-//W3C//DTD SVG 1.1//EN"
"http://www.w3.org/Graphics/SVG/1.1/DTD/svg11.dtd">
<svg version="1.1" xmlns="http://www.w3.org/2000/svg" xmlns:xlink="http://www.w3.org/1999/xlink">
<defs>
<style type="text/css"><![CDATA[
.g1_20{
fill: none;
stroke: #EFEFEF;
stroke-width: 1;
stroke-linecap: butt;
stroke-linejoin: miter;
}
.g2_20{
fill: none;
stroke: #A0A0A0;
stroke-width: 1;
stroke-linecap: butt;
stroke-linejoin: miter;
}
.g4_20{
fill: none;
stroke: #000000;
stroke-width: 1;
stroke-linecap: butt;
stroke-linejoin: miter;
}
.g3_20{
fill: #CCCCCC;
}
]]></style>
</defs>
<path d="M202.5,63.5l0,-8" class="g1_20" />
<path d="M202.5,56.5l529,0" class="g1_20" />
<path d="M731.5,63.5l0,-8" class="g2_20" />
<path d="M731.5,56.5l0,-1" class="g1_20" />
<path d="M202.5,57.5l0,-1" class="g2_20" />
<path d="M202.5,57.5l203,0" class="g2_20" />
<path d="M405.5,57.5l0,-1" class="g1_20" />
<path d="M405.5,57.5l0,-1" class="g2_20" />
<path d="M202.5,123.5l0,-1" class="g2_20" />
<path d="M202.5,123.5l204,0" class="g1_20" />
<path d="M405.5,123.5l0,-1" class="g1_20" />
<path d="M202.5,122.5l0,-65" class="g2_20" />
<path d="M405.5,122.5l0,-65" class="g1_20" />
<path d="M202.5,123.5l0,-60" class="g1_20" />
<path d="M406.5,57.5l0,-1" class="g2_20" />
<path d="M406.5,57.5l324,0" class="g2_20" />
<path d="M730.5,57.5l0,-1" class="g1_20" />
<path d="M730.5,57.5l0,-1" class="g2_20" />
<path d="M406.5,123.5l0,-1" class="g2_20" />
<path d="M406.5,123.5l325,0" class="g1_20" />
<path d="M730.5,123.5l0,-1" class="g1_20" />
<path d="M406.5,122.5l0,-65" class="g2_20" />
<path d="M730.5,122.5l0,-65" class="g1_20" />
<path d="M731.5,123.5l0,-60" class="g2_20" />
<path d="M202.5,130.5l0,-7" class="g1_20" />
<path d="M731.5,130.5l0,-7" class="g2_20" />
<path d="M202.5,125.5l0,-2" class="g2_20" />
<path d="M202.5,125.5l203,0" class="g2_20" />
<path d="M405.5,125.5l0,-2" class="g1_20" />
<path d="M405.5,125.5l0,-2" class="g2_20" />
<path d="M202.5,191.5l0,-1" class="g2_20" />
<path d="M202.5,191.5l204,0" class="g1_20" />
<path d="M405.5,191.5l0,-1" class="g1_20" />
<path d="M202.5,190.5l0,-65" class="g2_20" />
<path d="M405.5,190.5l0,-65" class="g1_20" />
<path d="M202.5,191.5l0,-61" class="g1_20" />
<path d="M406.5,125.5l0,-2" class="g2_20" />
<path d="M406.5,125.5l324,0" class="g2_20" />
<path d="M730.5,125.5l0,-2" class="g1_20" />
<path d="M730.5,125.5l0,-2" class="g2_20" />
<path d="M406.5,191.5l0,-1" class="g2_20" />
<path d="M406.5,191.5l325,0" class="g1_20" />
<path d="M730.5,191.5l0,-1" class="g1_20" />
<path d="M406.5,190.5l0,-65" class="g2_20" />
<path d="M730.5,190.5l0,-65" class="g1_20" />
<path d="M731.5,191.5l0,-61" class="g2_20" />
<path d="M202.5,198.5l0,-7" class="g1_20" />
<path d="M731.5,198.5l0,-7" class="g2_20" />
<path d="M202.5,192.5l0,-1" class="g2_20" />
<path d="M202.5,192.5l203,0" class="g2_20" />
<path d="M405.5,192.5l0,-1" class="g1_20" />
<path d="M405.5,192.5l0,-1" class="g2_20" />
<path d="M202.5,256.5l0,-1" class="g2_20" />
<path d="M202.5,256.5l204,0" class="g1_20" />
<path d="M405.5,256.5l0,-1" class="g1_20" />
<path d="M202.5,255.5l0,-63" class="g2_20" />
<path d="M405.5,255.5l0,-63" class="g1_20" />
<path d="M202.5,256.5l0,-58" class="g1_20" />
<path d="M406.5,192.5l0,-1" class="g2_20" />
<path d="M406.5,192.5l324,0" class="g2_20" />
<path d="M730.5,192.5l0,-1" class="g1_20" />
<path d="M730.5,192.5l0,-1" class="g2_20" />
<path d="M406.5,256.5l0,-1" class="g2_20" />
<path d="M406.5,256.5l325,0" class="g1_20" />
<path d="M730.5,256.5l0,-1" class="g1_20" />
<path d="M406.5,255.5l0,-63" class="g2_20" />
<path d="M730.5,255.5l0,-63" class="g1_20" />
<path d="M731.5,256.5l0,-58" class="g2_20" />
<path d="M202.5,263.5l0,-7" class="g1_20" />
<path d="M731.5,263.5l0,-7" class="g2_20" />
<path d="M202.5,257.5l0,-1" class="g2_20" />
<path d="M202.5,257.5l203,0" class="g2_20" />
<path d="M405.5,257.5l0,-1" class="g1_20" />
<path d="M405.5,257.5l0,-1" class="g2_20" />
<path d="M202.5,324.5l0,-1" class="g2_20" />
<path d="M202.5,324.5l204,0" class="g1_20" />
<path d="M405.5,324.5l0,-1" class="g1_20" />
<path d="M202.5,323.5l0,-66" class="g2_20" />
<path d="M405.5,323.5l0,-66" class="g1_20" />
<path d="M202.5,324.5l0,-61" class="g1_20" />
<path d="M406.5,257.5l0,-1" class="g2_20" />
<path d="M406.5,257.5l324,0" class="g2_20" />
<path d="M730.5,257.5l0,-1" class="g1_20" />
<path d="M730.5,257.5l0,-1" class="g2_20" />
<path d="M406.5,324.5l0,-1" class="g2_20" />
<path d="M406.5,324.5l325,0" class="g1_20" />
<path d="M730.5,324.5l0,-1" class="g1_20" />
<path d="M406.5,323.5l0,-66" class="g2_20" />
<path d="M730.5,323.5l0,-66" class="g1_20" />
<path d="M731.5,324.5l0,-61" class="g2_20" />
<path d="M202.5,331.5l0,-7" class="g1_20" />
<path d="M731.5,331.5l0,-7" class="g2_20" />
<path d="M202.5,325.5l0,-1" class="g2_20" />
<path d="M202.5,325.5l203,0" class="g2_20" />
<path d="M405.5,325.5l0,-1" class="g1_20" />
<path d="M405.5,325.5l0,-1" class="g2_20" />
<path d="M202.5,389.5l0,-1" class="g2_20" />
<path d="M202.5,389.5l204,0" class="g1_20" />
<path d="M405.5,389.5l0,-1" class="g1_20" />
<path d="M202.5,388.5l0,-63" class="g2_20" />
<path d="M405.5,388.5l0,-63" class="g1_20" />
<path d="M202.5,389.5l0,-58" class="g1_20" />
<path d="M406.5,325.5l0,-1" class="g2_20" />
<path d="M406.5,325.5l324,0" class="g2_20" />
<path d="M730.5,325.5l0,-1" class="g1_20" />
<path d="M730.5,325.5l0,-1" class="g2_20" />
<path d="M406.5,389.5l0,-1" class="g2_20" />
<path d="M406.5,389.5l325,0" class="g1_20" />
<path d="M730.5,389.5l0,-1" class="g1_20" />
<path d="M406.5,388.5l0,-63" class="g2_20" />
<path d="M730.5,388.5l0,-63" class="g1_20" />
<path d="M731.5,389.5l0,-58" class="g2_20" />
<path d="M202.5,396.5l0,-7" class="g1_20" />
<path d="M731.5,396.5l0,-7" class="g2_20" />
<path d="M202.5,390.5l0,-1" class="g2_20" />
<path d="M202.5,390.5l203,0" class="g2_20" />
<path d="M405.5,390.5l0,-1" class="g1_20" />
<path d="M405.5,390.5l0,-1" class="g2_20" />
<path d="M202.5,436.5l0,-1" class="g2_20" />
<path d="M202.5,436.5l204,0" class="g1_20" />
<path d="M405.5,436.5l0,-1" class="g1_20" />
<path d="M202.5,435.5l0,-45" class="g2_20" />
<path d="M405.5,435.5l0,-45" class="g1_20" />
<path d="M202.5,437.5l0,-41" class="g1_20" />
<path d="M202.5,437.5l204,0" class="g2_20" />
<path d="M406.5,390.5l0,-1" class="g2_20" />
<path d="M406.5,390.5l324,0" class="g2_20" />
<path d="M730.5,390.5l0,-1" class="g1_20" />
<path d="M730.5,390.5l0,-1" class="g2_20" />
<path d="M406.5,436.5l0,-1" class="g2_20" />
<path d="M406.5,436.5l325,0" class="g1_20" />
<path d="M730.5,436.5l0,-1" class="g1_20" />
<path d="M406.5,435.5l0,-45" class="g2_20" />
<path d="M730.5,435.5l0,-45" class="g1_20" />
<path d="M406.5,437.5l325,0" class="g2_20" />
<path d="M731.5,437.5l0,-41" class="g2_20" />
<path d="M731.5,437.5l0,-1" class="g2_20" />
<path d="M319,867l143,0l0,-40l-143,0l0,40Z" class="g3_20" />
<path d="M324,856l133,0l0,-18l-133,0l0,18Z" class="g3_20" />
<path d="M466,867l183,0l0,-40l-183,0l0,40Z" class="g3_20" />
<path d="M471,856l173,0l0,-18l-173,0l0,18Z" class="g3_20" />
<path d="M653,827l157,0l0,40l-157,0Z" class="g3_20" />
<path d="M658,856l147,0l0,-18l-147,0l0,18Z" class="g3_20" />
<path d="M122.5,833.5l0,-8" class="g1_20" />
<path d="M122.5,826.5l531,0" class="g1_20" />
<path d="M653.5,826.5l158,0" class="g1_20" />
<path d="M811.5,833.5l0,-8" class="g2_20" />
<path d="M811.5,826.5l0,-1" class="g1_20" />
<path d="M122.5,827.5l0,-1" class="g2_20" />
<path d="M122.5,827.5l195,0" class="g2_20" />
<path d="M317.5,827.5l0,-1" class="g1_20" />
<path d="M317.5,827.5l0,-1" class="g2_20" />
<path d="M122.5,868.5l0,-1" class="g2_20" />
<path d="M122.5,868.5l196,0" class="g1_20" />
<path d="M317.5,868.5l0,-1" class="g1_20" />
<path d="M122.5,867.5l0,-40" class="g2_20" />
<path d="M317.5,867.5l0,-40" class="g1_20" />
<path d="M122.5,868.5l0,-35" class="g1_20" />
<path d="M318.5,827.5l0,-1" class="g4_20" />
<path d="M318.5,827.5l147,0" class="g4_20" />
<path d="M464.5,827.5l0,-1" class="g4_20" />
<path d="M318.5,868.5l0,-1" class="g4_20" />
<path d="M318.5,868.5l147,0" class="g4_20" />
<path d="M464.5,868.5l0,-1" class="g4_20" />
<path d="M318,867l147,0l0,-6l-147,0l0,6Z" class="g3_20" />
<path d="M318,833l147,0l0,-6l-147,0l0,6Z" class="g3_20" />
<path d="M318.5,867.5l0,-40" class="g4_20" />
<path d="M464.5,867.5l0,-40" class="g4_20" />
<path d="M465.5,827.5l0,-1" class="g4_20" />
<path d="M465.5,827.5l187,0" class="g4_20" />
<path d="M650.5,827.5l0,-1" class="g4_20" />
<path d="M465.5,868.5l0,-1" class="g4_20" />
<path d="M465.5,868.5l187,0" class="g4_20" />
<path d="M650.5,868.5l0,-1" class="g4_20" />
<path d="M465,867l187,0l0,-6l-187,0l0,6Z" class="g3_20" />
<path d="M465,833l187,0l0,-6l-187,0l0,6Z" class="g3_20" />
<path d="M465.5,867.5l0,-40" class="g4_20" />
<path d="M650.5,867.5l0,-40" class="g4_20" />
<path d="M652.5,827.5l0,-1" class="g4_20" />
<path d="M652.5,827.5l0,-1" class="g4_20" />
<path d="M653.5,827.5l158,0" class="g4_20" />
<path d="M811.5,827.5l0,-1" class="g4_20" />
<path d="M811.5,827.5l0,-1" class="g4_20" />
<path d="M652.5,868.5l0,-1" class="g4_20" />
<path d="M652.5,868.5l0,-1" class="g4_20" />
<path d="M653.5,868.5l158,0" class="g4_20" />
<path d="M811.5,868.5l0,-1" class="g4_20" />
<path d="M811.5,868.5l0,-1" class="g4_20" />
<path d="M652,867l160,0l0,-6l-160,0l0,6Z" class="g3_20" />
<path d="M652,833l160,0l0,-6l-160,0l0,6Z" class="g3_20" />
<path d="M652.5,867.5l0,-40" class="g4_20" />
<path d="M811.5,867.5l0,-40" class="g4_20" />
<path d="M811.5,868.5l0,-35" class="g2_20" />
<path d="M122.5,875.5l0,-7" class="g1_20" />
<path d="M811.5,875.5l0,-7" class="g2_20" />
<path d="M122.5,869.5l0,-1" class="g2_20" />
<path d="M122.5,869.5l195,0" class="g2_20" />
<path d="M317.5,869.5l0,-1" class="g1_20" />
<path d="M317.5,869.5l0,-1" class="g2_20" />
<path d="M122.5,912.5l0,-1" class="g2_20" />
<path d="M122.5,912.5l196,0" class="g1_20" />
<path d="M317.5,912.5l0,-1" class="g1_20" />
<path d="M122.5,911.5l0,-42" class="g2_20" />
<path d="M317.5,911.5l0,-42" class="g1_20" />
<path d="M122.5,912.5l0,-37" class="g1_20" />
<path d="M318.5,869.5l0,-1" class="g4_20" />
<path d="M318.5,869.5l147,0" class="g4_20" />
<path d="M464.5,869.5l0,-1" class="g4_20" />
<path d="M318.5,912.5l0,-1" class="g4_20" />
<path d="M318.5,912.5l147,0" class="g4_20" />
<path d="M464.5,912.5l0,-1" class="g4_20" />
<path d="M318.5,911.5l0,-42" class="g4_20" />
<path d="M464.5,911.5l0,-42" class="g4_20" />
<path d="M465.5,869.5l0,-1" class="g4_20" />
<path d="M465.5,869.5l187,0" class="g4_20" />
<path d="M650.5,869.5l0,-1" class="g4_20" />
<path d="M465.5,912.5l0,-1" class="g4_20" />
<path d="M465.5,912.5l187,0" class="g4_20" />
<path d="M650.5,912.5l0,-1" class="g4_20" />
<path d="M465.5,911.5l0,-42" class="g4_20" />
<path d="M650.5,911.5l0,-42" class="g4_20" />
<path d="M652.5,869.5l0,-1" class="g4_20" />
<path d="M652.5,869.5l0,-1" class="g4_20" />
<path d="M653.5,869.5l158,0" class="g4_20" />
<path d="M811.5,869.5l0,-1" class="g4_20" />
<path d="M811.5,869.5l0,-1" class="g4_20" />
<path d="M652.5,912.5l0,-1" class="g4_20" />
<path d="M652.5,912.5l0,-1" class="g4_20" />
<path d="M653.5,912.5l158,0" class="g4_20" />
<path d="M811.5,912.5l0,-1" class="g4_20" />
<path d="M811.5,912.5l0,-1" class="g4_20" />
<path d="M652.5,911.5l0,-42" class="g4_20" />
<path d="M811.5,911.5l0,-42" class="g4_20" />
<path d="M811.5,912.5l0,-37" class="g2_20" />
<path d="M122.5,919.5l0,-7" class="g1_20" />
<path d="M811.5,919.5l0,-7" class="g2_20" />
<path d="M122.5,913.5l0,-1" class="g2_20" />
<path d="M122.5,913.5l195,0" class="g2_20" />
<path d="M317.5,913.5l0,-1" class="g1_20" />
<path d="M317.5,913.5l0,-1" class="g2_20" />
<path d="M122.5,948.5l0,-1" class="g2_20" />
<path d="M122.5,948.5l196,0" class="g1_20" />
<path d="M317.5,948.5l0,-1" class="g1_20" />
<path d="M122.5,947.5l0,-34" class="g2_20" />
<path d="M317.5,947.5l0,-34" class="g1_20" />
<path d="M122.5,948.5l0,-29" class="g1_20" />
<path d="M318.5,913.5l0,-1" class="g4_20" />
<path d="M318.5,913.5l147,0" class="g4_20" />
<path d="M464.5,913.5l0,-1" class="g4_20" />
<path d="M318.5,948.5l0,-1" class="g4_20" />
<path d="M318.5,948.5l147,0" class="g4_20" />
<path d="M464.5,948.5l0,-1" class="g4_20" />
<path d="M318.5,947.5l0,-34" class="g4_20" />
<path d="M464.5,947.5l0,-34" class="g4_20" />
<path d="M465.5,913.5l0,-1" class="g4_20" />
<path d="M465.5,913.5l187,0" class="g4_20" />
<path d="M650.5,913.5l0,-1" class="g4_20" />
<path d="M465.5,948.5l0,-1" class="g4_20" />
<path d="M465.5,948.5l187,0" class="g4_20" />
<path d="M650.5,948.5l0,-1" class="g4_20" />
<path d="M465.5,947.5l0,-34" class="g4_20" />
<path d="M650.5,947.5l0,-34" class="g4_20" />
<path d="M652.5,913.5l0,-1" class="g4_20" />
<path d="M652.5,913.5l0,-1" class="g4_20" />
<path d="M653.5,913.5l158,0" class="g4_20" />
<path d="M811.5,913.5l0,-1" class="g4_20" />
<path d="M811.5,913.5l0,-1" class="g4_20" />
<path d="M652.5,948.5l0,-1" class="g4_20" />
<path d="M652.5,948.5l0,-1" class="g4_20" />
<path d="M653.5,948.5l158,0" class="g4_20" />
<path d="M811.5,948.5l0,-1" class="g4_20" />
<path d="M811.5,948.5l0,-1" class="g4_20" />
<path d="M652.5,947.5l0,-34" class="g4_20" />
<path d="M811.5,947.5l0,-34" class="g4_20" />
<path d="M811.5,948.5l0,-29" class="g2_20" />
<path d="M122.5,954.5l0,-6" class="g1_20" />
<path d="M811.5,954.5l0,-6" class="g2_20" />
<path d="M122.5,949.5l0,-1" class="g2_20" />
<path d="M122.5,949.5l195,0" class="g2_20" />
<path d="M317.5,949.5l0,-1" class="g1_20" />
<path d="M317.5,949.5l0,-1" class="g2_20" />
<path d="M122.5,979.5l0,-1" class="g2_20" />
<path d="M122.5,979.5l196,0" class="g1_20" />
<path d="M317.5,979.5l0,-1" class="g1_20" />
<path d="M122.5,978.5l0,-29" class="g2_20" />
<path d="M317.5,978.5l0,-29" class="g1_20" />
<path d="M122.5,979.5l0,-25" class="g1_20" />
<path d="M318.5,949.5l0,-1" class="g4_20" />
<path d="M318.5,949.5l147,0" class="g4_20" />
<path d="M464.5,949.5l0,-1" class="g4_20" />
<path d="M318.5,979.5l0,-1" class="g4_20" />
<path d="M318.5,979.5l147,0" class="g4_20" />
<path d="M464.5,979.5l0,-1" class="g4_20" />
<path d="M318.5,978.5l0,-29" class="g4_20" />
<path d="M464.5,978.5l0,-29" class="g4_20" />
<path d="M465.5,949.5l0,-1" class="g4_20" />
<path d="M465.5,949.5l187,0" class="g4_20" />
<path d="M650.5,949.5l0,-1" class="g4_20" />
<path d="M465.5,979.5l0,-1" class="g4_20" />
<path d="M465.5,979.5l187,0" class="g4_20" />
<path d="M650.5,979.5l0,-1" class="g4_20" />
<path d="M465.5,978.5l0,-29" class="g4_20" />
<path d="M650.5,978.5l0,-29" class="g4_20" />
<path d="M652.5,949.5l0,-1" class="g4_20" />
<path d="M652.5,949.5l0,-1" class="g4_20" />
<path d="M653.5,949.5l158,0" class="g4_20" />
<path d="M811.5,949.5l0,-1" class="g4_20" />
<path d="M811.5,949.5l0,-1" class="g4_20" />
<path d="M652.5,979.5l0,-1" class="g4_20" />
<path d="M652.5,979.5l0,-1" class="g4_20" />
<path d="M653.5,979.5l158,0" class="g4_20" />
<path d="M811.5,979.5l0,-1" class="g4_20" />
<path d="M811.5,979.5l0,-1" class="g4_20" />
<path d="M652.5,978.5l0,-29" class="g4_20" />
<path d="M811.5,978.5l0,-29" class="g4_20" />
<path d="M811.5,979.5l0,-25" class="g2_20" />
<path d="M122.5,986.5l0,-7" class="g1_20" />
<path d="M811.5,986.5l0,-7" class="g2_20" />
<path d="M122.5,980.5l0,-1" class="g2_20" />
<path d="M122.5,980.5l195,0" class="g2_20" />
<path d="M317.5,980.5l0,-1" class="g1_20" />
<path d="M317.5,980.5l0,-1" class="g2_20" />
<path d="M122.5,1023.5l0,-1" class="g2_20" />
<path d="M122.5,1023.5l196,0" class="g1_20" />
<path d="M317.5,1023.5l0,-1" class="g1_20" />
<path d="M122.5,1022.5l0,-42" class="g2_20" />
<path d="M317.5,1022.5l0,-42" class="g1_20" />
<path d="M122.5,1023.5l0,-37" class="g1_20" />
<path d="M318.5,980.5l0,-1" class="g4_20" />
<path d="M318.5,980.5l147,0" class="g4_20" />
<path d="M464.5,980.5l0,-1" class="g4_20" />
<path d="M318.5,1023.5l0,-1" class="g4_20" />
<path d="M318.5,1023.5l147,0" class="g4_20" />
<path d="M464.5,1023.5l0,-1" class="g4_20" />
<path d="M318.5,1022.5l0,-42" class="g4_20" />
<path d="M464.5,1022.5l0,-42" class="g4_20" />
<path d="M465.5,980.5l0,-1" class="g4_20" />
<path d="M465.5,980.5l187,0" class="g4_20" />
<path d="M650.5,980.5l0,-1" class="g4_20" />
<path d="M465.5,1023.5l0,-1" class="g4_20" />
<path d="M465.5,1023.5l187,0" class="g4_20" />
<path d="M650.5,1023.5l0,-1" class="g4_20" />
<path d="M465.5,1022.5l0,-42" class="g4_20" />
<path d="M650.5,1022.5l0,-42" class="g4_20" />
<path d="M652.5,980.5l0,-1" class="g4_20" />
<path d="M652.5,980.5l0,-1" class="g4_20" />
<path d="M653.5,980.5l158,0" class="g4_20" />
<path d="M811.5,980.5l0,-1" class="g4_20" />
<path d="M811.5,980.5l0,-1" class="g4_20" />
<path d="M652.5,1023.5l0,-1" class="g4_20" />
<path d="M652.5,1023.5l0,-1" class="g4_20" />
<path d="M653.5,1023.5l158,0" class="g4_20" />
<path d="M811.5,1023.5l0,-1" class="g4_20" />
<path d="M811.5,1023.5l0,-1" class="g4_20" />
<path d="M652.5,1022.5l0,-42" class="g4_20" />
<path d="M811.5,1022.5l0,-42" class="g4_20" />
<path d="M811.5,1023.5l0,-37" class="g2_20" />
<path d="M122.5,1030.5l0,-7" class="g1_20" />
<path d="M811.5,1030.5l0,-7" class="g2_20" />
<path d="M122.5,1024.5l0,-1" class="g2_20" />
<path d="M122.5,1024.5l195,0" class="g2_20" />
<path d="M317.5,1024.5l0,-1" class="g1_20" />
<path d="M317.5,1024.5l0,-1" class="g2_20" />
<path d="M122.5,1055.5l0,-2" class="g2_20" />
<path d="M122.5,1055.5l196,0" class="g1_20" />
<path d="M317.5,1055.5l0,-2" class="g1_20" />
<path d="M122.5,1053.5l0,-29" class="g2_20" />
<path d="M317.5,1053.5l0,-29" class="g1_20" />
<path d="M122.5,1056.5l0,-26" class="g1_20" />
<path d="M122.5,1056.5l196,0" class="g2_20" />
<path d="M318.5,1024.5l0,-1" class="g4_20" />
<path d="M318.5,1024.5l147,0" class="g4_20" />
<path d="M464.5,1024.5l0,-1" class="g4_20" />
<path d="M318.5,1055.5l0,-2" class="g4_20" />
<path d="M318.5,1055.5l147,0" class="g4_20" />
<path d="M464.5,1055.5l0,-2" class="g4_20" />
<path d="M318.5,1053.5l0,-29" class="g4_20" />
<path d="M464.5,1053.5l0,-29" class="g4_20" />
<path d="M318.5,1056.5l147,0" class="g2_20" />
<path d="M465.5,1024.5l0,-1" class="g4_20" />
<path d="M465.5,1024.5l187,0" class="g4_20" />
<path d="M650.5,1024.5l0,-1" class="g4_20" />
<path d="M465.5,1055.5l0,-2" class="g4_20" />
<path d="M465.5,1055.5l187,0" class="g4_20" />
<path d="M650.5,1055.5l0,-2" class="g4_20" />
<path d="M465.5,1053.5l0,-29" class="g4_20" />
<path d="M650.5,1053.5l0,-29" class="g4_20" />
<path d="M465.5,1056.5l187,0" class="g2_20" />
<path d="M652.5,1024.5l0,-1" class="g4_20" />
<path d="M652.5,1024.5l0,-1" class="g4_20" />
<path d="M653.5,1024.5l158,0" class="g4_20" />
<path d="M811.5,1024.5l0,-1" class="g4_20" />
<path d="M811.5,1024.5l0,-1" class="g4_20" />
<path d="M652.5,1055.5l0,-2" class="g4_20" />
<path d="M652.5,1055.5l0,-2" class="g4_20" />
<path d="M653.5,1055.5l158,0" class="g4_20" />
<path d="M811.5,1055.5l0,-2" class="g4_20" />
<path d="M811.5,1055.5l0,-2" class="g4_20" />
<path d="M652.5,1053.5l0,-29" class="g4_20" />
<path d="M811.5,1053.5l0,-29" class="g4_20" />
<path d="M652.5,1056.5l0,-1" class="g2_20" />
<path d="M653.5,1056.5l158,0" class="g2_20" />
<path d="M811.5,1056.5l0,-26" class="g2_20" />
<path d="M811.5,1056.5l0,-1" class="g2_20" />
</svg>