<?xml version="1.0" encoding="UTF-8" standalone="no"?>
<!DOCTYPE svg PUBLIC "-//W3C//DTD SVG 1.1//EN"
"http://www.w3.org/Graphics/SVG/1.1/DTD/svg11.dtd">
<svg version="1.1" xmlns="http://www.w3.org/2000/svg" xmlns:xlink="http://www.w3.org/1999/xlink">
<defs>
<style type="text/css"><![CDATA[
.g1_66{
fill: #CCCCCC;
}
.g2_66{
fill: none;
stroke: #EFEFEF;
stroke-width: 1;
stroke-linecap: butt;
stroke-linejoin: miter;
}
.g4_66{
fill: none;
stroke: #CCCCCC;
stroke-width: 1;
stroke-linecap: butt;
stroke-linejoin: miter;
}
.g3_66{
fill: none;
stroke: #A0A0A0;
stroke-width: 1;
stroke-linecap: butt;
stroke-linejoin: miter;
}
]]></style>
</defs>
<path d="M108,1043l229,0l0,-46l-229,0l0,46Z" class="g1_66" />
<path d="M110,1031l226,0l0,-22l-226,0l0,22Z" class="g1_66" />
<path d="M342,1043l125,0l0,-46l-125,0l0,46Z" class="g1_66" />
<path d="M343,1031l123,0l0,-22l-123,0l0,22Z" class="g1_66" />
<path d="M472,1043l91,0l0,-46l-91,0l0,46Z" class="g1_66" />
<path d="M473,1031l89,0l0,-22l-89,0l0,22Z" class="g1_66" />
<path d="M567,1043l41,0l0,-46l-41,0l0,46Z" class="g1_66" />
<path d="M569,1031l37,0l0,-22l-37,0l0,22Z" class="g1_66" />
<path d="M612,1043l66,0l0,-46l-66,0l0,46Z" class="g1_66" />
<path d="M613,1031l64,0l0,-22l-64,0l0,22Z" class="g1_66" />
<path d="M682,1043l40,0l0,-46l-40,0l0,46Z" class="g1_66" />
<path d="M683,1031l38,0l0,-22l-38,0l0,22Z" class="g1_66" />
<path d="M727,1043l54,0l0,-46l-54,0l0,46Z" class="g1_66" />
<path d="M728,1020l52,0l0,-21l-52,0l0,21Z" class="g1_66" />
<path d="M728,1041l52,0l0,-21l-52,0l0,21Z" class="g1_66" />
<path d="M786,1043l40,0l0,-46l-40,0l0,46Z" class="g1_66" />
<path d="M787,1031l38,0l0,-22l-38,0l0,22Z" class="g1_66" />
<path d="M104.5,999.5l0,-6" class="g2_66" />
<path d="M104.5,994.5l725,0" class="g2_66" />
<path d="M829.5,999.5l0,-6" class="g3_66" />
<path d="M829.5,994.5l0,-1" class="g2_66" />
<path d="M107.5,997.5l0,-1" class="g3_66" />
<path d="M107.5,997.5l230,0" class="g3_66" />
<path d="M337.5,997.5l0,-1" class="g2_66" />
<path d="M337.5,997.5l0,-1" class="g3_66" />
<path d="M105.5,997.5l2,0" class="g4_66" />
<path d="M338.5,997.5l0,-1" class="g4_66" />
<path d="M105,996l235,0l0,-2l-235,0l0,2Z" class="g1_66" />
<path d="M107.5,1044.5l0,-1" class="g3_66" />
<path d="M107.5,1044.5l231,0" class="g2_66" />
<path d="M337.5,1044.5l0,-1" class="g2_66" />
<path d="M105.5,1044.5l2,0" class="g4_66" />
<path d="M338.5,1044.5l0,-1" class="g4_66" />
<path d="M105.5,1045.5l235,0" class="g4_66" />
<path d="M107.5,1043.5l231,0" class="g4_66" />
<path d="M107.5,999.5l231,0" class="g4_66" />
<path d="M107.5,1043.5l0,-46" class="g3_66" />
<path d="M105,1043l2,0l0,-46l-2,0l0,46Z" class="g1_66" />
<path d="M337.5,1043.5l0,-46" class="g2_66" />
<path d="M338.5,1043.5l0,-46" class="g4_66" />
<path d="M104.5,1045.5l0,-46" class="g2_66" />
<path d="M341.5,997.5l0,-1" class="g3_66" />
<path d="M341.5,997.5l126,0" class="g3_66" />
<path d="M467.5,997.5l0,-1" class="g2_66" />
<path d="M467.5,997.5l0,-1" class="g3_66" />
<path d="M340.5,997.5l0,-1" class="g4_66" />
<path d="M468.5,997.5l0,-1" class="g4_66" />
<path d="M340,996l130,0l0,-2l-130,0l0,2Z" class="g1_66" />
<path d="M341.5,1044.5l0,-1" class="g3_66" />
<path d="M341.5,1044.5l127,0" class="g2_66" />
<path d="M467.5,1044.5l0,-1" class="g2_66" />
<path d="M340.5,1044.5l0,-1" class="g4_66" />
<path d="M468.5,1044.5l0,-1" class="g4_66" />
<path d="M340.5,1045.5l130,0" class="g4_66" />
<path d="M341.5,1043.5l127,0" class="g4_66" />
<path d="M341.5,999.5l127,0" class="g4_66" />
<path d="M341.5,1043.5l0,-46" class="g3_66" />
<path d="M340.5,1043.5l0,-46" class="g4_66" />
<path d="M467.5,1043.5l0,-46" class="g2_66" />
<path d="M468.5,1043.5l0,-46" class="g4_66" />
<path d="M471.5,997.5l0,-1" class="g3_66" />
<path d="M471.5,997.5l92,0" class="g3_66" />
<path d="M563.5,997.5l0,-1" class="g2_66" />
<path d="M563.5,997.5l0,-1" class="g3_66" />
<path d="M470.5,997.5l0,-1" class="g4_66" />
<path d="M564.5,997.5l0,-1" class="g4_66" />
<path d="M470,996l95,0l0,-2l-95,0l0,2Z" class="g1_66" />
<path d="M471.5,1044.5l0,-1" class="g3_66" />
<path d="M471.5,1044.5l93,0" class="g2_66" />
<path d="M563.5,1044.5l0,-1" class="g2_66" />
<path d="M470.5,1044.5l0,-1" class="g4_66" />
<path d="M564.5,1044.5l0,-1" class="g4_66" />
<path d="M470.5,1045.5l95,0" class="g4_66" />
<path d="M471.5,1043.5l93,0" class="g4_66" />
<path d="M471.5,999.5l93,0" class="g4_66" />
<path d="M471.5,1043.5l0,-46" class="g3_66" />
<path d="M470.5,1043.5l0,-46" class="g4_66" />
<path d="M563.5,1043.5l0,-46" class="g2_66" />
<path d="M564.5,1043.5l0,-46" class="g4_66" />
<path d="M566.5,997.5l0,-1" class="g3_66" />
<path d="M566.5,997.5l42,0" class="g3_66" />
<path d="M608.5,997.5l0,-1" class="g2_66" />
<path d="M608.5,997.5l0,-1" class="g3_66" />
<path d="M565.5,997.5l0,-1" class="g4_66" />
<path d="M609.5,997.5l0,-1" class="g4_66" />
<path d="M565,996l45,0l0,-2l-45,0l0,2Z" class="g1_66" />
<path d="M566.5,1044.5l0,-1" class="g3_66" />
<path d="M566.5,1044.5l43,0" class="g2_66" />
<path d="M608.5,1044.5l0,-1" class="g2_66" />
<path d="M565.5,1044.5l0,-1" class="g4_66" />
<path d="M609.5,1044.5l0,-1" class="g4_66" />
<path d="M565.5,1045.5l45,0" class="g4_66" />
<path d="M566.5,1043.5l43,0" class="g4_66" />
<path d="M566.5,999.5l43,0" class="g4_66" />
<path d="M566.5,1043.5l0,-46" class="g3_66" />
<path d="M565.5,1043.5l0,-46" class="g4_66" />
<path d="M608.5,1043.5l0,-46" class="g2_66" />
<path d="M609.5,1043.5l0,-46" class="g4_66" />
<path d="M611.5,997.5l0,-1" class="g3_66" />
<path d="M611.5,997.5l67,0" class="g3_66" />
<path d="M678.5,997.5l0,-1" class="g2_66" />
<path d="M678.5,997.5l0,-1" class="g3_66" />
<path d="M610.5,997.5l0,-1" class="g4_66" />
<path d="M679.5,997.5l0,-1" class="g4_66" />
<path d="M610,996l70,0l0,-2l-70,0l0,2Z" class="g1_66" />
<path d="M611.5,1044.5l0,-1" class="g3_66" />
<path d="M611.5,1044.5l68,0" class="g2_66" />
<path d="M678.5,1044.5l0,-1" class="g2_66" />
<path d="M610.5,1044.5l0,-1" class="g4_66" />
<path d="M679.5,1044.5l0,-1" class="g4_66" />
<path d="M610.5,1045.5l70,0" class="g4_66" />
<path d="M611.5,1043.5l68,0" class="g4_66" />
<path d="M611.5,999.5l68,0" class="g4_66" />
<path d="M611.5,1043.5l0,-46" class="g3_66" />
<path d="M610.5,1043.5l0,-46" class="g4_66" />
<path d="M678.5,1043.5l0,-46" class="g2_66" />
<path d="M679.5,1043.5l0,-46" class="g4_66" />
<path d="M681.5,997.5l0,-1" class="g3_66" />
<path d="M681.5,997.5l41,0" class="g3_66" />
<path d="M722.5,997.5l0,-1" class="g2_66" />
<path d="M722.5,997.5l0,-1" class="g3_66" />
<path d="M680.5,997.5l0,-1" class="g4_66" />
<path d="M723.5,997.5l0,-1" class="g4_66" />
<path d="M680,996l45,0l0,-2l-45,0l0,2Z" class="g1_66" />
<path d="M681.5,1044.5l0,-1" class="g3_66" />
<path d="M681.5,1044.5l42,0" class="g2_66" />
<path d="M722.5,1044.5l0,-1" class="g2_66" />
<path d="M680.5,1044.5l0,-1" class="g4_66" />
<path d="M723.5,1044.5l0,-1" class="g4_66" />
<path d="M680.5,1045.5l45,0" class="g4_66" />
<path d="M681.5,1043.5l42,0" class="g4_66" />
<path d="M681.5,999.5l42,0" class="g4_66" />
<path d="M681.5,1043.5l0,-46" class="g3_66" />
<path d="M680.5,1043.5l0,-46" class="g4_66" />
<path d="M722.5,1043.5l0,-46" class="g2_66" />
<path d="M723.5,1043.5l0,-46" class="g4_66" />
<path d="M726.5,997.5l0,-1" class="g3_66" />
<path d="M726.5,997.5l55,0" class="g3_66" />
<path d="M781.5,997.5l0,-1" class="g2_66" />
<path d="M781.5,997.5l0,-1" class="g3_66" />
<path d="M725.5,997.5l0,-1" class="g4_66" />
<path d="M782.5,997.5l0,-1" class="g4_66" />
<path d="M725,996l58,0l0,-2l-58,0l0,2Z" class="g1_66" />
<path d="M726.5,1044.5l0,-1" class="g3_66" />
<path d="M726.5,1044.5l56,0" class="g2_66" />
<path d="M781.5,1044.5l0,-1" class="g2_66" />
<path d="M725.5,1044.5l0,-1" class="g4_66" />
<path d="M782.5,1044.5l0,-1" class="g4_66" />
<path d="M725.5,1045.5l58,0" class="g4_66" />
<path d="M726.5,1043.5l56,0" class="g4_66" />
<path d="M726.5,999.5l56,0" class="g4_66" />
<path d="M726.5,1043.5l0,-46" class="g3_66" />
<path d="M725.5,1043.5l0,-46" class="g4_66" />
<path d="M781.5,1043.5l0,-46" class="g2_66" />
<path d="M782.5,1043.5l0,-46" class="g4_66" />
<path d="M784.5,997.5l0,-1" class="g3_66" />
<path d="M784.5,997.5l42,0" class="g3_66" />
<path d="M826.5,997.5l0,-1" class="g2_66" />
<path d="M826.5,997.5l0,-1" class="g3_66" />
<path d="M783.5,997.5l0,-1" class="g4_66" />
<path d="M827.5,997.5l2,0" class="g4_66" />
<path d="M783,996l46,0l0,-2l-46,0l0,2Z" class="g1_66" />
<path d="M784.5,1044.5l0,-1" class="g3_66" />
<path d="M784.5,1044.5l43,0" class="g2_66" />
<path d="M826.5,1044.5l0,-1" class="g2_66" />
<path d="M783.5,1044.5l0,-1" class="g4_66" />
<path d="M827.5,1044.5l2,0" class="g4_66" />
<path d="M783.5,1045.5l46,0" class="g4_66" />
<path d="M784.5,1043.5l43,0" class="g4_66" />
<path d="M784.5,999.5l43,0" class="g4_66" />
<path d="M784.5,1043.5l0,-46" class="g3_66" />
<path d="M783.5,1043.5l0,-46" class="g4_66" />
<path d="M826.5,1043.5l0,-46" class="g2_66" />
<path d="M827,1043l2,0l0,-46l-2,0l0,46Z" class="g1_66" />
<path d="M829.5,1045.5l0,-46" class="g3_66" />
<path d="M108,1092l229,0l0,-45l-229,0l0,45Z" class="g1_66" />
<path d="M110,1080l226,0l0,-21l-226,0l0,21Z" class="g1_66" />
<path d="M342,1092l125,0l0,-45l-125,0l0,45Z" class="g1_66" />
<path d="M343,1080l123,0l0,-21l-123,0l0,21Z" class="g1_66" />
<path d="M472,1092l91,0l0,-45l-91,0l0,45Z" class="g1_66" />
<path d="M473,1070l89,0l0,-22l-89,0l0,22Z" class="g1_66" />
<path d="M473,1091l89,0l0,-21l-89,0l0,21Z" class="g1_66" />
<path d="M567,1092l41,0l0,-45l-41,0l0,45Z" class="g1_66" />
<path d="M569,1080l37,0l0,-21l-37,0l0,21Z" class="g1_66" />
<path d="M612,1092l66,0l0,-45l-66,0l0,45Z" class="g1_66" />
<path d="M613,1080l64,0l0,-21l-64,0l0,21Z" class="g1_66" />
<path d="M682,1092l40,0l0,-45l-40,0l0,45Z" class="g1_66" />
<path d="M683,1080l38,0l0,-21l-38,0l0,21Z" class="g1_66" />
<path d="M727,1092l54,0l0,-45l-54,0l0,45Z" class="g1_66" />
<path d="M728,1080l52,0l0,-21l-52,0l0,21Z" class="g1_66" />
<path d="M786,1092l40,0l0,-45l-40,0l0,45Z" class="g1_66" />
<path d="M787,1080l38,0l0,-21l-38,0l0,21Z" class="g1_66" />
<path d="M104.5,1048.5l0,-3" class="g2_66" />
<path d="M829.5,1048.5l0,-3" class="g3_66" />
<path d="M107.5,1047.5l0,-1" class="g3_66" />
<path d="M107.5,1047.5l230,0" class="g3_66" />
<path d="M337.5,1047.5l0,-1" class="g2_66" />
<path d="M337.5,1047.5l0,-1" class="g3_66" />
<path d="M105.5,1047.5l2,0" class="g4_66" />
<path d="M338.5,1047.5l0,-1" class="g4_66" />
<path d="M105.5,1046.5l235,0" class="g4_66" />
<path d="M107.5,1093.5l0,-1" class="g3_66" />
<path d="M107.5,1093.5l231,0" class="g2_66" />
<path d="M337.5,1093.5l0,-1" class="g2_66" />
<path d="M105.5,1093.5l2,0" class="g4_66" />
<path d="M338.5,1093.5l0,-1" class="g4_66" />
<path d="M105.5,1095.5l235,0" class="g4_66" />
<path d="M107.5,1092.5l231,0" class="g4_66" />
<path d="M107.5,1048.5l231,0" class="g4_66" />
<path d="M107.5,1092.5l0,-45" class="g3_66" />
<path d="M105,1092l2,0l0,-45l-2,0l0,45Z" class="g1_66" />
<path d="M337.5,1092.5l0,-45" class="g2_66" />
<path d="M338.5,1092.5l0,-45" class="g4_66" />
<path d="M104.5,1095.5l0,-47" class="g2_66" />
<path d="M341.5,1047.5l0,-1" class="g3_66" />
<path d="M341.5,1047.5l126,0" class="g3_66" />
<path d="M467.5,1047.5l0,-1" class="g2_66" />
<path d="M467.5,1047.5l0,-1" class="g3_66" />
<path d="M340.5,1047.5l0,-1" class="g4_66" />
<path d="M468.5,1047.5l0,-1" class="g4_66" />
<path d="M340.5,1046.5l130,0" class="g4_66" />
<path d="M341.5,1093.5l0,-1" class="g3_66" />
<path d="M341.5,1093.5l127,0" class="g2_66" />
<path d="M467.5,1093.5l0,-1" class="g2_66" />
<path d="M340.5,1093.5l0,-1" class="g4_66" />
<path d="M468.5,1093.5l0,-1" class="g4_66" />
<path d="M340.5,1095.5l130,0" class="g4_66" />
<path d="M341.5,1092.5l127,0" class="g4_66" />
<path d="M341.5,1048.5l127,0" class="g4_66" />
<path d="M341.5,1092.5l0,-45" class="g3_66" />
<path d="M340.5,1092.5l0,-45" class="g4_66" />
<path d="M467.5,1092.5l0,-45" class="g2_66" />
<path d="M468.5,1092.5l0,-45" class="g4_66" />
<path d="M471.5,1047.5l0,-1" class="g3_66" />
<path d="M471.5,1047.5l92,0" class="g3_66" />
<path d="M563.5,1047.5l0,-1" class="g2_66" />
<path d="M563.5,1047.5l0,-1" class="g3_66" />
<path d="M470.5,1047.5l0,-1" class="g4_66" />
<path d="M564.5,1047.5l0,-1" class="g4_66" />
<path d="M470.5,1046.5l95,0" class="g4_66" />
<path d="M471.5,1093.5l0,-1" class="g3_66" />
<path d="M471.5,1093.5l93,0" class="g2_66" />
<path d="M563.5,1093.5l0,-1" class="g2_66" />
<path d="M470.5,1093.5l0,-1" class="g4_66" />
<path d="M564.5,1093.5l0,-1" class="g4_66" />
<path d="M470.5,1095.5l95,0" class="g4_66" />
<path d="M471.5,1092.5l93,0" class="g4_66" />
<path d="M471.5,1048.5l93,0" class="g4_66" />
<path d="M471.5,1092.5l0,-45" class="g3_66" />
<path d="M470.5,1092.5l0,-45" class="g4_66" />
<path d="M563.5,1092.5l0,-45" class="g2_66" />
<path d="M564.5,1092.5l0,-45" class="g4_66" />
<path d="M566.5,1047.5l0,-1" class="g3_66" />
<path d="M566.5,1047.5l42,0" class="g3_66" />
<path d="M608.5,1047.5l0,-1" class="g2_66" />
<path d="M608.5,1047.5l0,-1" class="g3_66" />
<path d="M565.5,1047.5l0,-1" class="g4_66" />
<path d="M609.5,1047.5l0,-1" class="g4_66" />
<path d="M565.5,1046.5l45,0" class="g4_66" />
<path d="M566.5,1093.5l0,-1" class="g3_66" />
<path d="M566.5,1093.5l43,0" class="g2_66" />
<path d="M608.5,1093.5l0,-1" class="g2_66" />
<path d="M565.5,1093.5l0,-1" class="g4_66" />
<path d="M609.5,1093.5l0,-1" class="g4_66" />
<path d="M565.5,1095.5l45,0" class="g4_66" />
<path d="M566.5,1092.5l43,0" class="g4_66" />
<path d="M566.5,1048.5l43,0" class="g4_66" />
<path d="M566.5,1092.5l0,-45" class="g3_66" />
<path d="M565.5,1092.5l0,-45" class="g4_66" />
<path d="M608.5,1092.5l0,-45" class="g2_66" />
<path d="M609.5,1092.5l0,-45" class="g4_66" />
<path d="M611.5,1047.5l0,-1" class="g3_66" />
<path d="M611.5,1047.5l67,0" class="g3_66" />
<path d="M678.5,1047.5l0,-1" class="g2_66" />
<path d="M678.5,1047.5l0,-1" class="g3_66" />
<path d="M610.5,1047.5l0,-1" class="g4_66" />
<path d="M679.5,1047.5l0,-1" class="g4_66" />
<path d="M610.5,1046.5l70,0" class="g4_66" />
<path d="M611.5,1093.5l0,-1" class="g3_66" />
<path d="M611.5,1093.5l68,0" class="g2_66" />
<path d="M678.5,1093.5l0,-1" class="g2_66" />
<path d="M610.5,1093.5l0,-1" class="g4_66" />
<path d="M679.5,1093.5l0,-1" class="g4_66" />
<path d="M610.5,1095.5l70,0" class="g4_66" />
<path d="M611.5,1092.5l68,0" class="g4_66" />
<path d="M611.5,1048.5l68,0" class="g4_66" />
<path d="M611.5,1092.5l0,-45" class="g3_66" />
<path d="M610.5,1092.5l0,-45" class="g4_66" />
<path d="M678.5,1092.5l0,-45" class="g2_66" />
<path d="M679.5,1092.5l0,-45" class="g4_66" />
<path d="M681.5,1047.5l0,-1" class="g3_66" />
<path d="M681.5,1047.5l41,0" class="g3_66" />
<path d="M722.5,1047.5l0,-1" class="g2_66" />
<path d="M722.5,1047.5l0,-1" class="g3_66" />
<path d="M680.5,1047.5l0,-1" class="g4_66" />
<path d="M723.5,1047.5l0,-1" class="g4_66" />
<path d="M680.5,1046.5l45,0" class="g4_66" />
<path d="M681.5,1093.5l0,-1" class="g3_66" />
<path d="M681.5,1093.5l42,0" class="g2_66" />
<path d="M722.5,1093.5l0,-1" class="g2_66" />
<path d="M680.5,1093.5l0,-1" class="g4_66" />
<path d="M723.5,1093.5l0,-1" class="g4_66" />
<path d="M680.5,1095.5l45,0" class="g4_66" />
<path d="M681.5,1092.5l42,0" class="g4_66" />
<path d="M681.5,1048.5l42,0" class="g4_66" />
<path d="M681.5,1092.5l0,-45" class="g3_66" />
<path d="M680.5,1092.5l0,-45" class="g4_66" />
<path d="M722.5,1092.5l0,-45" class="g2_66" />
<path d="M723.5,1092.5l0,-45" class="g4_66" />
<path d="M726.5,1047.5l0,-1" class="g3_66" />
<path d="M726.5,1047.5l55,0" class="g3_66" />
<path d="M781.5,1047.5l0,-1" class="g2_66" />
<path d="M781.5,1047.5l0,-1" class="g3_66" />
<path d="M725.5,1047.5l0,-1" class="g4_66" />
<path d="M782.5,1047.5l0,-1" class="g4_66" />
<path d="M725.5,1046.5l58,0" class="g4_66" />
<path d="M726.5,1093.5l0,-1" class="g3_66" />
<path d="M726.5,1093.5l56,0" class="g2_66" />
<path d="M781.5,1093.5l0,-1" class="g2_66" />
<path d="M725.5,1093.5l0,-1" class="g4_66" />
<path d="M782.5,1093.5l0,-1" class="g4_66" />
<path d="M725.5,1095.5l58,0" class="g4_66" />
<path d="M726.5,1092.5l56,0" class="g4_66" />
<path d="M726.5,1048.5l56,0" class="g4_66" />
<path d="M726.5,1092.5l0,-45" class="g3_66" />
<path d="M725.5,1092.5l0,-45" class="g4_66" />
<path d="M781.5,1092.5l0,-45" class="g2_66" />
<path d="M782.5,1092.5l0,-45" class="g4_66" />
<path d="M784.5,1047.5l0,-1" class="g3_66" />
<path d="M784.5,1047.5l42,0" class="g3_66" />
<path d="M826.5,1047.5l0,-1" class="g2_66" />
<path d="M826.5,1047.5l0,-1" class="g3_66" />
<path d="M783.5,1047.5l0,-1" class="g4_66" />
<path d="M827.5,1047.5l2,0" class="g4_66" />
<path d="M783.5,1046.5l46,0" class="g4_66" />
<path d="M784.5,1093.5l0,-1" class="g3_66" />
<path d="M784.5,1093.5l43,0" class="g2_66" />
<path d="M826.5,1093.5l0,-1" class="g2_66" />
<path d="M783.5,1093.5l0,-1" class="g4_66" />
<path d="M827.5,1093.5l2,0" class="g4_66" />
<path d="M783.5,1095.5l46,0" class="g4_66" />
<path d="M784.5,1092.5l43,0" class="g4_66" />
<path d="M784.5,1048.5l43,0" class="g4_66" />
<path d="M784.5,1092.5l0,-45" class="g3_66" />
<path d="M783.5,1092.5l0,-45" class="g4_66" />
<path d="M826.5,1092.5l0,-45" class="g2_66" />
<path d="M827,1092l2,0l0,-45l-2,0l0,45Z" class="g1_66" />
<path d="M829.5,1095.5l0,-47" class="g3_66" />
<path d="M108,1121l229,0l0,-24l-229,0l0,24Z" class="g1_66" />
<path d="M110,1119l226,0l0,-21l-226,0l0,21Z" class="g1_66" />
<path d="M342,1121l125,0l0,-24l-125,0l0,24Z" class="g1_66" />
<path d="M343,1119l123,0l0,-21l-123,0l0,21Z" class="g1_66" />
<path d="M472,1121l91,0l0,-24l-91,0l0,24Z" class="g1_66" />
<path d="M473,1119l89,0l0,-21l-89,0l0,21Z" class="g1_66" />
<path d="M567,1121l41,0l0,-24l-41,0l0,24Z" class="g1_66" />
<path d="M569,1119l37,0l0,-21l-37,0l0,21Z" class="g1_66" />
<path d="M612,1121l66,0l0,-24l-66,0l0,24Z" class="g1_66" />
<path d="M613,1119l64,0l0,-21l-64,0l0,21Z" class="g1_66" />
<path d="M682,1121l40,0l0,-24l-40,0l0,24Z" class="g1_66" />
<path d="M683,1119l38,0l0,-21l-38,0l0,21Z" class="g1_66" />
<path d="M727,1121l54,0l0,-24l-54,0l0,24Z" class="g1_66" />
<path d="M728,1119l52,0l0,-21l-52,0l0,21Z" class="g1_66" />
<path d="M786,1121l40,0l0,-24l-40,0l0,24Z" class="g1_66" />
<path d="M787,1119l38,0l0,-21l-38,0l0,21Z" class="g1_66" />
<path d="M104.5,1098.5l0,-3" class="g2_66" />
<path d="M829.5,1098.5l0,-3" class="g3_66" />
<path d="M107.5,1097.5l0,-1" class="g3_66" />
<path d="M107.5,1097.5l230,0" class="g3_66" />
<path d="M337.5,1097.5l0,-1" class="g2_66" />
<path d="M337.5,1097.5l0,-1" class="g3_66" />
<path d="M105.5,1097.5l2,0" class="g4_66" />
<path d="M338.5,1097.5l0,-1" class="g4_66" />
<path d="M105.5,1096.5l235,0" class="g4_66" />
<path d="M107.5,1122.5l0,-1" class="g3_66" />
<path d="M107.5,1122.5l231,0" class="g2_66" />
<path d="M337.5,1122.5l0,-1" class="g2_66" />
<path d="M105.5,1122.5l2,0" class="g4_66" />
<path d="M338.5,1122.5l0,-1" class="g4_66" />
<path d="M105.5,1123.5l235,0" class="g4_66" />
<path d="M107.5,1121.5l231,0" class="g4_66" />
<path d="M107.5,1098.5l231,0" class="g4_66" />
<path d="M107.5,1121.5l0,-24" class="g3_66" />
<path d="M105,1121l2,0l0,-24l-2,0l0,24Z" class="g1_66" />
<path d="M337.5,1121.5l0,-24" class="g2_66" />
<path d="M338.5,1121.5l0,-24" class="g4_66" />
<path d="M104.5,1124.5l0,-26" class="g2_66" />
<path d="M104.5,1124.5l236,0" class="g3_66" />
<path d="M341.5,1097.5l0,-1" class="g3_66" />
<path d="M341.5,1097.5l126,0" class="g3_66" />
<path d="M467.5,1097.5l0,-1" class="g2_66" />
<path d="M467.5,1097.5l0,-1" class="g3_66" />
<path d="M340.5,1097.5l0,-1" class="g4_66" />
<path d="M468.5,1097.5l0,-1" class="g4_66" />
<path d="M340.5,1096.5l130,0" class="g4_66" />
<path d="M341.5,1122.5l0,-1" class="g3_66" />
<path d="M341.5,1122.5l127,0" class="g2_66" />
<path d="M467.5,1122.5l0,-1" class="g2_66" />
<path d="M340.5,1122.5l0,-1" class="g4_66" />
<path d="M468.5,1122.5l0,-1" class="g4_66" />
<path d="M340.5,1123.5l130,0" class="g4_66" />
<path d="M341.5,1121.5l127,0" class="g4_66" />
<path d="M341.5,1098.5l127,0" class="g4_66" />
<path d="M341.5,1121.5l0,-24" class="g3_66" />
<path d="M340.5,1121.5l0,-24" class="g4_66" />
<path d="M467.5,1121.5l0,-24" class="g2_66" />
<path d="M468.5,1121.5l0,-24" class="g4_66" />
<path d="M340.5,1124.5l130,0" class="g3_66" />
<path d="M471.5,1097.5l0,-1" class="g3_66" />
<path d="M471.5,1097.5l92,0" class="g3_66" />
<path d="M563.5,1097.5l0,-1" class="g2_66" />
<path d="M563.5,1097.5l0,-1" class="g3_66" />
<path d="M470.5,1097.5l0,-1" class="g4_66" />
<path d="M564.5,1097.5l0,-1" class="g4_66" />
<path d="M470.5,1096.5l95,0" class="g4_66" />
<path d="M471.5,1122.5l0,-1" class="g3_66" />
<path d="M471.5,1122.5l93,0" class="g2_66" />
<path d="M563.5,1122.5l0,-1" class="g2_66" />
<path d="M470.5,1122.5l0,-1" class="g4_66" />
<path d="M564.5,1122.5l0,-1" class="g4_66" />
<path d="M470.5,1123.5l95,0" class="g4_66" />
<path d="M471.5,1121.5l93,0" class="g4_66" />
<path d="M471.5,1098.5l93,0" class="g4_66" />
<path d="M471.5,1121.5l0,-24" class="g3_66" />
<path d="M470.5,1121.5l0,-24" class="g4_66" />
<path d="M563.5,1121.5l0,-24" class="g2_66" />
<path d="M564.5,1121.5l0,-24" class="g4_66" />
<path d="M470.5,1124.5l95,0" class="g3_66" />
<path d="M566.5,1097.5l0,-1" class="g3_66" />
<path d="M566.5,1097.5l42,0" class="g3_66" />
<path d="M608.5,1097.5l0,-1" class="g2_66" />
<path d="M608.5,1097.5l0,-1" class="g3_66" />
<path d="M565.5,1097.5l0,-1" class="g4_66" />
<path d="M609.5,1097.5l0,-1" class="g4_66" />
<path d="M565.5,1096.5l45,0" class="g4_66" />
<path d="M566.5,1122.5l0,-1" class="g3_66" />
<path d="M566.5,1122.5l43,0" class="g2_66" />
<path d="M608.5,1122.5l0,-1" class="g2_66" />
<path d="M565.5,1122.5l0,-1" class="g4_66" />
<path d="M609.5,1122.5l0,-1" class="g4_66" />
<path d="M565.5,1123.5l45,0" class="g4_66" />
<path d="M566.5,1121.5l43,0" class="g4_66" />
<path d="M566.5,1098.5l43,0" class="g4_66" />
<path d="M566.5,1121.5l0,-24" class="g3_66" />
<path d="M565.5,1121.5l0,-24" class="g4_66" />
<path d="M608.5,1121.5l0,-24" class="g2_66" />
<path d="M609.5,1121.5l0,-24" class="g4_66" />
<path d="M565.5,1124.5l45,0" class="g3_66" />
<path d="M611.5,1097.5l0,-1" class="g3_66" />
<path d="M611.5,1097.5l67,0" class="g3_66" />
<path d="M678.5,1097.5l0,-1" class="g2_66" />
<path d="M678.5,1097.5l0,-1" class="g3_66" />
<path d="M610.5,1097.5l0,-1" class="g4_66" />
<path d="M679.5,1097.5l0,-1" class="g4_66" />
<path d="M610.5,1096.5l70,0" class="g4_66" />
<path d="M611.5,1122.5l0,-1" class="g3_66" />
<path d="M611.5,1122.5l68,0" class="g2_66" />
<path d="M678.5,1122.5l0,-1" class="g2_66" />
<path d="M610.5,1122.5l0,-1" class="g4_66" />
<path d="M679.5,1122.5l0,-1" class="g4_66" />
<path d="M610.5,1123.5l70,0" class="g4_66" />
<path d="M611.5,1121.5l68,0" class="g4_66" />
<path d="M611.5,1098.5l68,0" class="g4_66" />
<path d="M611.5,1121.5l0,-24" class="g3_66" />
<path d="M610.5,1121.5l0,-24" class="g4_66" />
<path d="M678.5,1121.5l0,-24" class="g2_66" />
<path d="M679.5,1121.5l0,-24" class="g4_66" />
<path d="M610.5,1124.5l70,0" class="g3_66" />
<path d="M681.5,1097.5l0,-1" class="g3_66" />
<path d="M681.5,1097.5l41,0" class="g3_66" />
<path d="M722.5,1097.5l0,-1" class="g2_66" />
<path d="M722.5,1097.5l0,-1" class="g3_66" />
<path d="M680.5,1097.5l0,-1" class="g4_66" />
<path d="M723.5,1097.5l0,-1" class="g4_66" />
<path d="M680.5,1096.5l45,0" class="g4_66" />
<path d="M681.5,1122.5l0,-1" class="g3_66" />
<path d="M681.5,1122.5l42,0" class="g2_66" />
<path d="M722.5,1122.5l0,-1" class="g2_66" />
<path d="M680.5,1122.5l0,-1" class="g4_66" />
<path d="M723.5,1122.5l0,-1" class="g4_66" />
<path d="M680.5,1123.5l45,0" class="g4_66" />
<path d="M681.5,1121.5l42,0" class="g4_66" />
<path d="M681.5,1098.5l42,0" class="g4_66" />
<path d="M681.5,1121.5l0,-24" class="g3_66" />
<path d="M680.5,1121.5l0,-24" class="g4_66" />
<path d="M722.5,1121.5l0,-24" class="g2_66" />
<path d="M723.5,1121.5l0,-24" class="g4_66" />
<path d="M680.5,1124.5l45,0" class="g3_66" />
<path d="M726.5,1097.5l0,-1" class="g3_66" />
<path d="M726.5,1097.5l55,0" class="g3_66" />
<path d="M781.5,1097.5l0,-1" class="g2_66" />
<path d="M781.5,1097.5l0,-1" class="g3_66" />
<path d="M725.5,1097.5l0,-1" class="g4_66" />
<path d="M782.5,1097.5l0,-1" class="g4_66" />
<path d="M725.5,1096.5l58,0" class="g4_66" />
<path d="M726.5,1122.5l0,-1" class="g3_66" />
<path d="M726.5,1122.5l56,0" class="g2_66" />
<path d="M781.5,1122.5l0,-1" class="g2_66" />
<path d="M725.5,1122.5l0,-1" class="g4_66" />
<path d="M782.5,1122.5l0,-1" class="g4_66" />
<path d="M725.5,1123.5l58,0" class="g4_66" />
<path d="M726.5,1121.5l56,0" class="g4_66" />
<path d="M726.5,1098.5l56,0" class="g4_66" />
<path d="M726.5,1121.5l0,-24" class="g3_66" />
<path d="M725.5,1121.5l0,-24" class="g4_66" />
<path d="M781.5,1121.5l0,-24" class="g2_66" />
<path d="M782.5,1121.5l0,-24" class="g4_66" />
<path d="M725.5,1124.5l58,0" class="g3_66" />
<path d="M784.5,1097.5l0,-1" class="g3_66" />
<path d="M784.5,1097.5l42,0" class="g3_66" />
<path d="M826.5,1097.5l0,-1" class="g2_66" />
<path d="M826.5,1097.5l0,-1" class="g3_66" />
<path d="M783.5,1097.5l0,-1" class="g4_66" />
<path d="M827.5,1097.5l2,0" class="g4_66" />
<path d="M783.5,1096.5l46,0" class="g4_66" />
<path d="M784.5,1122.5l0,-1" class="g3_66" />
<path d="M784.5,1122.5l43,0" class="g2_66" />
<path d="M826.5,1122.5l0,-1" class="g2_66" />
<path d="M783.5,1122.5l0,-1" class="g4_66" />
<path d="M827.5,1122.5l2,0" class="g4_66" />
<path d="M783.5,1123.5l46,0" class="g4_66" />
<path d="M784.5,1121.5l43,0" class="g4_66" />
<path d="M784.5,1098.5l43,0" class="g4_66" />
<path d="M784.5,1121.5l0,-24" class="g3_66" />
<path d="M783.5,1121.5l0,-24" class="g4_66" />
<path d="M826.5,1121.5l0,-24" class="g2_66" />
<path d="M827,1121l2,0l0,-24l-2,0l0,24Z" class="g1_66" />
<path d="M783.5,1124.5l46,0" class="g3_66" />
<path d="M829.5,1124.5l0,-26" class="g3_66" />
<path d="M829.5,1124.5l0,-1" class="g3_66" />
</svg>