<?xml version="1.0" encoding="UTF-8" standalone="no"?>
<!DOCTYPE svg PUBLIC "-//W3C//DTD SVG 1.1//EN"
"http://www.w3.org/Graphics/SVG/1.1/DTD/svg11.dtd">
<svg version="1.1" xmlns="http://www.w3.org/2000/svg" xmlns:xlink="http://www.w3.org/1999/xlink">
<defs>
<clipPath id="c0_10"><path d="M464.5,191.5l0,-64l362,0l0,64Z" /></clipPath>
<clipPath id="c1_10"><path d="M110.5,400.5l0,-107l269,0l0,107Z" /></clipPath>
<clipPath id="c2_10"><path d="M381.5,400.5l0,-107l449,0l0,107Z" /></clipPath>
<clipPath id="c3_10"><path d="M110.5,500.5l0,-98l269,0l0,98Z" /></clipPath>
<clipPath id="c4_10"><path d="M381.5,500.5l0,-98l449,0l0,98Z" /></clipPath>
<clipPath id="c5_10"><path d="M110.5,670.5l0,-93l269,0l0,93Z" /></clipPath>
<clipPath id="c6_10"><path d="M381.5,670.5l0,-93l449,0l0,93Z" /></clipPath>
<clipPath id="c7_10"><path d="M110.5,1122.5l0,-271l365,0l0,271Z" /></clipPath>
<style type="text/css"><![CDATA[
.g1_10{
fill: #FFFFFF;
}
.g2_10{
fill: none;
stroke: #EFEFEF;
stroke-width: 1;
stroke-linecap: butt;
stroke-linejoin: miter;
}
.g3_10{
fill: none;
stroke: #A0A0A0;
stroke-width: 1;
stroke-linecap: butt;
stroke-linejoin: miter;
}
]]></style>
</defs>
<image x="217" y="59" width="135" height="45" xlink:href="img/1.png" />
<path d="M572,102l146,0l0,-42L572,60l0,42Z" class="g1_10" />
<image x="572" y="60" width="147" height="43" xlink:href="img/2.png" />
<path d="M104.5,59.5l0,-4" class="g2_10" />
<path d="M104.5,56.5l725,0" class="g2_10" />
<path d="M829.5,59.5l0,-4" class="g3_10" />
<path d="M829.5,56.5l0,-1" class="g2_10" />
<path d="M107.5,58.5l0,-1" class="g3_10" />
<path d="M107.5,58.5l353,0" class="g3_10" />
<path d="M460.5,58.5l0,-1" class="g2_10" />
<path d="M460.5,58.5l0,-1" class="g3_10" />
<path d="M107.5,123.5l0,-1" class="g3_10" />
<path d="M107.5,123.5l354,0" class="g2_10" />
<path d="M460.5,123.5l0,-1" class="g2_10" />
<path d="M107.5,122.5l0,-64" class="g3_10" />
<path d="M460.5,122.5l0,-64" class="g2_10" />
<path d="M104.5,124.5l0,-65" class="g2_10" />
<path d="M463.5,58.5l0,-1" class="g3_10" />
<path d="M463.5,58.5l363,0" class="g3_10" />
<path d="M826.5,58.5l0,-1" class="g2_10" />
<path d="M826.5,58.5l0,-1" class="g3_10" />
<path d="M463.5,123.5l0,-1" class="g3_10" />
<path d="M463.5,123.5l364,0" class="g2_10" />
<path d="M826.5,123.5l0,-1" class="g2_10" />
<path d="M463.5,122.5l0,-64" class="g3_10" />
<path d="M826.5,122.5l0,-64" class="g2_10" />
<path d="M829.5,124.5l0,-65" class="g3_10" />
<path d="M161,172l246,0l0,-43l-246,0l0,43Z" class="g1_10" />
<image x="161" y="129" width="247" height="44" xlink:href="img/3.png" />
<g clip-path="url(#c0_10)">
<path d="M568,173l154,0l0,-45l-154,0l0,45Z" class="g1_10" />
</g>
<image x="568" y="127" width="155" height="47" xlink:href="img/4.png" />
<path d="M104.5,127.5l0,-3" class="g2_10" />
<path d="M829.5,127.5l0,-3" class="g3_10" />
<path d="M107.5,126.5l0,-1" class="g3_10" />
<path d="M107.5,126.5l353,0" class="g3_10" />
<path d="M460.5,126.5l0,-1" class="g2_10" />
<path d="M460.5,126.5l0,-1" class="g3_10" />
<path d="M107.5,193.5l0,-1" class="g3_10" />
<path d="M107.5,193.5l354,0" class="g2_10" />
<path d="M460.5,193.5l0,-1" class="g2_10" />
<path d="M107.5,192.5l0,-66" class="g3_10" />
<path d="M460.5,192.5l0,-66" class="g2_10" />
<path d="M104.5,197.5l0,-70" class="g2_10" />
<path d="M104.5,197.5l358,0" class="g3_10" />
<path d="M463.5,126.5l0,-1" class="g3_10" />
<path d="M463.5,126.5l363,0" class="g3_10" />
<path d="M826.5,126.5l0,-1" class="g2_10" />
<path d="M826.5,126.5l0,-1" class="g3_10" />
<path d="M463.5,193.5l0,-1" class="g3_10" />
<path d="M463.5,193.5l364,0" class="g2_10" />
<path d="M826.5,193.5l0,-1" class="g2_10" />
<path d="M463.5,192.5l0,-66" class="g3_10" />
<path d="M826.5,192.5l0,-66" class="g2_10" />
<path d="M462.5,197.5l367,0" class="g3_10" />
<path d="M829.5,197.5l0,-70" class="g3_10" />
<path d="M829.5,197.5l0,-1" class="g3_10" />
<path d="M107,244l720,0l0,-39l-720,0l0,39Z" class="g1_10" />
<path d="M107,283l720,0l0,-39l-720,0l0,39Z" class="g1_10" />
<g clip-path="url(#c1_10)">
<path d="M175,337l138,0l0,-44l-138,0l0,44Z" class="g1_10" />
</g>
<image x="175" y="293" width="139" height="45" xlink:href="img/5.png" />
<g clip-path="url(#c2_10)">
<path d="M550,342l112,0l0,-49l-112,0l0,49Z" class="g1_10" />
</g>
<image x="550" y="293" width="113" height="50" xlink:href="img/6.png" />
<path d="M108.5,293.5l0,-3" class="g2_10" />
<path d="M108.5,291.5l723,0" class="g2_10" />
<path d="M831.5,293.5l0,-3" class="g3_10" />
<path d="M831.5,291.5l0,-1" class="g2_10" />
<path d="M108.5,293.5l0,-2" class="g3_10" />
<path d="M108.5,293.5l271,0" class="g3_10" />
<path d="M379.5,293.5l0,-2" class="g2_10" />
<path d="M379.5,293.5l0,-2" class="g3_10" />
<path d="M108.5,400.5l0,-107" class="g3_10" />
<path d="M379.5,400.5l0,-107" class="g2_10" />
<path d="M108.5,400.5l0,-107" class="g2_10" />
<path d="M380.5,293.5l0,-2" class="g3_10" />
<path d="M380.5,293.5l450,0" class="g3_10" />
<path d="M830.5,293.5l0,-2" class="g2_10" />
<path d="M830.5,293.5l0,-2" class="g3_10" />
<path d="M380.5,400.5l0,-107" class="g3_10" />
<path d="M830.5,400.5l0,-107" class="g2_10" />
<path d="M831.5,400.5l0,-107" class="g3_10" />
<g clip-path="url(#c3_10)">
<path d="M179,454l130,0l0,-52l-130,0l0,52Z" class="g1_10" />
</g>
<image x="179" y="402" width="132" height="54" xlink:href="img/7.png" />
<g clip-path="url(#c4_10)">
<path d="M553,460l105,0l0,-58l-105,0l0,58Z" class="g1_10" />
</g>
<image x="553" y="402" width="106" height="59" xlink:href="img/8.png" />
<path d="M108.5,402.5l0,-2" class="g2_10" />
<path d="M831.5,402.5l0,-2" class="g3_10" />
<path d="M108.5,402.5l0,-1" class="g3_10" />
<path d="M108.5,402.5l271,0" class="g3_10" />
<path d="M379.5,402.5l0,-1" class="g2_10" />
<path d="M379.5,402.5l0,-1" class="g3_10" />
<path d="M108.5,500.5l0,-98" class="g3_10" />
<path d="M379.5,500.5l0,-98" class="g2_10" />
<path d="M108.5,500.5l0,-98" class="g2_10" />
<path d="M380.5,402.5l0,-1" class="g3_10" />
<path d="M380.5,402.5l450,0" class="g3_10" />
<path d="M830.5,402.5l0,-1" class="g2_10" />
<path d="M830.5,402.5l0,-1" class="g3_10" />
<path d="M380.5,500.5l0,-98" class="g3_10" />
<path d="M830.5,500.5l0,-98" class="g2_10" />
<path d="M831.5,500.5l0,-98" class="g3_10" />
<image x="192" y="502" width="105" height="42" xlink:href="img/9.png" />
<image x="549" y="502" width="114" height="43" xlink:href="img/10.png" />
<path d="M108.5,502.5l0,-2" class="g2_10" />
<path d="M831.5,502.5l0,-2" class="g3_10" />
<path d="M108.5,502.5l0,-2" class="g3_10" />
<path d="M108.5,502.5l271,0" class="g3_10" />
<path d="M379.5,502.5l0,-2" class="g2_10" />
<path d="M379.5,502.5l0,-2" class="g3_10" />
<path d="M108.5,576.5l0,-74" class="g3_10" />
<path d="M379.5,576.5l0,-74" class="g2_10" />
<path d="M108.5,576.5l0,-74" class="g2_10" />
<path d="M380.5,502.5l0,-2" class="g3_10" />
<path d="M380.5,502.5l450,0" class="g3_10" />
<path d="M830.5,502.5l0,-2" class="g2_10" />
<path d="M830.5,502.5l0,-2" class="g3_10" />
<path d="M380.5,576.5l0,-74" class="g3_10" />
<path d="M830.5,576.5l0,-74" class="g2_10" />
<path d="M831.5,576.5l0,-74" class="g3_10" />
<g clip-path="url(#c5_10)">
<path d="M181,624l126,0l0,-46l-126,0l0,46Z" class="g1_10" />
</g>
<image x="181" y="577" width="127" height="48" xlink:href="img/11.png" />
<g clip-path="url(#c6_10)">
<path d="M490,619l231,0l0,-41l-231,0l0,41Z" class="g1_10" />
</g>
<image x="490" y="577" width="232" height="43" xlink:href="img/12.png" />
<path d="M108.5,577.5l0,-1" class="g2_10" />
<path d="M831.5,577.5l0,-1" class="g3_10" />
<path d="M108.5,577.5l0,-1" class="g3_10" />
<path d="M108.5,577.5l271,0" class="g3_10" />
<path d="M379.5,577.5l0,-1" class="g2_10" />
<path d="M379.5,577.5l0,-1" class="g3_10" />
<path d="M108.5,673.5l0,-96" class="g3_10" />
<path d="M379.5,673.5l0,-96" class="g2_10" />
<path d="M108.5,673.5l0,-96" class="g2_10" />
<path d="M108.5,673.5l272,0" class="g3_10" />
<path d="M380.5,577.5l0,-1" class="g3_10" />
<path d="M380.5,577.5l450,0" class="g3_10" />
<path d="M830.5,577.5l0,-1" class="g2_10" />
<path d="M830.5,577.5l0,-1" class="g3_10" />
<path d="M380.5,673.5l0,-96" class="g3_10" />
<path d="M830.5,673.5l0,-96" class="g2_10" />
<path d="M380.5,673.5l451,0" class="g3_10" />
<path d="M831.5,673.5l0,-96" class="g3_10" />
<path d="M831.5,673.5l0,-1" class="g3_10" />
<path d="M107,719l720,0l0,-39l-720,0l0,39Z" class="g1_10" />
<path d="M107,751l720,0l0,-32l-720,0l0,32Z" class="g1_10" />
<path d="M107,797l720,0l0,-46l-720,0l0,46Z" class="g1_10" />
<path d="M107,844l720,0l0,-47l-720,0l0,47Z" class="g1_10" />
<path d="M107,1132l720,0l0,-288l-720,0l0,288Z" class="g1_10" />
<g clip-path="url(#c7_10)">
<path d="M110,1122l365,0l0,-271l-365,0l0,271Z" class="g1_10" />
</g>
<image x="110" y="851" width="367" height="272" xlink:href="img/13.png" />
<image x="110" y="851" width="367" height="272" xlink:href="img/14.png" />
</svg>