<?xml version="1.0" encoding="UTF-8" standalone="no"?>
<!DOCTYPE svg PUBLIC "-//W3C//DTD SVG 1.1//EN"
"http://www.w3.org/Graphics/SVG/1.1/DTD/svg11.dtd">
<svg version="1.1" xmlns="http://www.w3.org/2000/svg" xmlns:xlink="http://www.w3.org/1999/xlink">
<defs>
<style type="text/css"><![CDATA[
.g1_31{
fill: #999999;
}
.g2_31{
fill: none;
stroke: #EFEFEF;
stroke-width: 1;
stroke-linecap: butt;
stroke-linejoin: miter;
}
.g4_31{
fill: none;
stroke: #000000;
stroke-width: 1;
stroke-linecap: butt;
stroke-linejoin: miter;
}
.g3_31{
fill: none;
stroke: #A0A0A0;
stroke-width: 1;
stroke-linecap: butt;
stroke-linejoin: miter;
}
]]></style>
</defs>
<path d="M218,609l497,0l0,-47l-497,0l0,47Z" class="g1_31" />
<path d="M224,585l485,0l0,-18l-485,0l0,18Z" class="g1_31" />
<path d="M217.5,567.5l0,-8" class="g2_31" />
<path d="M217.5,560.5l499,0" class="g2_31" />
<path d="M716.5,567.5l0,-8" class="g3_31" />
<path d="M716.5,560.5l0,-1" class="g2_31" />
<path d="M217.5,562.5l0,-2" class="g3_31" />
<path d="M217.5,562.5l499,0" class="g3_31" />
<path d="M716.5,562.5l0,-2" class="g2_31" />
<path d="M716.5,562.5l0,-2" class="g3_31" />
<path d="M217.5,610.5l0,-1" class="g3_31" />
<path d="M217.5,610.5l500,0" class="g2_31" />
<path d="M716.5,610.5l0,-1" class="g2_31" />
<path d="M217,609l500,0l0,-6l-500,0l0,6Z" class="g1_31" />
<path d="M217,567l500,0l0,-5l-500,0l0,5Z" class="g1_31" />
<path d="M217.5,609.5l0,-47" class="g3_31" />
<path d="M716.5,609.5l0,-47" class="g2_31" />
<path d="M217.5,610.5l0,-43" class="g2_31" />
<path d="M716.5,610.5l0,-43" class="g3_31" />
<path d="M474.5,669.5l173,0" class="g4_31" />
<path d="M217.5,617.5l0,-7" class="g2_31" />
<path d="M716.5,617.5l0,-7" class="g3_31" />
<path d="M217.5,611.5l0,-1" class="g3_31" />
<path d="M217.5,611.5l499,0" class="g3_31" />
<path d="M716.5,611.5l0,-1" class="g2_31" />
<path d="M716.5,611.5l0,-1" class="g3_31" />
<path d="M217.5,712.5l0,-1" class="g3_31" />
<path d="M217.5,712.5l500,0" class="g2_31" />
<path d="M716.5,712.5l0,-1" class="g2_31" />
<path d="M217.5,711.5l0,-100" class="g3_31" />
<path d="M716.5,711.5l0,-100" class="g2_31" />
<path d="M217.5,713.5l0,-96" class="g2_31" />
<path d="M217.5,713.5l499,0" class="g3_31" />
<path d="M716.5,713.5l0,-96" class="g3_31" />
<path d="M716.5,713.5l0,-1" class="g3_31" />
</svg>