<?xml version="1.0" encoding="UTF-8" standalone="no"?>
<!DOCTYPE svg PUBLIC "-//W3C//DTD SVG 1.1//EN"
"http://www.w3.org/Graphics/SVG/1.1/DTD/svg11.dtd">
<svg version="1.1" xmlns="http://www.w3.org/2000/svg" xmlns:xlink="http://www.w3.org/1999/xlink">
<defs>
<clipPath id="c0_147"><path d="M637.5,716.5l0,-13l50,0l0,13Z" /></clipPath>
<style type="text/css"><![CDATA[
.g1_147{
fill: none;
stroke: #000000;
stroke-width: 1;
stroke-linecap: butt;
stroke-linejoin: miter;
}
.g2_147{
}
.g3_147{
fill: #FFFFFF;
}
]]></style>
</defs>
<path d="M442.5,231.5l34,0" class="g1_147" />
<path d="M729.5,252.5l27,0" class="g1_147" />
<path d="M165.5,684.5l38,0" class="g1_147" />
<path d="M216.5,748.5l26,0" class="g1_147" />
<path d="M105.5,795.5l0,-2" class="g1_147" />
<path d="M105.5,795.5l724,0" class="g1_147" />
<path d="M828.5,795.5l0,-2" class="g1_147" />
<path d="M105.5,820.5l0,-1" class="g1_147" />
<path d="M105.5,820.5l0,-1" class="g1_147" />
<path d="M106,821l722,0l0,-2l-722,0l0,2Z" class="g2_147" />
<path d="M829.5,821.5l0,-2" class="g1_147" />
<path d="M828.5,821.5l2,0" class="g1_147" />
<path d="M828.5,820.5l0,-1" class="g1_147" />
<path d="M828.5,820.5l0,-1" class="g1_147" />
<path d="M105.5,819.5l0,-24" class="g1_147" />
<path d="M828,819l2,0l0,-24l-2,0l0,24Z" class="g2_147" />
<path d="M333,941l10,0l0,-1l-10,0l0,1Z" class="g2_147" />
<path d="M411,941l9,0l0,-1l-9,0l0,1Z" class="g2_147" />
<g clip-path="url(#c0_147)">
<path d="M637,716l50,0l0,-13l-50,0l0,13Z" class="g3_147" />
</g>
<image x="637" y="703" width="52" height="15" xlink:href="img/1.png" />
<image x="637" y="703" width="53" height="15" xlink:href="img/2.png" />
</svg>