<?xml version="1.0" encoding="UTF-8" standalone="no"?>
<!DOCTYPE svg PUBLIC "-//W3C//DTD SVG 1.1//EN"
"http://www.w3.org/Graphics/SVG/1.1/DTD/svg11.dtd">
<svg version="1.1" xmlns="http://www.w3.org/2000/svg" xmlns:xlink="http://www.w3.org/1999/xlink">
<defs>
<clipPath id="c0_146"><path d="M285.5,980.5l0,-9l26,0l0,9Z" /></clipPath>
<style type="text/css"><![CDATA[
.g1_146{
fill: none;
stroke: #000000;
stroke-width: 1;
stroke-linecap: butt;
stroke-linejoin: miter;
}
.g2_146{
}
.g3_146{
fill: #FFFFFF;
}
]]></style>
</defs>
<path d="M110.5,295.5l68,0" class="g1_146" />
<path d="M110.5,447.5l28,0" class="g1_146" />
<path d="M110.5,465.5l48,0" class="g1_146" />
<path d="M495.5,465.5l15,0" class="g1_146" />
<path d="M105.5,486.5l0,-1" class="g1_146" />
<path d="M105.5,486.5l724,0" class="g1_146" />
<path d="M828.5,486.5l0,-1" class="g1_146" />
<path d="M105.5,512.5l0,-1" class="g1_146" />
<path d="M105.5,512.5l0,-1" class="g1_146" />
<path d="M106,513l722,0l0,-2l-722,0l0,2Z" class="g2_146" />
<path d="M829.5,513.5l0,-2" class="g1_146" />
<path d="M828.5,513.5l2,0" class="g1_146" />
<path d="M828.5,512.5l0,-1" class="g1_146" />
<path d="M828.5,512.5l0,-1" class="g1_146" />
<path d="M105.5,511.5l0,-25" class="g1_146" />
<path d="M828,511l2,0l0,-25l-2,0l0,25Z" class="g2_146" />
<g clip-path="url(#c0_146)">
<path d="M285,980l26,0l0,-9l-26,0l0,9Z" class="g3_146" />
</g>
<image x="285" y="971" width="28" height="11" xlink:href="img/1.png" />
<image x="285" y="971" width="28" height="11" xlink:href="img/2.png" />
<path d="M594.5,1005.5l24,0" class="g1_146" />
<path d="M105.5,1008.5l0,-1" class="g1_146" />
<path d="M105.5,1008.5l724,0" class="g1_146" />
<path d="M828.5,1008.5l0,-1" class="g1_146" />
<path d="M105.5,1034.5l0,-2" class="g1_146" />
<path d="M105.5,1034.5l0,-2" class="g1_146" />
<path d="M106,1035l722,0l0,-3l-722,0l0,3Z" class="g2_146" />
<path d="M829.5,1035.5l0,-3" class="g1_146" />
<path d="M828.5,1035.5l2,0" class="g1_146" />
<path d="M828.5,1034.5l0,-2" class="g1_146" />
<path d="M828.5,1034.5l0,-2" class="g1_146" />
<path d="M105.5,1032.5l0,-24" class="g1_146" />
<path d="M828,1032l2,0l0,-24l-2,0l0,24Z" class="g2_146" />
<image x="321" y="1035" width="38" height="18" xlink:href="img/3.png" />
</svg>