<?xml version="1.0" encoding="UTF-8" standalone="no"?>
<!DOCTYPE svg PUBLIC "-//W3C//DTD SVG 1.1//EN"
"http://www.w3.org/Graphics/SVG/1.1/DTD/svg11.dtd">
<svg version="1.1" xmlns="http://www.w3.org/2000/svg" xmlns:xlink="http://www.w3.org/1999/xlink">
<defs>
<style type="text/css"><![CDATA[
.g1_64{
fill: none;
stroke: #000000;
stroke-width: 1;
stroke-linecap: butt;
stroke-linejoin: miter;
}
.g6_64{
fill: none;
stroke: #EFEFEF;
stroke-width: 1;
stroke-linecap: butt;
stroke-linejoin: miter;
}
.g2_64{
fill: #A0A0A0;
}
.g3_64{
fill: none;
stroke: #A0A0A0;
stroke-width: 1;
stroke-linecap: butt;
stroke-linejoin: miter;
}
.g5_64{
fill: #FFFFFF;
}
.g4_64{
fill: none;
stroke: #E3E3E3;
stroke-width: 1;
stroke-linecap: butt;
stroke-linejoin: miter;
}
]]></style>
</defs>
<image x="279" y="326" width="376" height="38" xlink:href="img/1.png" />
<path d="M218.5,278.5l0,-4" class="g1_64" />
<path d="M218.5,276.5l497,0" class="g1_64" />
<path d="M715.5,278.5l0,-4" class="g1_64" />
<path d="M715.5,276.5l0,-2" class="g1_64" />
<path d="M219.5,277.5l0,-1" class="g1_64" />
<path d="M219.5,277.5l496,0" class="g1_64" />
<path d="M714.5,277.5l0,-1" class="g1_64" />
<path d="M219.5,378.5l0,-1" class="g1_64" />
<path d="M219.5,378.5l496,0" class="g1_64" />
<path d="M714.5,378.5l0,-1" class="g1_64" />
<path d="M219.5,377.5l0,-100" class="g1_64" />
<path d="M714.5,377.5l0,-100" class="g1_64" />
<path d="M218.5,378.5l0,-100" class="g1_64" />
<path d="M715.5,378.5l0,-100" class="g1_64" />
<image x="482" y="393" width="223" height="30" xlink:href="img/2.png" />
<path d="M218.5,380.5l0,-2" class="g1_64" />
<path d="M715.5,380.5l0,-2" class="g1_64" />
<path d="M219.5,379.5l0,-1" class="g1_64" />
<path d="M219.5,379.5l253,0" class="g1_64" />
<path d="M471.5,379.5l0,-1" class="g1_64" />
<path d="M219.5,437.5l0,-1" class="g1_64" />
<path d="M219.5,437.5l253,0" class="g1_64" />
<path d="M471.5,437.5l0,-1" class="g1_64" />
<path d="M219.5,436.5l0,-57" class="g1_64" />
<path d="M471.5,436.5l0,-57" class="g1_64" />
<path d="M218.5,437.5l0,-57" class="g1_64" />
<path d="M472.5,379.5l0,-1" class="g1_64" />
<path d="M472.5,379.5l243,0" class="g1_64" />
<path d="M714.5,379.5l0,-1" class="g1_64" />
<path d="M472.5,437.5l0,-1" class="g1_64" />
<path d="M472.5,437.5l243,0" class="g1_64" />
<path d="M714.5,437.5l0,-1" class="g1_64" />
<path d="M472.5,436.5l0,-57" class="g1_64" />
<path d="M714.5,436.5l0,-57" class="g1_64" />
<path d="M715.5,437.5l0,-57" class="g1_64" />
<image x="504" y="449" width="179" height="36" xlink:href="img/3.png" />
<path d="M218.5,440.5l0,-3" class="g1_64" />
<path d="M715.5,440.5l0,-3" class="g1_64" />
<path d="M219.5,438.5l0,-1" class="g1_64" />
<path d="M219.5,438.5l253,0" class="g1_64" />
<path d="M471.5,438.5l0,-1" class="g1_64" />
<path d="M219.5,496.5l0,-1" class="g1_64" />
<path d="M219.5,496.5l253,0" class="g1_64" />
<path d="M471.5,496.5l0,-1" class="g1_64" />
<path d="M219.5,495.5l0,-57" class="g1_64" />
<path d="M471.5,495.5l0,-57" class="g1_64" />
<path d="M218.5,497.5l0,-57" class="g1_64" />
<path d="M218.5,497.5l254,0" class="g1_64" />
<path d="M472.5,438.5l0,-1" class="g1_64" />
<path d="M472.5,438.5l243,0" class="g1_64" />
<path d="M714.5,438.5l0,-1" class="g1_64" />
<path d="M472.5,496.5l0,-1" class="g1_64" />
<path d="M472.5,496.5l243,0" class="g1_64" />
<path d="M714.5,496.5l0,-1" class="g1_64" />
<path d="M472.5,495.5l0,-57" class="g1_64" />
<path d="M714.5,495.5l0,-57" class="g1_64" />
<path d="M472.5,497.5l243,0" class="g1_64" />
<path d="M715.5,497.5l0,-57" class="g1_64" />
<path d="M715.5,497.5l0,-1" class="g1_64" />
<path d="M110,556l715,0l0,-2l-715,0l0,2Z" class="g2_64" />
<path d="M110.5,554.5l714,0" class="g3_64" />
<path d="M110.5,556.5l0,-2" class="g3_64" />
<path d="M824.5,556.5l0,-2" class="g4_64" />
<path d="M110.5,556.5l715,0" class="g4_64" />
<path d="M281,674l109,0l0,-47l-109,0l0,47Z" class="g5_64" />
<image x="281" y="627" width="110" height="48" xlink:href="img/4.png" />
<path d="M259,755l153,0l0,-45l-153,0l0,45Z" class="g5_64" />
<image x="258" y="710" width="155" height="46" xlink:href="img/5.png" />
<path d="M535,674l147,0l0,-76l-147,0l0,76Z" class="g5_64" />
<image x="535" y="598" width="148" height="77" xlink:href="img/6.png" />
<path d="M541,784l134,0l0,-52l-134,0l0,52Z" class="g5_64" />
<image x="541" y="732" width="136" height="53" xlink:href="img/7.png" />
<path d="M193.5,590.5l0,-8" class="g6_64" />
<path d="M193.5,583.5l547,0" class="g6_64" />
<path d="M740.5,590.5l0,-8" class="g3_64" />
<path d="M740.5,583.5l0,-1" class="g6_64" />
<path d="M194.5,584.5l0,-1" class="g3_64" />
<path d="M194.5,584.5l283,0" class="g3_64" />
<path d="M477.5,584.5l0,-1" class="g6_64" />
<path d="M477.5,584.5l0,-1" class="g3_64" />
<path d="M194.5,820.5l0,-1" class="g3_64" />
<path d="M194.5,820.5l284,0" class="g6_64" />
<path d="M477.5,820.5l0,-1" class="g6_64" />
<path d="M194.5,819.5l0,-235" class="g3_64" />
<path d="M477.5,819.5l0,-235" class="g6_64" />
<path d="M193.5,820.5l0,-230" class="g6_64" />
<path d="M478.5,584.5l0,-1" class="g3_64" />
<path d="M478.5,584.5l261,0" class="g3_64" />
<path d="M739.5,584.5l0,-1" class="g6_64" />
<path d="M739.5,584.5l0,-1" class="g3_64" />
<path d="M478.5,820.5l0,-1" class="g3_64" />
<path d="M478.5,820.5l262,0" class="g6_64" />
<path d="M739.5,820.5l0,-1" class="g6_64" />
<path d="M478.5,819.5l0,-235" class="g3_64" />
<path d="M739.5,819.5l0,-235" class="g6_64" />
<path d="M740.5,820.5l0,-230" class="g3_64" />
<image x="374" y="827" width="186" height="44" xlink:href="img/8.png" />
<image x="346" y="888" width="242" height="41" xlink:href="img/9.png" />
<path d="M193.5,827.5l0,-7" class="g6_64" />
<path d="M740.5,827.5l0,-7" class="g3_64" />
<path d="M194.5,821.5l0,-1" class="g3_64" />
<path d="M194.5,821.5l545,0" class="g3_64" />
<path d="M739.5,821.5l0,-1" class="g6_64" />
<path d="M739.5,821.5l0,-1" class="g3_64" />
<path d="M194.5,953.5l0,-1" class="g3_64" />
<path d="M194.5,953.5l546,0" class="g6_64" />
<path d="M739.5,953.5l0,-1" class="g6_64" />
<path d="M194.5,952.5l0,-131" class="g3_64" />
<path d="M739.5,952.5l0,-131" class="g6_64" />
<path d="M193.5,954.5l0,-127" class="g6_64" />
<path d="M193.5,954.5l547,0" class="g3_64" />
<path d="M740.5,954.5l0,-127" class="g3_64" />
<path d="M740.5,954.5l0,-1" class="g3_64" />
</svg>