<?xml version="1.0" encoding="UTF-8" standalone="no"?>
<!DOCTYPE svg PUBLIC "-//W3C//DTD SVG 1.1//EN"
"http://www.w3.org/Graphics/SVG/1.1/DTD/svg11.dtd">
<svg version="1.1" xmlns="http://www.w3.org/2000/svg" xmlns:xlink="http://www.w3.org/1999/xlink">
<defs>
<style type="text/css"><![CDATA[
.g1_2{
fill: #FFFFFF;
}
]]></style>
</defs>
<path d="M107,136l720,0l0,-31l-720,0l0,31Z" class="g1_2" />
<path d="M107,168l720,0l0,-32l-720,0l0,32Z" class="g1_2" />
<path d="M107,199l720,0l0,-31l-720,0l0,31Z" class="g1_2" />
<path d="M107,231l720,0l0,-32l-720,0l0,32Z" class="g1_2" />
<path d="M107,262l720,0l0,-32l-720,0l0,32Z" class="g1_2" />
<path d="M107,293l720,0l0,-31l-720,0l0,31Z" class="g1_2" />
<path d="M107,325l720,0l0,-32l-720,0l0,32Z" class="g1_2" />
<path d="M107,356l720,0l0,-31l-720,0l0,31Z" class="g1_2" />
<path d="M107,387l720,0l0,-31l-720,0l0,31Z" class="g1_2" />
<path d="M107,419l720,0l0,-32l-720,0l0,32Z" class="g1_2" />
<path d="M107,450l720,0l0,-31l-720,0l0,31Z" class="g1_2" />
<path d="M107,489l720,0l0,-39l-720,0l0,39Z" class="g1_2" />
<path d="M107,528l720,0l0,-39l-720,0l0,39Z" class="g1_2" />
<path d="M107,559l720,0l0,-31l-720,0l0,31Z" class="g1_2" />
<path d="M107,591l720,0l0,-32l-720,0l0,32Z" class="g1_2" />
<path d="M107,622l720,0l0,-31l-720,0l0,31Z" class="g1_2" />
<path d="M107,653l720,0l0,-31l-720,0l0,31Z" class="g1_2" />
<path d="M107,685l720,0l0,-32l-720,0l0,32Z" class="g1_2" />
<path d="M107,724l720,0l0,-39l-720,0l0,39Z" class="g1_2" />
<path d="M107,763l720,0l0,-39l-720,0l0,39Z" class="g1_2" />
<path d="M107,794l720,0l0,-31l-720,0l0,31Z" class="g1_2" />
<path d="M107,833l720,0l0,-39l-720,0l0,39Z" class="g1_2" />
<path d="M107,879l720,0l0,-46l-720,0l0,46Z" class="g1_2" />
<path d="M107,918l720,0l0,-39l-720,0l0,39Z" class="g1_2" />
<path d="M107,950l720,0l0,-32l-720,0l0,32Z" class="g1_2" />
<path d="M107,989l720,0l0,-39l-720,0l0,39Z" class="g1_2" />
<path d="M107,1035l720,0l0,-46l-720,0l0,46Z" class="g1_2" />
<path d="M107,1067l720,0l0,-32l-720,0l0,32Z" class="g1_2" />
<path d="M107,1106l720,0l0,-39l-720,0l0,39Z" class="g1_2" />
<path d="M107,1137l720,0l0,-31l-720,0l0,31Z" class="g1_2" />
</svg>